%TF.GenerationSoftware,Altium Limited,Altium Designer,20.0.13 (296)*%
G04 Layer_Color=255*
%FSLAX26Y26*%
%MOIN*%
%TF.FileFunction,Pads,Bot*%
%TF.Part,Single*%
G01*
G75*
%TA.AperFunction,SMDPad,CuDef*%
%ADD15R,0.057087X0.053150*%
%TA.AperFunction,ViaPad*%
%ADD20C,0.150000*%
%TA.AperFunction,ComponentPad*%
%ADD21R,0.059055X0.059055*%
%ADD22R,0.066929X0.066929*%
%ADD23C,0.066929*%
%ADD24C,0.064961*%
%ADD25C,0.078740*%
%ADD26R,0.078740X0.078740*%
%ADD27R,0.059055X0.059055*%
%ADD28R,0.062992X0.062992*%
%ADD29C,0.062992*%
%ADD30C,0.055118*%
%ADD31C,0.049213*%
%ADD32R,0.049213X0.049213*%
%TA.AperFunction,SMDPad,CuDef*%
%ADD34R,0.070866X0.055118*%
%ADD35R,0.055118X0.070866*%
%ADD36R,0.053150X0.057087*%
D15*
X3570276Y3427520D02*
D03*
Y3492480D02*
D03*
X3565276Y2017480D02*
D03*
Y1952520D02*
D03*
D20*
X6496063Y4055118D02*
D03*
Y1220472D02*
D03*
X2401575Y4055118D02*
D03*
Y1220472D02*
D03*
D21*
X2539370Y1874016D02*
D03*
D22*
X3374016Y4055118D02*
D03*
D23*
X3570866D02*
D03*
D24*
X6535433Y1905000D02*
D03*
Y2905000D02*
D03*
X6315000D02*
D03*
Y1905000D02*
D03*
X4232283Y3491457D02*
D03*
Y3798543D02*
D03*
X5940000Y2595000D02*
D03*
Y3395000D02*
D03*
X5950000Y2220000D02*
D03*
Y1420000D02*
D03*
X4232283Y2328543D02*
D03*
Y2021457D02*
D03*
D25*
X5127165Y3180000D02*
D03*
Y2310000D02*
D03*
Y1710000D02*
D03*
Y3770000D02*
D03*
D26*
X4715354Y3180000D02*
D03*
Y2310000D02*
D03*
Y1710000D02*
D03*
Y3770000D02*
D03*
D27*
X2540276Y2275000D02*
D03*
D28*
X5590551Y3595000D02*
D03*
Y2125000D02*
D03*
Y2985000D02*
D03*
Y1520000D02*
D03*
D29*
Y3495000D02*
D03*
Y3395000D02*
D03*
Y1925000D02*
D03*
Y2025000D02*
D03*
Y2785000D02*
D03*
Y2885000D02*
D03*
Y1320000D02*
D03*
Y1420000D02*
D03*
D30*
X5271260Y2985000D02*
D03*
X4571260D02*
D03*
X5271260Y2120000D02*
D03*
X4571260D02*
D03*
X5271260Y1520000D02*
D03*
X4571260D02*
D03*
Y3595000D02*
D03*
X5271260D02*
D03*
D31*
X3665276Y2990000D02*
D03*
Y3090000D02*
D03*
Y3190000D02*
D03*
Y3290000D02*
D03*
Y3390000D02*
D03*
Y3490000D02*
D03*
Y3590000D02*
D03*
X3965276D02*
D03*
Y3490000D02*
D03*
Y3390000D02*
D03*
Y3290000D02*
D03*
Y3190000D02*
D03*
Y3090000D02*
D03*
Y1620000D02*
D03*
Y1720000D02*
D03*
Y1820000D02*
D03*
Y1920000D02*
D03*
Y2020000D02*
D03*
Y2120000D02*
D03*
X3665276D02*
D03*
Y2020000D02*
D03*
Y1920000D02*
D03*
Y1820000D02*
D03*
Y1720000D02*
D03*
Y1620000D02*
D03*
Y1520000D02*
D03*
D32*
X3965276Y2990000D02*
D03*
Y1520000D02*
D03*
D34*
X3440276Y3491181D02*
D03*
Y3388819D02*
D03*
Y1913819D02*
D03*
Y2016181D02*
D03*
D35*
X3469685Y3743189D02*
D03*
X3572047D02*
D03*
X2891457Y2940000D02*
D03*
X2789095D02*
D03*
D36*
X3506890Y3842520D02*
D03*
X3571850D02*
D03*
X2790315Y2840000D02*
D03*
X2855276D02*
D03*
%TF.MD5,6d0e3b51b726f12cf7df46e2f55c296b*%
M02*
