%TF.GenerationSoftware,Altium Limited,Altium Designer,20.0.13 (296)*%
G04 Layer_Color=8388736*
%FSLAX26Y26*%
%MOIN*%
%TF.FileFunction,Soldermask,Top*%
%TF.Part,Single*%
G01*
G75*
%TA.AperFunction,SMDPad,CuDef*%
%ADD45R,0.065087X0.061150*%
%TA.AperFunction,ViaPad*%
%ADD48C,0.158000*%
%TA.AperFunction,ComponentPad*%
%ADD49R,0.067055X0.067055*%
%ADD50R,0.074929X0.074929*%
%ADD51C,0.074929*%
%ADD52C,0.072961*%
%ADD53C,0.086740*%
%ADD54R,0.086740X0.086740*%
%ADD55R,0.067055X0.067055*%
%ADD56R,0.070992X0.070992*%
%ADD57C,0.070992*%
%ADD58C,0.063118*%
%ADD59C,0.057213*%
%ADD60R,0.057213X0.057213*%
%TA.AperFunction,ViaPad*%
%ADD61C,0.047370*%
%TA.AperFunction,SMDPad,CuDef*%
%ADD65R,0.065087X0.059181*%
%ADD66R,0.078866X0.143827*%
%ADD67R,0.065087X0.053276*%
G04:AMPARAMS|DCode=68|XSize=33.591mil|YSize=72.961mil|CornerRadius=5.919mil|HoleSize=0mil|Usage=FLASHONLY|Rotation=180.000|XOffset=0mil|YOffset=0mil|HoleType=Round|Shape=RoundedRectangle|*
%AMROUNDEDRECTD68*
21,1,0.033591,0.061122,0,0,180.0*
21,1,0.021752,0.072961,0,0,180.0*
1,1,0.011839,-0.010876,0.030561*
1,1,0.011839,0.010876,0.030561*
1,1,0.011839,0.010876,-0.030561*
1,1,0.011839,-0.010876,-0.030561*
%
%ADD68ROUNDEDRECTD68*%
%ADD69R,0.072961X0.051307*%
%ADD70R,0.051307X0.072961*%
D45*
X2995276Y2235039D02*
D03*
Y2300000D02*
D03*
X2955276Y2889961D02*
D03*
Y2825000D02*
D03*
X2700276Y2272480D02*
D03*
Y2207520D02*
D03*
D48*
X6496063Y4055118D02*
D03*
Y1220472D02*
D03*
X2401575Y4055118D02*
D03*
Y1220472D02*
D03*
D49*
X2539370Y1874016D02*
D03*
D50*
X3374016Y4055118D02*
D03*
D51*
X3570866D02*
D03*
D52*
X6535433Y1905000D02*
D03*
Y2905000D02*
D03*
X6315000D02*
D03*
Y1905000D02*
D03*
X4232283Y3491457D02*
D03*
Y3798543D02*
D03*
X5940000Y2595000D02*
D03*
Y3395000D02*
D03*
X5950000Y2220000D02*
D03*
Y1420000D02*
D03*
X4232283Y2328543D02*
D03*
Y2021457D02*
D03*
D53*
X5127165Y3180000D02*
D03*
Y2310000D02*
D03*
Y1710000D02*
D03*
Y3770000D02*
D03*
D54*
X4715354Y3180000D02*
D03*
Y2310000D02*
D03*
Y1710000D02*
D03*
Y3770000D02*
D03*
D55*
X2540276Y2275000D02*
D03*
D56*
X5590551Y3595000D02*
D03*
Y2125000D02*
D03*
Y2985000D02*
D03*
Y1520000D02*
D03*
D57*
Y3495000D02*
D03*
Y3395000D02*
D03*
Y1925000D02*
D03*
Y2025000D02*
D03*
Y2785000D02*
D03*
Y2885000D02*
D03*
Y1320000D02*
D03*
Y1420000D02*
D03*
D58*
X5271260Y2985000D02*
D03*
X4571260D02*
D03*
X5271260Y2120000D02*
D03*
X4571260D02*
D03*
X5271260Y1520000D02*
D03*
X4571260D02*
D03*
Y3595000D02*
D03*
X5271260D02*
D03*
D59*
X3665276Y2990000D02*
D03*
Y3090000D02*
D03*
Y3190000D02*
D03*
Y3290000D02*
D03*
Y3390000D02*
D03*
Y3490000D02*
D03*
Y3590000D02*
D03*
X3965276D02*
D03*
Y3490000D02*
D03*
Y3390000D02*
D03*
Y3290000D02*
D03*
Y3190000D02*
D03*
Y3090000D02*
D03*
Y1620000D02*
D03*
Y1720000D02*
D03*
Y1820000D02*
D03*
Y1920000D02*
D03*
Y2020000D02*
D03*
Y2120000D02*
D03*
X3665276D02*
D03*
Y2020000D02*
D03*
Y1920000D02*
D03*
Y1820000D02*
D03*
Y1720000D02*
D03*
Y1620000D02*
D03*
Y1520000D02*
D03*
D60*
X3965276Y2990000D02*
D03*
Y1520000D02*
D03*
D61*
X6003937Y3740158D02*
D03*
X5905512Y3543307D02*
D03*
X6003937Y2952756D02*
D03*
X5905512Y2755906D02*
D03*
Y2362205D02*
D03*
Y1968504D02*
D03*
Y1181102D02*
D03*
X5807087Y3740158D02*
D03*
X5708662Y3543307D02*
D03*
Y2755906D02*
D03*
X5807087Y2559055D02*
D03*
X5708662Y2362205D02*
D03*
X5807087Y2165354D02*
D03*
X5708662Y1181102D02*
D03*
X5610236Y3740158D02*
D03*
Y2559055D02*
D03*
X5511811Y1181102D02*
D03*
X5314961Y2362205D02*
D03*
X5413386Y1377953D02*
D03*
X5118110Y2755906D02*
D03*
X5216536Y2559055D02*
D03*
X5118110Y1968504D02*
D03*
Y1181102D02*
D03*
X4921260Y2755906D02*
D03*
X5019685Y2559055D02*
D03*
X4921260Y1968504D02*
D03*
X5019685Y1377953D02*
D03*
X4921260Y1181102D02*
D03*
X4724410Y2755906D02*
D03*
X4822835Y2559055D02*
D03*
X4724410Y1968504D02*
D03*
X4822835Y1377953D02*
D03*
X4724410Y1181102D02*
D03*
X4527559Y2755906D02*
D03*
X4625984Y2559055D02*
D03*
X4527559Y2362205D02*
D03*
X4625984Y1377953D02*
D03*
X4527559Y1181102D02*
D03*
X4429134Y2559055D02*
D03*
X4330709Y2362205D02*
D03*
X4429134Y1377953D02*
D03*
X4330709Y1181102D02*
D03*
X4133858Y2755906D02*
D03*
X4232284Y1377953D02*
D03*
X4133858Y1181102D02*
D03*
X5270000Y1185000D02*
D03*
Y2620000D02*
D03*
X3285276Y2960000D02*
D03*
X2700276Y2055000D02*
D03*
X2890276Y2105000D02*
D03*
X3290276Y2155000D02*
D03*
X2640276Y2935000D02*
D03*
X2690276Y2375000D02*
D03*
X2720276Y2740000D02*
D03*
X2915276D02*
D03*
X2840276Y2375000D02*
D03*
X2565276Y2760000D02*
D03*
X2790276D02*
D03*
X2495276D02*
D03*
D65*
X4468504Y3361496D02*
D03*
Y3298504D02*
D03*
X4455276Y1828504D02*
D03*
Y1891496D02*
D03*
D66*
X4232283Y3360394D02*
D03*
Y3159606D02*
D03*
Y1689606D02*
D03*
Y1890394D02*
D03*
D67*
X3285276Y2895433D02*
D03*
Y2824567D02*
D03*
X3290276Y2229567D02*
D03*
Y2300433D02*
D03*
D68*
X2890276Y2666220D02*
D03*
X2840276D02*
D03*
X2790276D02*
D03*
X2740276D02*
D03*
X2690276D02*
D03*
X2640276D02*
D03*
X2590276D02*
D03*
X2540276D02*
D03*
X2890276Y2443780D02*
D03*
X2840276D02*
D03*
X2790276D02*
D03*
X2740276D02*
D03*
X2690276D02*
D03*
X2640276D02*
D03*
X2590276D02*
D03*
X2540276D02*
D03*
D69*
X2840276Y2937205D02*
D03*
Y2825000D02*
D03*
X5270000Y1371102D02*
D03*
Y1258898D02*
D03*
Y1937205D02*
D03*
Y1825000D02*
D03*
Y2801102D02*
D03*
Y2688898D02*
D03*
Y3411102D02*
D03*
Y3298898D02*
D03*
X2640276Y2876102D02*
D03*
Y2763898D02*
D03*
X2890276Y2187795D02*
D03*
Y2300000D02*
D03*
X2790276Y2188898D02*
D03*
Y2301102D02*
D03*
D70*
X3186378Y2825000D02*
D03*
X3074173D02*
D03*
X3191378Y2300000D02*
D03*
X3079173D02*
D03*
X2641378Y3010000D02*
D03*
X2529173D02*
D03*
%TF.MD5,9073fd9250e7b331d1c0b5ab810ec02b*%
M02*
