%TF.GenerationSoftware,Altium Limited,Altium Designer,20.0.13 (296)*%
G04 Layer_Physical_Order=2*
G04 Layer_Color=16711680*
%FSLAX26Y26*%
%MOIN*%
%TF.FileFunction,Copper,L2,Bot,Signal*%
%TF.Part,Single*%
G01*
G75*
%TA.AperFunction,SMDPad,CuDef*%
%ADD15R,0.057087X0.053150*%
%TA.AperFunction,Conductor*%
%ADD18C,0.027559*%
%ADD19C,0.019685*%
%TA.AperFunction,ViaPad*%
%ADD20C,0.150000*%
%TA.AperFunction,ComponentPad*%
%ADD21R,0.059055X0.059055*%
%ADD22R,0.066929X0.066929*%
%ADD23C,0.066929*%
%ADD24C,0.064961*%
%ADD25C,0.078740*%
%ADD26R,0.078740X0.078740*%
%ADD27R,0.059055X0.059055*%
%ADD28R,0.062992X0.062992*%
%ADD29C,0.062992*%
%ADD30C,0.055118*%
%ADD31C,0.049213*%
%ADD32R,0.049213X0.049213*%
%TA.AperFunction,ViaPad*%
%ADD33C,0.039370*%
%TA.AperFunction,SMDPad,CuDef*%
%ADD34R,0.070866X0.055118*%
%ADD35R,0.055118X0.070866*%
%ADD36R,0.053150X0.057087*%
%TA.AperFunction,Conductor*%
%ADD37C,0.059055*%
%ADD38C,0.055118*%
%ADD39C,0.039370*%
%ADD40C,0.070866*%
G36*
X6693898Y4073818D02*
Y1201771D01*
X6515748Y1023622D01*
X2362205D01*
X2185039Y1200787D01*
Y4055118D01*
X2401575Y4271653D01*
X6496063D01*
X6693898Y4073818D01*
D02*
G37*
%LPC*%
G36*
X6496063Y4170475D02*
X6466206Y4166544D01*
X6438385Y4155020D01*
X6414493Y4136688D01*
X6396161Y4112797D01*
X6384637Y4084975D01*
X6380706Y4055118D01*
X6384637Y4025262D01*
X6396161Y3997440D01*
X6414493Y3973548D01*
X6438385Y3955216D01*
X6466206Y3943692D01*
X6496063Y3939761D01*
X6525920Y3943692D01*
X6553742Y3955216D01*
X6577633Y3973548D01*
X6595965Y3997440D01*
X6607489Y4025262D01*
X6611420Y4055118D01*
X6607489Y4084975D01*
X6595965Y4112797D01*
X6577633Y4136688D01*
X6553742Y4155020D01*
X6525920Y4166544D01*
X6496063Y4170475D01*
D02*
G37*
G36*
X2401575D02*
X2371718Y4166544D01*
X2343896Y4155020D01*
X2320005Y4136688D01*
X2301673Y4112797D01*
X2290148Y4084975D01*
X2286218Y4055118D01*
X2290148Y4025262D01*
X2301673Y3997440D01*
X2320005Y3973548D01*
X2343896Y3955216D01*
X2371718Y3943692D01*
X2401575Y3939761D01*
X2431431Y3943692D01*
X2459253Y3955216D01*
X2483144Y3973548D01*
X2501477Y3997440D01*
X2513001Y4025262D01*
X2516932Y4055118D01*
X2513001Y4084975D01*
X2501477Y4112797D01*
X2483144Y4136688D01*
X2459253Y4155020D01*
X2431431Y4166544D01*
X2401575Y4170475D01*
D02*
G37*
G36*
X5271260Y3663240D02*
X5245145Y3658046D01*
X5223007Y3643253D01*
X5208214Y3621114D01*
X5203020Y3595000D01*
X5208214Y3568886D01*
X5223007Y3546747D01*
X5245145Y3531954D01*
X5271260Y3526760D01*
X5297374Y3531954D01*
X5319513Y3546747D01*
X5334306Y3568886D01*
X5339500Y3595000D01*
X5334306Y3621114D01*
X5319513Y3643253D01*
X5297374Y3658046D01*
X5271260Y3663240D01*
D02*
G37*
G36*
X4571260D02*
X4545145Y3658046D01*
X4523007Y3643253D01*
X4508214Y3621114D01*
X4503020Y3595000D01*
X4508214Y3568886D01*
X4523007Y3546747D01*
X4545145Y3531954D01*
X4571260Y3526760D01*
X4597374Y3531954D01*
X4619513Y3546747D01*
X4634306Y3568886D01*
X4639500Y3595000D01*
X4634306Y3621114D01*
X4619513Y3643253D01*
X4597374Y3658046D01*
X4571260Y3663240D01*
D02*
G37*
G36*
X4232283Y3564715D02*
X4204249Y3559138D01*
X4180482Y3543258D01*
X4164602Y3519491D01*
X4159025Y3491457D01*
X4164602Y3463422D01*
X4180482Y3439655D01*
X4204249Y3423775D01*
X4232283Y3418199D01*
X4260318Y3423775D01*
X4284085Y3439655D01*
X4299965Y3463422D01*
X4305542Y3491457D01*
X4299965Y3519491D01*
X4284085Y3543258D01*
X4260318Y3559138D01*
X4232283Y3564715D01*
D02*
G37*
G36*
X3570866Y4129380D02*
X3542448Y4123727D01*
X3518355Y4107629D01*
X3502257Y4083537D01*
X3496605Y4055118D01*
X3502257Y4026700D01*
X3511146Y4013397D01*
Y3910433D01*
X3505905D01*
Y3817992D01*
X3505118D01*
Y3742459D01*
X3505028Y3742008D01*
X3505118Y3741557D01*
Y3668386D01*
X3521085D01*
Y3558425D01*
X3502362D01*
Y3558110D01*
X3365472D01*
Y3545372D01*
X3066457D01*
X3066457Y3545372D01*
X3045719Y3541247D01*
X3028138Y3529500D01*
X2750776Y3252138D01*
X2739029Y3234557D01*
X2734904Y3213819D01*
X2734904Y3213818D01*
Y3122989D01*
X2730276Y3119191D01*
X2730275Y3119191D01*
X2490276D01*
X2490276Y3119191D01*
X2469538Y3115066D01*
X2451957Y3103319D01*
X2451957Y3103318D01*
X2321957Y2973319D01*
X2310210Y2955738D01*
X2306085Y2935000D01*
X2306085Y2934999D01*
Y2645001D01*
X2306085Y2645000D01*
X2310210Y2624262D01*
X2321957Y2606681D01*
X2336957Y2591681D01*
X2354538Y2579934D01*
X2375276Y2575809D01*
X2375276Y2575809D01*
X2553744D01*
X2553744Y2575809D01*
X2574482Y2579934D01*
X2592063Y2591681D01*
X2599281Y2598899D01*
X2609685Y2599408D01*
X2610276Y2599039D01*
X2640099Y2569216D01*
Y2406202D01*
X2634647Y2398042D01*
X2630064Y2375000D01*
X2634647Y2351958D01*
X2647699Y2332424D01*
X2667233Y2319371D01*
X2690276Y2314788D01*
X2713318Y2319371D01*
X2732852Y2332424D01*
X2745904Y2351958D01*
X2750488Y2375000D01*
X2745904Y2398042D01*
X2740452Y2406202D01*
Y2590000D01*
X2736633Y2609202D01*
X2725756Y2625480D01*
X2690452Y2660784D01*
Y2903798D01*
X2695904Y2911958D01*
X2700488Y2935000D01*
X2695904Y2958042D01*
X2682852Y2977576D01*
X2663318Y2990629D01*
X2640276Y2995212D01*
X2617233Y2990629D01*
X2597699Y2977576D01*
X2584647Y2958042D01*
X2580064Y2935000D01*
X2584647Y2911958D01*
X2590099Y2903798D01*
Y2823188D01*
X2582225Y2816841D01*
X2565276Y2820212D01*
X2542233Y2815629D01*
X2522699Y2802576D01*
X2509647Y2783042D01*
X2505064Y2760000D01*
X2509647Y2736958D01*
X2511085Y2734806D01*
Y2684191D01*
X2414466D01*
Y2912553D01*
X2512722Y3010809D01*
X2707829D01*
X2722166Y2996473D01*
Y2865197D01*
X2724370D01*
Y2772087D01*
X2726262D01*
X2731257Y2766000D01*
X2730064Y2760000D01*
X2734647Y2736958D01*
X2747699Y2717424D01*
X2767233Y2704371D01*
X2790276Y2699788D01*
X2813318Y2704371D01*
X2832852Y2717424D01*
X2845904Y2736958D01*
X2850488Y2760000D01*
X2849294Y2766000D01*
X2854289Y2772087D01*
X2856260D01*
Y2907913D01*
X2856024D01*
Y3014803D01*
X2843285D01*
Y3191372D01*
X3088903Y3436990D01*
X3365472D01*
Y3424252D01*
X3515079D01*
Y3426535D01*
X3604392D01*
X3608104Y3419591D01*
X3605011Y3414962D01*
X3600046Y3390000D01*
X3605011Y3365038D01*
X3619151Y3343876D01*
X3640313Y3329735D01*
X3665276Y3324770D01*
X3690238Y3329735D01*
X3711400Y3343876D01*
X3725540Y3365038D01*
X3728566Y3380251D01*
X3736101Y3382537D01*
X3786879Y3331759D01*
Y3274206D01*
X3786879Y3274206D01*
X3791004Y3253468D01*
X3802751Y3235887D01*
X3886957Y3151682D01*
X3886957Y3151681D01*
X3904538Y3139934D01*
X3925276Y3135809D01*
X3925276Y3135809D01*
X3931224D01*
X3940313Y3129735D01*
X3965276Y3124770D01*
X3990238Y3129735D01*
X4011400Y3143876D01*
X4025540Y3165038D01*
X4030505Y3190000D01*
X4025540Y3214962D01*
X4012194Y3234936D01*
X4011400Y3239399D01*
Y3240601D01*
X4012194Y3245064D01*
X4025540Y3265038D01*
X4030505Y3290000D01*
X4025540Y3314962D01*
X4012194Y3334936D01*
X4011400Y3339399D01*
Y3340601D01*
X4012194Y3345064D01*
X4025540Y3365038D01*
X4030505Y3390000D01*
X4025540Y3414962D01*
X4012194Y3434936D01*
X4011400Y3439399D01*
Y3440601D01*
X4012194Y3445064D01*
X4025540Y3465038D01*
X4030505Y3490000D01*
X4025540Y3514962D01*
X4012194Y3534936D01*
X4011400Y3539399D01*
Y3540601D01*
X4012194Y3545064D01*
X4025540Y3565038D01*
X4030505Y3590000D01*
X4025540Y3614962D01*
X4011400Y3636124D01*
X3990238Y3650265D01*
X3965276Y3655230D01*
X3940313Y3650265D01*
X3919151Y3636124D01*
X3905011Y3614962D01*
X3900046Y3590000D01*
X3905011Y3565038D01*
X3918357Y3545064D01*
X3919151Y3540601D01*
Y3539399D01*
X3918357Y3534936D01*
X3905011Y3514962D01*
X3900046Y3490000D01*
X3905011Y3465038D01*
X3918357Y3445064D01*
X3919151Y3440601D01*
Y3439399D01*
X3918357Y3434936D01*
X3905011Y3414962D01*
X3900046Y3390000D01*
X3905011Y3365038D01*
X3918357Y3345064D01*
X3919151Y3340601D01*
Y3339399D01*
X3918357Y3334936D01*
X3905011Y3314962D01*
X3903135Y3305531D01*
X3895261Y3306306D01*
Y3354206D01*
X3891136Y3374943D01*
X3879389Y3392524D01*
X3879389Y3392524D01*
X3743594Y3528319D01*
X3726014Y3540066D01*
X3719227Y3541416D01*
X3715603Y3550165D01*
X3725540Y3565038D01*
X3730505Y3590000D01*
X3725540Y3614962D01*
X3711400Y3636124D01*
X3690238Y3650265D01*
X3665276Y3655230D01*
X3640313Y3650265D01*
X3636411Y3647657D01*
X3629466Y3651369D01*
Y3668386D01*
X3638976D01*
Y3671761D01*
X3730197D01*
X3757079Y3677108D01*
X3779869Y3692336D01*
X3785585Y3700890D01*
X3814998Y3730303D01*
X4199770D01*
X4203097Y3728080D01*
X4232283Y3722275D01*
X4315888D01*
Y2798037D01*
X4193965Y2676114D01*
X4182218Y2658533D01*
X4178092Y2637795D01*
X4178093Y2637795D01*
Y2382734D01*
X3653819D01*
X3633081Y2378609D01*
X3615500Y2366862D01*
X3615500Y2366862D01*
X3526957Y2278319D01*
X3515210Y2260738D01*
X3511085Y2240000D01*
X3511085Y2239999D01*
Y2083425D01*
X3497362D01*
Y2083110D01*
X3365472D01*
Y2074191D01*
X3337722D01*
X3268594Y2143319D01*
X3251014Y2155066D01*
X3230276Y2159191D01*
X3230275Y2159191D01*
X2915470D01*
X2913318Y2160629D01*
X2890276Y2165212D01*
X2867233Y2160629D01*
X2847699Y2147576D01*
X2834647Y2128042D01*
X2830064Y2105000D01*
X2834647Y2081958D01*
X2847699Y2062424D01*
X2867233Y2049371D01*
X2890276Y2044788D01*
X2913318Y2049371D01*
X2915470Y2050809D01*
X3207829D01*
X3276957Y1981681D01*
X3276957Y1981681D01*
X3294538Y1969934D01*
X3315276Y1965809D01*
X3315276Y1965809D01*
X3365472D01*
Y1949252D01*
X3515079D01*
Y1951535D01*
X3600767D01*
X3604752Y1943661D01*
X3600046Y1920000D01*
X3605011Y1895038D01*
X3619151Y1873876D01*
X3640313Y1859736D01*
X3665276Y1854770D01*
X3690238Y1859736D01*
X3711400Y1873876D01*
X3725540Y1895038D01*
X3729178Y1913325D01*
X3737722Y1915917D01*
X3746085Y1907553D01*
Y1835001D01*
X3746085Y1835000D01*
X3750210Y1814262D01*
X3761957Y1796681D01*
X3876957Y1681681D01*
X3876957Y1681681D01*
X3894538Y1669934D01*
X3915276Y1665809D01*
X3915276Y1665809D01*
X3931224D01*
X3940313Y1659736D01*
X3965276Y1654770D01*
X3990238Y1659736D01*
X4011400Y1673876D01*
X4025540Y1695038D01*
X4030505Y1720000D01*
X4025540Y1744962D01*
X4012194Y1764936D01*
X4011400Y1769399D01*
Y1770601D01*
X4012194Y1775064D01*
X4025540Y1795038D01*
X4030505Y1820000D01*
X4025540Y1844962D01*
X4012194Y1864936D01*
X4011400Y1869399D01*
Y1870601D01*
X4012194Y1875064D01*
X4025540Y1895038D01*
X4030505Y1920000D01*
X4025540Y1944962D01*
X4012194Y1964936D01*
X4011400Y1969399D01*
Y1970601D01*
X4012194Y1975064D01*
X4025540Y1995038D01*
X4030505Y2020000D01*
X4025540Y2044962D01*
X4012194Y2064936D01*
X4011400Y2069399D01*
Y2070601D01*
X4012194Y2075064D01*
X4025540Y2095038D01*
X4030505Y2120000D01*
X4025540Y2144962D01*
X4011400Y2166124D01*
X3990238Y2180265D01*
X3965276Y2185230D01*
X3940313Y2180265D01*
X3919151Y2166124D01*
X3905011Y2144962D01*
X3900046Y2120000D01*
X3905011Y2095038D01*
X3918357Y2075064D01*
X3919151Y2070601D01*
Y2069399D01*
X3918357Y2064936D01*
X3905011Y2044962D01*
X3900046Y2020000D01*
X3905011Y1995038D01*
X3918357Y1975064D01*
X3919151Y1970601D01*
Y1969399D01*
X3918357Y1964936D01*
X3905011Y1944962D01*
X3900046Y1920000D01*
X3905011Y1895038D01*
X3918357Y1875064D01*
X3919151Y1870601D01*
Y1869399D01*
X3918357Y1864936D01*
X3905011Y1844962D01*
X3900544Y1822505D01*
X3892806Y1819107D01*
X3854466Y1857447D01*
Y1929999D01*
X3854467Y1930000D01*
X3850341Y1950738D01*
X3838594Y1968319D01*
X3838594Y1968319D01*
X3748594Y2058319D01*
X3731014Y2070066D01*
X3718404Y2072574D01*
X3715391Y2079849D01*
X3725540Y2095038D01*
X3730505Y2120000D01*
X3725540Y2144962D01*
X3711400Y2166124D01*
X3690238Y2180265D01*
X3665276Y2185230D01*
X3640313Y2180265D01*
X3626411Y2170975D01*
X3619466Y2174687D01*
Y2217553D01*
X3676265Y2274352D01*
X4184059D01*
X4204249Y2260862D01*
X4232283Y2255285D01*
X4260318Y2260862D01*
X4284085Y2276742D01*
X4299965Y2300509D01*
X4305542Y2328543D01*
X4299965Y2356578D01*
X4286474Y2376768D01*
Y2615349D01*
X4408397Y2737272D01*
X4420145Y2754852D01*
X4424270Y2775590D01*
X4424270Y2775591D01*
Y3722275D01*
X4558543D01*
X4587730Y3728080D01*
X4612473Y3744613D01*
X4629339Y3761479D01*
X4636614Y3758466D01*
Y3691260D01*
X4794095D01*
Y3813731D01*
X5053334D01*
X5057046Y3806787D01*
X5052994Y3800723D01*
X5046882Y3770000D01*
X5052994Y3739277D01*
X5070397Y3713231D01*
X5096442Y3695828D01*
X5127165Y3689717D01*
X5157888Y3695828D01*
X5183934Y3713231D01*
X5201337Y3739277D01*
X5207448Y3770000D01*
X5201337Y3800723D01*
X5197285Y3806787D01*
X5200997Y3813731D01*
X5273409D01*
X5368731Y3718409D01*
Y3575001D01*
Y2070000D01*
X5374537Y2040813D01*
X5391070Y2016070D01*
X5436070Y1971070D01*
X5460813Y1954537D01*
X5490000Y1948731D01*
X5516811D01*
X5521806Y1942645D01*
X5518297Y1925000D01*
X5523797Y1897349D01*
X5539460Y1873908D01*
X5562901Y1858246D01*
X5590551Y1852746D01*
X5618202Y1858246D01*
X5641643Y1873908D01*
X5657306Y1897349D01*
X5662806Y1925000D01*
X5657306Y1952651D01*
X5644740Y1971457D01*
X5661014Y1995813D01*
X5666820Y2025000D01*
X5661101Y2053749D01*
X5661417Y2054134D01*
X5661417D01*
Y2195866D01*
X5521269D01*
Y2846960D01*
X5529143Y2849349D01*
X5539460Y2833908D01*
X5562901Y2818246D01*
X5590551Y2812746D01*
X5618202Y2818246D01*
X5641643Y2833908D01*
X5657306Y2857349D01*
X5662806Y2885000D01*
X5658577Y2906260D01*
X5661417Y2914134D01*
X5661417D01*
Y3055866D01*
X5521269D01*
Y3356960D01*
X5529143Y3359349D01*
X5539460Y3343908D01*
X5562901Y3328246D01*
X5590551Y3322746D01*
X5618202Y3328246D01*
X5641643Y3343908D01*
X5657306Y3367349D01*
X5662806Y3395000D01*
X5657306Y3422651D01*
X5644740Y3441457D01*
X5661014Y3465813D01*
X5666820Y3495000D01*
X5661101Y3523749D01*
X5661417Y3524134D01*
X5661417D01*
Y3665866D01*
X5521269D01*
Y3750000D01*
X5515463Y3779187D01*
X5498930Y3803930D01*
X5358930Y3943930D01*
X5334187Y3960463D01*
X5305000Y3966269D01*
X4650000D01*
X4620813Y3960463D01*
X4596070Y3943930D01*
X4526952Y3874812D01*
X4232283D01*
X4203097Y3869006D01*
X4199770Y3866784D01*
X3786732D01*
X3760618Y3861589D01*
X3738479Y3846796D01*
X3703938Y3812255D01*
X3638976D01*
Y3817992D01*
X3637795D01*
Y3910433D01*
X3631570D01*
Y4014870D01*
X3639475Y4026700D01*
X3645128Y4055118D01*
X3639475Y4083537D01*
X3623377Y4107629D01*
X3599285Y4123727D01*
X3570866Y4129380D01*
D02*
G37*
G36*
X5940000Y3468258D02*
X5911965Y3462682D01*
X5888199Y3446801D01*
X5872318Y3423035D01*
X5866742Y3395000D01*
X5872318Y3366965D01*
X5888199Y3343199D01*
X5911965Y3327318D01*
X5940000Y3321742D01*
X5968035Y3327318D01*
X5991801Y3343199D01*
X6007682Y3366965D01*
X6013258Y3395000D01*
X6007682Y3423035D01*
X5991801Y3446801D01*
X5968035Y3462682D01*
X5940000Y3468258D01*
D02*
G37*
G36*
X3665276Y3255230D02*
X3640313Y3250265D01*
X3619151Y3236124D01*
X3605011Y3214962D01*
X3600046Y3190000D01*
X3605011Y3165038D01*
X3619151Y3143876D01*
X3640313Y3129735D01*
X3665276Y3124770D01*
X3690238Y3129735D01*
X3711400Y3143876D01*
X3725540Y3165038D01*
X3730505Y3190000D01*
X3725540Y3214962D01*
X3711400Y3236124D01*
X3690238Y3250265D01*
X3665276Y3255230D01*
D02*
G37*
G36*
X4794095Y3258740D02*
X4636614D01*
Y3101260D01*
X4794095D01*
Y3258740D01*
D02*
G37*
G36*
X5127165Y3260283D02*
X5096442Y3254172D01*
X5070397Y3236769D01*
X5052994Y3210723D01*
X5046882Y3180000D01*
X5052994Y3149277D01*
X5070397Y3123231D01*
X5096442Y3105828D01*
X5127165Y3099717D01*
X5157888Y3105828D01*
X5183934Y3123231D01*
X5201337Y3149277D01*
X5207448Y3180000D01*
X5201337Y3210723D01*
X5183934Y3236769D01*
X5157888Y3254172D01*
X5127165Y3260283D01*
D02*
G37*
G36*
X4029252Y3053976D02*
X3901299D01*
Y2926024D01*
X4029252D01*
Y3053976D01*
D02*
G37*
G36*
X3665276Y3055230D02*
X3640313Y3050265D01*
X3619151Y3036124D01*
X3605011Y3014962D01*
X3600046Y2990000D01*
X3605011Y2965038D01*
X3619151Y2943876D01*
X3640313Y2929735D01*
X3665276Y2924770D01*
X3690238Y2929735D01*
X3711400Y2943876D01*
X3725540Y2965038D01*
X3730505Y2990000D01*
X3725540Y3014962D01*
X3711400Y3036124D01*
X3690238Y3050265D01*
X3665276Y3055230D01*
D02*
G37*
G36*
X5271260Y3053240D02*
X5245145Y3048046D01*
X5223007Y3033253D01*
X5208214Y3011114D01*
X5203020Y2985000D01*
X5208214Y2958886D01*
X5223007Y2936747D01*
X5245145Y2921954D01*
X5271260Y2916760D01*
X5297374Y2921954D01*
X5319513Y2936747D01*
X5334306Y2958886D01*
X5339500Y2985000D01*
X5334306Y3011114D01*
X5319513Y3033253D01*
X5297374Y3048046D01*
X5271260Y3053240D01*
D02*
G37*
G36*
X4571260D02*
X4545145Y3048046D01*
X4523007Y3033253D01*
X4508214Y3011114D01*
X4503020Y2985000D01*
X4508214Y2958886D01*
X4523007Y2936747D01*
X4545145Y2921954D01*
X4571260Y2916760D01*
X4597374Y2921954D01*
X4619513Y2936747D01*
X4634306Y2958886D01*
X4639500Y2985000D01*
X4634306Y3011114D01*
X4619513Y3033253D01*
X4597374Y3048046D01*
X4571260Y3053240D01*
D02*
G37*
G36*
X6535433Y2978258D02*
X6507399Y2972682D01*
X6483632Y2956801D01*
X6467752Y2933035D01*
X6462175Y2905000D01*
X6467752Y2876965D01*
X6483632Y2853199D01*
X6507399Y2837318D01*
X6535433Y2831742D01*
X6563468Y2837318D01*
X6587234Y2853199D01*
X6603115Y2876965D01*
X6608691Y2905000D01*
X6603115Y2933035D01*
X6587234Y2956801D01*
X6563468Y2972682D01*
X6535433Y2978258D01*
D02*
G37*
G36*
X6315000D02*
X6286965Y2972682D01*
X6263199Y2956801D01*
X6247318Y2933035D01*
X6241742Y2905000D01*
X6247318Y2876965D01*
X6263199Y2853199D01*
X6286965Y2837318D01*
X6315000Y2831742D01*
X6343035Y2837318D01*
X6366801Y2853199D01*
X6382682Y2876965D01*
X6388258Y2905000D01*
X6382682Y2933035D01*
X6366801Y2956801D01*
X6343035Y2972682D01*
X6315000Y2978258D01*
D02*
G37*
G36*
X5940000Y2668258D02*
X5911965Y2662682D01*
X5888199Y2646801D01*
X5872318Y2623035D01*
X5866742Y2595000D01*
X5872318Y2566965D01*
X5888199Y2543199D01*
X5911965Y2527318D01*
X5940000Y2521742D01*
X5968035Y2527318D01*
X5991801Y2543199D01*
X6007682Y2566965D01*
X6013258Y2595000D01*
X6007682Y2623035D01*
X5991801Y2646801D01*
X5968035Y2662682D01*
X5940000Y2668258D01*
D02*
G37*
G36*
X4794095Y2388740D02*
X4636614D01*
Y2231260D01*
X4794095D01*
Y2388740D01*
D02*
G37*
G36*
X5127165Y2390283D02*
X5096442Y2384172D01*
X5070397Y2366769D01*
X5052994Y2340723D01*
X5046882Y2310000D01*
X5052994Y2279277D01*
X5070397Y2253231D01*
X5096442Y2235828D01*
X5127165Y2229717D01*
X5157888Y2235828D01*
X5183934Y2253231D01*
X5201337Y2279277D01*
X5207448Y2310000D01*
X5201337Y2340723D01*
X5183934Y2366769D01*
X5157888Y2384172D01*
X5127165Y2390283D01*
D02*
G37*
G36*
X2609173Y2343898D02*
X2471378D01*
Y2206102D01*
X2609173D01*
Y2343898D01*
D02*
G37*
G36*
X5950000Y2293258D02*
X5921965Y2287682D01*
X5898199Y2271801D01*
X5882318Y2248035D01*
X5876742Y2220000D01*
X5882318Y2191965D01*
X5898199Y2168199D01*
X5921965Y2152318D01*
X5950000Y2146742D01*
X5978035Y2152318D01*
X6001801Y2168199D01*
X6017682Y2191965D01*
X6023258Y2220000D01*
X6017682Y2248035D01*
X6001801Y2271801D01*
X5978035Y2287682D01*
X5950000Y2293258D01*
D02*
G37*
G36*
X5271260Y2188240D02*
X5245145Y2183046D01*
X5223007Y2168253D01*
X5208214Y2146114D01*
X5203020Y2120000D01*
X5208214Y2093886D01*
X5223007Y2071747D01*
X5245145Y2056954D01*
X5271260Y2051760D01*
X5297374Y2056954D01*
X5319513Y2071747D01*
X5334306Y2093886D01*
X5339500Y2120000D01*
X5334306Y2146114D01*
X5319513Y2168253D01*
X5297374Y2183046D01*
X5271260Y2188240D01*
D02*
G37*
G36*
X4571260D02*
X4545145Y2183046D01*
X4523007Y2168253D01*
X4508214Y2146114D01*
X4503020Y2120000D01*
X4508214Y2093886D01*
X4523007Y2071747D01*
X4545145Y2056954D01*
X4571260Y2051760D01*
X4597374Y2056954D01*
X4619513Y2071747D01*
X4634306Y2093886D01*
X4639500Y2120000D01*
X4634306Y2146114D01*
X4619513Y2168253D01*
X4597374Y2183046D01*
X4571260Y2188240D01*
D02*
G37*
G36*
X4232283Y2094715D02*
X4204249Y2089138D01*
X4180482Y2073258D01*
X4164602Y2049491D01*
X4159025Y2021457D01*
X4164602Y1993422D01*
X4180482Y1969656D01*
X4204249Y1953775D01*
X4232283Y1948199D01*
X4260318Y1953775D01*
X4284085Y1969656D01*
X4299965Y1993422D01*
X4305542Y2021457D01*
X4299965Y2049491D01*
X4284085Y2073258D01*
X4260318Y2089138D01*
X4232283Y2094715D01*
D02*
G37*
G36*
X6535433Y1978258D02*
X6507399Y1972682D01*
X6483632Y1956801D01*
X6467752Y1933035D01*
X6462175Y1905000D01*
X6467752Y1876965D01*
X6483632Y1853199D01*
X6507399Y1837318D01*
X6535433Y1831742D01*
X6563468Y1837318D01*
X6587234Y1853199D01*
X6603115Y1876965D01*
X6608691Y1905000D01*
X6603115Y1933035D01*
X6587234Y1956801D01*
X6563468Y1972682D01*
X6535433Y1978258D01*
D02*
G37*
G36*
X6315000D02*
X6286965Y1972682D01*
X6263199Y1956801D01*
X6247318Y1933035D01*
X6241742Y1905000D01*
X6247318Y1876965D01*
X6263199Y1853199D01*
X6286965Y1837318D01*
X6315000Y1831742D01*
X6343035Y1837318D01*
X6366801Y1853199D01*
X6382682Y1876965D01*
X6388258Y1905000D01*
X6382682Y1933035D01*
X6366801Y1956801D01*
X6343035Y1972682D01*
X6315000Y1978258D01*
D02*
G37*
G36*
X3665276Y1785230D02*
X3640313Y1780264D01*
X3619151Y1766124D01*
X3605011Y1744962D01*
X3600046Y1720000D01*
X3605011Y1695038D01*
X3619151Y1673876D01*
X3640313Y1659736D01*
X3665276Y1654770D01*
X3690238Y1659736D01*
X3711400Y1673876D01*
X3725540Y1695038D01*
X3730505Y1720000D01*
X3725540Y1744962D01*
X3711400Y1766124D01*
X3690238Y1780264D01*
X3665276Y1785230D01*
D02*
G37*
G36*
X4794095Y1788740D02*
X4636614D01*
Y1631260D01*
X4794095D01*
Y1788740D01*
D02*
G37*
G36*
X5127165Y1790283D02*
X5096442Y1784172D01*
X5070397Y1766768D01*
X5052994Y1740723D01*
X5046882Y1710000D01*
X5052994Y1679277D01*
X5070397Y1653232D01*
X5096442Y1635828D01*
X5127165Y1629717D01*
X5157888Y1635828D01*
X5183934Y1653232D01*
X5201337Y1679277D01*
X5207448Y1710000D01*
X5201337Y1740723D01*
X5183934Y1766768D01*
X5157888Y1784172D01*
X5127165Y1790283D01*
D02*
G37*
G36*
X4029252Y1583976D02*
X3901299D01*
Y1456024D01*
X4029252D01*
Y1583976D01*
D02*
G37*
G36*
X3665276Y1585230D02*
X3640313Y1580264D01*
X3619151Y1566124D01*
X3605011Y1544962D01*
X3600046Y1520000D01*
X3605011Y1495038D01*
X3619151Y1473876D01*
X3640313Y1459736D01*
X3665276Y1454770D01*
X3690238Y1459736D01*
X3711400Y1473876D01*
X3725540Y1495038D01*
X3730505Y1520000D01*
X3725540Y1544962D01*
X3711400Y1566124D01*
X3690238Y1580264D01*
X3665276Y1585230D01*
D02*
G37*
G36*
X5271260Y1588240D02*
X5245145Y1583046D01*
X5223007Y1568253D01*
X5208214Y1546114D01*
X5203020Y1520000D01*
X5208214Y1493886D01*
X5223007Y1471747D01*
X5245145Y1456954D01*
X5271260Y1451760D01*
X5297374Y1456954D01*
X5319513Y1471747D01*
X5334306Y1493886D01*
X5339500Y1520000D01*
X5334306Y1546114D01*
X5319513Y1568253D01*
X5297374Y1583046D01*
X5271260Y1588240D01*
D02*
G37*
G36*
X4571260D02*
X4545145Y1583046D01*
X4523007Y1568253D01*
X4508214Y1546114D01*
X4503020Y1520000D01*
X4508214Y1493886D01*
X4523007Y1471747D01*
X4545145Y1456954D01*
X4571260Y1451760D01*
X4597374Y1456954D01*
X4619513Y1471747D01*
X4634306Y1493886D01*
X4639500Y1520000D01*
X4634306Y1546114D01*
X4619513Y1568253D01*
X4597374Y1583046D01*
X4571260Y1588240D01*
D02*
G37*
G36*
X5661417Y1590866D02*
X5519685D01*
Y1449134D01*
X5519685D01*
X5522526Y1441260D01*
X5518297Y1420000D01*
X5523797Y1392349D01*
X5539460Y1368908D01*
X5562901Y1353246D01*
X5590551Y1347746D01*
X5618202Y1353246D01*
X5641643Y1368908D01*
X5657306Y1392349D01*
X5662806Y1420000D01*
X5658577Y1441260D01*
X5661417Y1449134D01*
X5661417D01*
Y1590866D01*
D02*
G37*
G36*
X5950000Y1493258D02*
X5921965Y1487682D01*
X5898199Y1471801D01*
X5882318Y1448035D01*
X5876742Y1420000D01*
X5882318Y1391965D01*
X5898199Y1368199D01*
X5921965Y1352318D01*
X5950000Y1346742D01*
X5978035Y1352318D01*
X6001801Y1368199D01*
X6017682Y1391965D01*
X6023258Y1420000D01*
X6017682Y1448035D01*
X6001801Y1471801D01*
X5978035Y1487682D01*
X5950000Y1493258D01*
D02*
G37*
G36*
X6496063Y1335829D02*
X6466206Y1331899D01*
X6438385Y1320374D01*
X6414493Y1302042D01*
X6396161Y1278151D01*
X6384637Y1250329D01*
X6380706Y1220472D01*
X6384637Y1190616D01*
X6396161Y1162794D01*
X6414493Y1138903D01*
X6438385Y1120570D01*
X6466206Y1109046D01*
X6496063Y1105115D01*
X6525920Y1109046D01*
X6553742Y1120570D01*
X6577633Y1138903D01*
X6595965Y1162794D01*
X6607489Y1190616D01*
X6611420Y1220472D01*
X6607489Y1250329D01*
X6595965Y1278151D01*
X6577633Y1302042D01*
X6553742Y1320374D01*
X6525920Y1331899D01*
X6496063Y1335829D01*
D02*
G37*
G36*
X2401575D02*
X2371718Y1331899D01*
X2343896Y1320374D01*
X2320005Y1302042D01*
X2301673Y1278151D01*
X2290148Y1250329D01*
X2286218Y1220472D01*
X2290148Y1190616D01*
X2301673Y1162794D01*
X2320005Y1138903D01*
X2343896Y1120570D01*
X2371718Y1109046D01*
X2401575Y1105115D01*
X2431431Y1109046D01*
X2459253Y1120570D01*
X2483144Y1138903D01*
X2501477Y1162794D01*
X2513001Y1190616D01*
X2516932Y1220472D01*
X2513001Y1250329D01*
X2501477Y1278151D01*
X2483144Y1302042D01*
X2459253Y1320374D01*
X2431431Y1331899D01*
X2401575Y1335829D01*
D02*
G37*
%LPD*%
D15*
X3570276Y3427520D02*
D03*
Y3492480D02*
D03*
X3565276Y2017480D02*
D03*
Y1952520D02*
D03*
D18*
X3469685Y3674409D02*
Y3743189D01*
X3425197Y3629921D02*
X3469685Y3674409D01*
X2728347Y3629921D02*
X3425197D01*
X2270276Y3171850D02*
X2728347Y3629921D01*
X2270276Y2290000D02*
Y3171850D01*
Y2290000D02*
X2505276Y2055000D01*
X2490276Y3065000D02*
X2730276D01*
X2505276Y2055000D02*
X2700276D01*
X3066457Y3491181D02*
X3440276D01*
X2730276Y3065000D02*
X2789095Y3006181D01*
Y3213819D01*
X3066457Y3491181D01*
X2789095Y2940000D02*
Y3006181D01*
X2360276Y2935000D02*
X2490276Y3065000D01*
X3575276Y3497480D02*
Y3742008D01*
X3393701Y3743189D02*
X3405232Y3743189D01*
X3385827Y3762594D02*
Y3807087D01*
Y3762594D02*
X3405232Y3743189D01*
X3385827Y3807087D02*
X3421260Y3842520D01*
X3405232Y3743189D02*
X3469685D01*
X3421260Y3842520D02*
X3506890D01*
X3374016Y3889764D02*
X3421260Y3842520D01*
X3374016Y3889764D02*
Y4055118D01*
X3570276Y3492480D02*
X3575276Y3497480D01*
X3571516Y3491240D02*
X3664035D01*
X3565276Y1755000D02*
Y1952520D01*
X4232283Y2637795D02*
X4370079Y2775590D01*
Y3750079D02*
X4418543Y3798543D01*
X4370079Y2775590D02*
Y3750079D01*
X4232283Y2328543D02*
Y2637795D01*
X3653819Y2328543D02*
X4232283D01*
X4100315Y1620000D02*
X4246142D01*
X4681142Y1185000D02*
X5270000D01*
X4246142Y1620000D02*
X4681142Y1185000D01*
X4425000Y1944685D02*
Y2315000D01*
X4100315Y1620000D02*
X4425000Y1944685D01*
X3965276Y1620000D02*
X4100315D01*
X4425000Y2315000D02*
X4730000Y2620000D01*
X5270000D01*
X2923744Y2840000D02*
X2935276Y2851531D01*
Y2928469D02*
X2951807Y2945000D01*
X2855276Y2840000D02*
X2923744D01*
X2935276Y2851531D02*
Y2928469D01*
X2891457Y2940000D02*
X2896457Y2945000D01*
X2951807D01*
X3100276D02*
X3115276Y2960000D01*
X3285276D01*
X2951807Y2945000D02*
X3100276D01*
X3440276Y3185000D02*
Y3388819D01*
X3285276Y2960000D02*
Y3030000D01*
X3440276Y3185000D01*
X3285276Y2765000D02*
Y2960000D01*
X3260276Y2740000D02*
X3285276Y2765000D01*
X2915276Y2740000D02*
X3260276D01*
X2746457Y1913819D02*
X3440276D01*
X2700276Y1960000D02*
X2746457Y1913819D01*
X2700276Y1960000D02*
Y2055000D01*
X2840276Y2375000D02*
X3190276D01*
X3290276Y2275000D01*
Y2155000D02*
Y2275000D01*
X2700276Y2055000D02*
X2775276D01*
X2840276Y2120000D02*
Y2375000D01*
X2775276Y2055000D02*
X2840276Y2120000D01*
X3436457Y2020000D02*
X3440276Y2016181D01*
X3315276Y2020000D02*
X3436457D01*
X2890276Y2105000D02*
X3230276D01*
X3315276Y2020000D01*
X3440276Y1913819D02*
X3444886Y1918429D01*
X3493705D01*
X3518736Y1943460D01*
X3556216D01*
X3565276Y1952520D01*
X3629182Y1818907D02*
X3664182D01*
X3565276Y1755000D02*
X3629182Y1818907D01*
X3565276Y1675001D02*
Y1755000D01*
X3664182Y1818907D02*
X3665276Y1820000D01*
X3565276Y1675001D02*
X3620276Y1620000D01*
X3665276Y2020000D02*
X3710276D01*
X3800276Y1835000D02*
Y1930000D01*
X3710276Y2020000D02*
X3800276Y1930000D01*
X3915276Y1720000D02*
X3965276D01*
X3800276Y1835000D02*
X3915276Y1720000D01*
X3565276Y2017480D02*
X3566535Y2018740D01*
X3664016D01*
X3665276Y2020000D01*
X3564626Y2016831D02*
X3565276Y2017480D01*
X3440925Y2016831D02*
X3564626D01*
X3440276Y2016181D02*
X3440925Y2016831D01*
X3565276Y2017480D02*
Y2240000D01*
X3653819Y2328543D01*
X3440276Y3388819D02*
X3444886Y3393429D01*
X3493705D01*
X3523736Y3423461D01*
X3566216D01*
X3570276Y3427520D01*
Y3140000D02*
X3620276Y3090000D01*
X3570276Y3140000D02*
Y3245000D01*
Y3427520D01*
Y3245000D02*
X3575276Y3240000D01*
X3625276Y3290000D01*
X3665276Y3490000D02*
X3705276D01*
X3841070Y3274206D02*
Y3354206D01*
X3705276Y3490000D02*
X3841070Y3354206D01*
X3925276Y3190000D02*
X3965276D01*
X3841070Y3274206D02*
X3925276Y3190000D01*
X3664035Y3491240D02*
X3665276Y3490000D01*
X3570276Y3492480D02*
X3571516Y3491240D01*
X3569626Y3491831D02*
X3570276Y3492480D01*
X3440925Y3491831D02*
X3569626D01*
X3440276Y3491181D02*
X3440925Y3491831D01*
X2789095Y2940000D02*
X2789705Y2939390D01*
X3665276Y3090000D02*
X3965276D01*
X3620276D02*
X3665276D01*
X3625276Y3290000D02*
X3665276D01*
X3620276Y1620000D02*
X3665276D01*
X3965276D01*
X2360276Y2645000D02*
Y2935000D01*
X2565276Y2641531D02*
Y2760000D01*
X2553744Y2630000D02*
X2565276Y2641531D01*
X2375276Y2630000D02*
X2553744D01*
X2360276Y2645000D02*
X2375276Y2630000D01*
X2789705Y2840610D02*
X2790315Y2840000D01*
X2789705Y2840610D02*
Y2939390D01*
X2790295Y2839980D02*
X2790315Y2840000D01*
X2790295Y2760020D02*
Y2839980D01*
X2790276Y2760000D02*
X2790295Y2760020D01*
X2595276Y3005000D02*
X2660276D01*
X2720276Y2740000D02*
Y2945000D01*
X2660276Y3005000D02*
X2720276Y2945000D01*
X2495276Y2760000D02*
Y2905000D01*
X2595276Y3005000D01*
X2750276Y2680000D02*
X2895276D01*
X2720276Y2740000D02*
X2720389Y2739886D01*
Y2709887D02*
Y2739886D01*
Y2709887D02*
X2750276Y2680000D01*
X2915276Y2560000D02*
Y2700000D01*
X2840276Y2485000D02*
X2915276Y2560000D01*
X2895276Y2680000D02*
X2915276Y2700000D01*
X2840276Y2375000D02*
Y2485000D01*
X2915276Y2700000D02*
Y2740000D01*
D19*
X3571949Y3743287D02*
X3572047Y3743189D01*
X3570866Y3742008D02*
X3575276D01*
X3571850Y3842520D02*
X3571949Y3842421D01*
X3570866Y4055118D02*
X3571358Y4054626D01*
Y3843012D02*
X3571850Y3842520D01*
X3570866Y3742008D02*
X3572047Y3743189D01*
X2640276Y2640000D02*
Y2935000D01*
Y2640000D02*
X2690276Y2590000D01*
Y2375000D02*
Y2590000D01*
D20*
X6496063Y4055118D02*
D03*
Y1220472D02*
D03*
X2401575Y4055118D02*
D03*
Y1220472D02*
D03*
D21*
X2539370Y1874016D02*
D03*
D22*
X3374016Y4055118D02*
D03*
D23*
X3570866D02*
D03*
D24*
X6535433Y1905000D02*
D03*
Y2905000D02*
D03*
X6315000D02*
D03*
Y1905000D02*
D03*
X4232283Y3491457D02*
D03*
Y3798543D02*
D03*
X5940000Y2595000D02*
D03*
Y3395000D02*
D03*
X5950000Y2220000D02*
D03*
Y1420000D02*
D03*
X4232283Y2328543D02*
D03*
Y2021457D02*
D03*
D25*
X5127165Y3180000D02*
D03*
Y2310000D02*
D03*
Y1710000D02*
D03*
Y3770000D02*
D03*
D26*
X4715354Y3180000D02*
D03*
Y2310000D02*
D03*
Y1710000D02*
D03*
Y3770000D02*
D03*
D27*
X2540276Y2275000D02*
D03*
D28*
X5590551Y3595000D02*
D03*
Y2125000D02*
D03*
Y2985000D02*
D03*
Y1520000D02*
D03*
D29*
Y3495000D02*
D03*
Y3395000D02*
D03*
Y1925000D02*
D03*
Y2025000D02*
D03*
Y2785000D02*
D03*
Y2885000D02*
D03*
Y1320000D02*
D03*
Y1420000D02*
D03*
D30*
X5271260Y2985000D02*
D03*
X4571260D02*
D03*
X5271260Y2120000D02*
D03*
X4571260D02*
D03*
X5271260Y1520000D02*
D03*
X4571260D02*
D03*
Y3595000D02*
D03*
X5271260D02*
D03*
D31*
X3665276Y2990000D02*
D03*
Y3090000D02*
D03*
Y3190000D02*
D03*
Y3290000D02*
D03*
Y3390000D02*
D03*
Y3490000D02*
D03*
Y3590000D02*
D03*
X3965276D02*
D03*
Y3490000D02*
D03*
Y3390000D02*
D03*
Y3290000D02*
D03*
Y3190000D02*
D03*
Y3090000D02*
D03*
Y1620000D02*
D03*
Y1720000D02*
D03*
Y1820000D02*
D03*
Y1920000D02*
D03*
Y2020000D02*
D03*
Y2120000D02*
D03*
X3665276D02*
D03*
Y2020000D02*
D03*
Y1920000D02*
D03*
Y1820000D02*
D03*
Y1720000D02*
D03*
Y1620000D02*
D03*
Y1520000D02*
D03*
D32*
X3965276Y2990000D02*
D03*
Y1520000D02*
D03*
D33*
X6003937Y3740158D02*
D03*
X5905512Y3543307D02*
D03*
X6003937Y2952756D02*
D03*
X5905512Y2755906D02*
D03*
Y2362205D02*
D03*
Y1968504D02*
D03*
Y1181102D02*
D03*
X5807087Y3740158D02*
D03*
X5708662Y3543307D02*
D03*
Y2755906D02*
D03*
X5807087Y2559055D02*
D03*
X5708662Y2362205D02*
D03*
X5807087Y2165354D02*
D03*
X5708662Y1181102D02*
D03*
X5610236Y3740158D02*
D03*
Y2559055D02*
D03*
X5511811Y1181102D02*
D03*
X5314961Y2362205D02*
D03*
X5413386Y1377953D02*
D03*
X5118110Y2755906D02*
D03*
X5216536Y2559055D02*
D03*
X5118110Y1968504D02*
D03*
Y1181102D02*
D03*
X4921260Y2755906D02*
D03*
X5019685Y2559055D02*
D03*
X4921260Y1968504D02*
D03*
X5019685Y1377953D02*
D03*
X4921260Y1181102D02*
D03*
X4724410Y2755906D02*
D03*
X4822835Y2559055D02*
D03*
X4724410Y1968504D02*
D03*
X4822835Y1377953D02*
D03*
X4724410Y1181102D02*
D03*
X4527559Y2755906D02*
D03*
X4625984Y2559055D02*
D03*
X4527559Y2362205D02*
D03*
X4625984Y1377953D02*
D03*
X4527559Y1181102D02*
D03*
X4429134Y2559055D02*
D03*
X4330709Y2362205D02*
D03*
X4429134Y1377953D02*
D03*
X4330709Y1181102D02*
D03*
X4133858Y2755906D02*
D03*
X4232284Y1377953D02*
D03*
X4133858Y1181102D02*
D03*
X5270000Y1185000D02*
D03*
Y2620000D02*
D03*
X3285276Y2960000D02*
D03*
X2700276Y2055000D02*
D03*
X2890276Y2105000D02*
D03*
X3290276Y2155000D02*
D03*
X2640276Y2935000D02*
D03*
X2690276Y2375000D02*
D03*
X2720276Y2740000D02*
D03*
X2915276D02*
D03*
X2840276Y2375000D02*
D03*
X2565276Y2760000D02*
D03*
X2790276D02*
D03*
X2495276D02*
D03*
D34*
X3440276Y3491181D02*
D03*
Y3388819D02*
D03*
Y1913819D02*
D03*
Y2016181D02*
D03*
D35*
X3469685Y3743189D02*
D03*
X3572047D02*
D03*
X2891457Y2940000D02*
D03*
X2789095D02*
D03*
D36*
X3506890Y3842520D02*
D03*
X3571850D02*
D03*
X2790315Y2840000D02*
D03*
X2855276D02*
D03*
D37*
X3575276Y3742008D02*
X3730197D01*
D38*
X3786732Y3798543D02*
X4232283D01*
X3730197Y3742008D02*
X3786732Y3798543D01*
D39*
X3571949Y3743287D02*
Y3842421D01*
X3571358Y3843012D02*
Y4054626D01*
D40*
X4232283Y3798543D02*
X4418543D01*
X4558543D01*
X4650000Y3890000D01*
X5445000Y2070000D02*
X5490000Y2025000D01*
X5590551D01*
X5445000Y2070000D02*
Y3575001D01*
Y3750000D01*
X5525001Y3495000D02*
X5590551D01*
X5445000Y3575001D02*
X5525001Y3495000D01*
X5305000Y3890000D02*
X5445000Y3750000D01*
X4650000Y3890000D02*
X5305000D01*
%TF.MD5,613d194431c6e8d73930e4c1608137d1*%
M02*
