M48
;Layer_Color=9474304
;FILE_FORMAT=2:5
INCH,LZ
;TYPE=PLATED
T1F00S00C0.01575
T2F00S00C0.03268
T3F00S00C0.03346
T4F00S00C0.03543
T5F00S00C0.03937
T6F00S00C0.04528
T7F00S00C0.04724
T8F00S00C0.12500
%
T01
X0413386Y011811
X0433071
X0452756
X0462598Y0137795
X0442913
X0423228
X0482283
X0501968
X0511811Y011811
X0527Y01185
X0551181Y011811
X0570866
X0590551
X0541339Y0137795
X0492126Y011811
X0472441
Y019685
X0492126
X0511811
X0531496Y0236221
X0521654Y0255906
X0527Y0262
X0511811Y0275591
X0492126
X0472441
X0482283Y0255906
X0501968
X0561024
X0580709
X0590551Y0275591
X0570866
Y0236221
X0590551
X0580709Y0216535
X0590551Y019685
X0600394Y0295276
X0452756Y0275591
X0462598Y0255906
X0442913
X0452756Y0236221
X0433071
X0413386Y0275591
X0328528Y0296
X0329028Y02155
X0289028Y02105
X0270028Y02055
X0269028Y02375
X0284028
X0279028Y0276
X0272028Y0274
X0256528Y0276
X0249528
X0264028Y02935
X0291528Y0274
X0570866Y0354331
X0590551
X0600394Y0374016
X0580709
X0561024
T02
X0366528Y0152
X0396528
Y0162
Y0172
Y0182
Y0192
Y0202
Y0212
X0366528
Y0202
Y0192
Y0182
Y0172
Y0162
Y0299
Y0309
X0396528
Y0299
Y0319
Y0329
Y0339
Y0349
Y0359
X0366528
Y0349
Y0339
Y0329
Y0319
T03
X0457126Y0152
X0527126
Y0212
Y02985
X0457126
Y0212
Y03595
X0527126
T04
X0253937Y0187402
X0254028Y02275
T05
X0559055Y0132
Y0142
Y0152
X0595Y0142
X06315Y01905
X0653543
Y02905
X06315
X0594Y02595
X0595Y0222
X0559055Y02125
Y02025
Y01925
Y02785
Y02885
Y02985
X0357087Y0405512
X0337402
X0559055Y03595
Y03495
Y03395
X0594
T06
X0423228Y0202146
Y0232854
Y0349146
Y0379854
T07
X0471535Y0171
X0512716
Y0231
X0471535
Y0318
X0512716
Y0377
X0471535
T08
X0240158Y0122047
X0649606
X0240158Y0405512
X0649606
M30
