%TF.GenerationSoftware,Altium Limited,Altium Designer,20.0.13 (296)*%
G04 Layer_Color=65535*
%FSLAX26Y26*%
%MOIN*%
%TF.FileFunction,Legend,Top*%
%TF.Part,Single*%
G01*
G75*
%TA.AperFunction,NonConductor*%
%ADD41C,0.009842*%
%ADD42C,0.007874*%
%ADD43C,0.011811*%
%ADD62C,0.023622*%
%ADD63C,0.005000*%
%ADD64R,0.031496X0.110236*%
G36*
X2861322Y4043334D02*
X2862274D01*
Y4042382D01*
X2863226D01*
Y4043334D01*
X2864179D01*
Y4042382D01*
X2865131D01*
Y4043334D01*
X2866083D01*
Y4042382D01*
X2867035D01*
Y4043334D01*
X2867988D01*
Y4042382D01*
X2868940D01*
Y4043334D01*
X2869892D01*
Y4042382D01*
X2876559D01*
Y4041429D01*
X2877511D01*
Y4042382D01*
X2878463D01*
Y4041429D01*
X2879416D01*
Y4040477D01*
X2880368D01*
Y4041429D01*
X2881320D01*
Y4040477D01*
X2882273D01*
Y4041429D01*
X2883225D01*
Y4040477D01*
X2889892D01*
Y4039525D01*
X2890844D01*
Y4040477D01*
X2891796D01*
Y4039525D01*
X2892749D01*
Y4038572D01*
X2893701D01*
Y4039525D01*
X2894653D01*
Y4038572D01*
X2899415D01*
Y4037620D01*
X2900367D01*
Y4036668D01*
X2901320D01*
Y4037620D01*
X2900367D01*
Y4038572D01*
X2901320D01*
Y4037620D01*
X2902272D01*
Y4036668D01*
X2903224D01*
Y4037620D01*
X2904177D01*
Y4036668D01*
X2908938D01*
Y4035715D01*
X2909890D01*
Y4034763D01*
X2910843D01*
Y4035715D01*
X2909890D01*
Y4036668D01*
X2910843D01*
Y4035715D01*
X2911795D01*
Y4034763D01*
X2914652D01*
Y4033811D01*
X2915604D01*
Y4034763D01*
X2916557D01*
Y4033811D01*
X2917509D01*
Y4032858D01*
X2922271D01*
Y4031906D01*
X2923223D01*
Y4030954D01*
X2924175D01*
Y4031906D01*
X2923223D01*
Y4032858D01*
X2924175D01*
Y4031906D01*
X2925128D01*
Y4030954D01*
X2927985D01*
Y4030001D01*
X2928937D01*
Y4029049D01*
X2929890D01*
Y4030001D01*
X2930842D01*
Y4029049D01*
X2933699D01*
Y4028097D01*
X2934651D01*
Y4029049D01*
X2935603D01*
Y4028097D01*
X2936556D01*
Y4027144D01*
X2939413D01*
Y4026192D01*
X2940365D01*
Y4025240D01*
X2941317D01*
Y4026192D01*
X2942270D01*
Y4025240D01*
X2945127D01*
Y4024287D01*
X2946079D01*
Y4023335D01*
X2947031D01*
Y4024287D01*
X2947984D01*
Y4023335D01*
X2948936D01*
Y4022383D01*
X2949888D01*
Y4023335D01*
X2950841D01*
Y4022383D01*
X2951793D01*
Y4021430D01*
X2954650D01*
Y4020478D01*
X2955602D01*
Y4019526D01*
X2956555D01*
Y4020478D01*
X2957507D01*
Y4019526D01*
X2958459D01*
Y4018573D01*
X2959412D01*
Y4017621D01*
X2960364D01*
Y4018573D01*
X2961316D01*
Y4017621D01*
X2962269D01*
Y4016669D01*
X2963221D01*
Y4017621D01*
X2964173D01*
Y4016669D01*
X2965126D01*
Y4015716D01*
X2967983D01*
Y4014764D01*
X2968935D01*
Y4013812D01*
X2971792D01*
Y4012860D01*
X2972744D01*
Y4011907D01*
X2975601D01*
Y4010955D01*
X2976554D01*
Y4010003D01*
X2977506D01*
Y4009050D01*
X2978458D01*
Y4010003D01*
X2979411D01*
Y4009050D01*
X2980363D01*
Y4008098D01*
X2982268D01*
Y4007146D01*
Y4006193D01*
X2983220D01*
Y4007146D01*
X2984172D01*
Y4006193D01*
X2985125D01*
Y4005241D01*
X2986077D01*
Y4004289D01*
X2987029D01*
Y4005241D01*
X2986077D01*
Y4006193D01*
X2987029D01*
Y4005241D01*
X2987982D01*
Y4004289D01*
X2988934D01*
Y4003336D01*
X2989886D01*
Y4002384D01*
X2992743D01*
Y4001432D01*
X2993696D01*
Y4000479D01*
X2994648D01*
Y3999527D01*
X2995600D01*
Y3998575D01*
X2996553D01*
Y3999527D01*
X2995600D01*
Y4000479D01*
X2996553D01*
Y3999527D01*
X2997505D01*
Y3998575D01*
X2998457D01*
Y3997622D01*
X2999410D01*
Y3996670D01*
X3002267D01*
Y3995718D01*
X3001314D01*
Y3994765D01*
X3004171D01*
Y3993813D01*
X3005124D01*
Y3992860D01*
X3006076D01*
Y3991908D01*
X3007028D01*
Y3990956D01*
X3007981D01*
Y3991908D01*
X3007028D01*
Y3992860D01*
X3007981D01*
Y3991908D01*
X3008933D01*
Y3990956D01*
X3009885D01*
Y3990003D01*
X3010838D01*
Y3989051D01*
X3011790D01*
Y3988099D01*
X3012742D01*
Y3987146D01*
X3015599D01*
Y3986194D01*
X3016552D01*
Y3985242D01*
X3017504D01*
Y3984289D01*
X3018456D01*
Y3983337D01*
X3019409D01*
Y3982385D01*
X3020361D01*
Y3983337D01*
X3021313D01*
Y3982385D01*
X3022266D01*
Y3981432D01*
X3023218D01*
Y3980480D01*
X3024170D01*
Y3979528D01*
X3025123D01*
Y3978575D01*
X3026075D01*
Y3977623D01*
X3027027D01*
Y3976671D01*
X3027980D01*
Y3975718D01*
X3030837D01*
Y3974766D01*
X3029884D01*
Y3973814D01*
X3032741D01*
Y3972861D01*
X3031789D01*
Y3971909D01*
X3034646D01*
Y3970957D01*
X3035598D01*
Y3970005D01*
X3036551D01*
Y3969052D01*
X3037503D01*
Y3968100D01*
X3038455D01*
Y3967148D01*
X3039408D01*
Y3966195D01*
X3040360D01*
Y3965243D01*
X3041312D01*
Y3964291D01*
X3042265D01*
Y3963338D01*
X3043217D01*
Y3962386D01*
X3044169D01*
Y3961434D01*
X3045122D01*
Y3960481D01*
X3047979D01*
Y3959529D01*
X3047026D01*
Y3958577D01*
X3047979D01*
Y3957624D01*
X3048931D01*
Y3956672D01*
X3051788D01*
Y3955720D01*
X3050836D01*
Y3954767D01*
X3051788D01*
Y3953815D01*
X3052740D01*
Y3952863D01*
X3055597D01*
Y3951910D01*
X3054645D01*
Y3950958D01*
X3055597D01*
Y3950006D01*
X3056550D01*
Y3949053D01*
X3057502D01*
Y3948101D01*
X3058454D01*
Y3947149D01*
X3059407D01*
Y3946196D01*
X3060359D01*
Y3945244D01*
X3061311D01*
Y3944292D01*
X3062264D01*
Y3943339D01*
X3063216D01*
Y3942387D01*
X3064168D01*
Y3941435D01*
X3065121D01*
Y3940482D01*
X3066073D01*
Y3939530D01*
X3067025D01*
Y3938578D01*
X3066073D01*
Y3937625D01*
X3068930D01*
Y3936673D01*
X3067978D01*
Y3935721D01*
X3069882D01*
Y3934768D01*
Y3933816D01*
X3070835D01*
Y3932864D01*
X3071787D01*
Y3931911D01*
X3072739D01*
Y3930959D01*
X3073692D01*
Y3930007D01*
X3074644D01*
Y3929054D01*
X3075596D01*
Y3928102D01*
X3076549D01*
Y3927150D01*
X3075596D01*
Y3926197D01*
X3078453D01*
Y3925245D01*
X3077501D01*
Y3924293D01*
X3078453D01*
Y3923340D01*
X3079406D01*
Y3922388D01*
X3080358D01*
Y3921436D01*
X3081310D01*
Y3920483D01*
X3082262D01*
Y3919531D01*
X3081310D01*
Y3918579D01*
X3083215D01*
Y3917626D01*
Y3916674D01*
X3084167D01*
Y3915722D01*
X3085119D01*
Y3914769D01*
X3086072D01*
Y3913817D01*
X3087024D01*
Y3912865D01*
X3087977D01*
Y3911912D01*
X3087024D01*
Y3912865D01*
X3086072D01*
Y3911912D01*
X3087024D01*
Y3910960D01*
X3087977D01*
Y3910008D01*
X3088929D01*
Y3909055D01*
X3089881D01*
Y3908103D01*
X3088929D01*
Y3907151D01*
X3090834D01*
Y3906198D01*
Y3905246D01*
X3091786D01*
Y3904294D01*
X3092738D01*
Y3903341D01*
X3093691D01*
Y3902389D01*
Y3901437D01*
Y3900484D01*
X3094643D01*
Y3899532D01*
X3095595D01*
Y3898580D01*
X3096548D01*
Y3897627D01*
Y3896675D01*
Y3895723D01*
X3097500D01*
Y3894770D01*
X3098452D01*
Y3893818D01*
X3099405D01*
Y3892866D01*
X3098452D01*
Y3891913D01*
X3099405D01*
Y3890961D01*
X3100357D01*
Y3890009D01*
X3101309D01*
Y3889056D01*
X3100357D01*
Y3888104D01*
X3102262D01*
Y3887152D01*
Y3886199D01*
X3103214D01*
Y3885247D01*
X3104166D01*
Y3884295D01*
X3105119D01*
Y3883342D01*
X3104166D01*
Y3882390D01*
X3105119D01*
Y3881438D01*
X3106071D01*
Y3880485D01*
X3107023D01*
Y3879533D01*
X3106071D01*
Y3878581D01*
X3107023D01*
Y3877628D01*
X3107976D01*
Y3876676D01*
X3108928D01*
Y3875724D01*
X3107976D01*
Y3874771D01*
X3108928D01*
Y3873819D01*
X3109880D01*
Y3872867D01*
Y3871914D01*
Y3870962D01*
X3110832D01*
Y3870010D01*
X3111785D01*
Y3869057D01*
X3112737D01*
Y3868105D01*
X3111785D01*
Y3867153D01*
X3112737D01*
Y3866200D01*
X3111785D01*
Y3865248D01*
X3113689D01*
Y3864296D01*
Y3863343D01*
X3114642D01*
Y3862391D01*
X3113689D01*
Y3861439D01*
X3114642D01*
Y3860486D01*
X3115594D01*
Y3859534D01*
X3116546D01*
Y3858582D01*
X3115594D01*
Y3857629D01*
X3116546D01*
Y3856677D01*
X3117499D01*
Y3855725D01*
X3118451D01*
Y3854772D01*
X3117499D01*
Y3855725D01*
X3116546D01*
Y3854772D01*
X3117499D01*
Y3853820D01*
X3118451D01*
Y3852868D01*
X3117499D01*
Y3851915D01*
X3118451D01*
Y3850963D01*
X3119403D01*
Y3850011D01*
X3120356D01*
Y3849058D01*
X3119403D01*
Y3848106D01*
X3120356D01*
Y3847154D01*
X3119403D01*
Y3846201D01*
X3121308D01*
Y3845249D01*
Y3844297D01*
X3122260D01*
Y3843344D01*
X3121308D01*
Y3842392D01*
X3122260D01*
Y3841440D01*
X3123213D01*
Y3840487D01*
Y3839535D01*
Y3838583D01*
X3124165D01*
Y3837630D01*
X3123213D01*
Y3836678D01*
X3124165D01*
Y3835726D01*
X3123213D01*
Y3834773D01*
X3125117D01*
Y3833821D01*
Y3832869D01*
X3126070D01*
Y3831916D01*
X3125117D01*
Y3830964D01*
X3126070D01*
Y3830012D01*
X3125117D01*
Y3829059D01*
X3126070D01*
Y3828107D01*
X3127022D01*
Y3827155D01*
X3127974D01*
Y3826202D01*
X3127022D01*
Y3825250D01*
X3127974D01*
Y3824298D01*
X3127022D01*
Y3823345D01*
X3127974D01*
Y3822393D01*
X3128927D01*
Y3821441D01*
Y3820488D01*
Y3819536D01*
X3129879D01*
Y3818584D01*
X3128927D01*
Y3817631D01*
X3129879D01*
Y3816679D01*
X3128927D01*
Y3815727D01*
X3129879D01*
Y3814774D01*
X3130831D01*
Y3813822D01*
Y3812870D01*
Y3811918D01*
X3131784D01*
Y3810965D01*
X3130831D01*
Y3810013D01*
X3131784D01*
Y3809061D01*
X3130831D01*
Y3808108D01*
X3131784D01*
Y3807156D01*
X3132736D01*
Y3806204D01*
X3131784D01*
Y3805251D01*
X3132736D01*
Y3804299D01*
Y3803347D01*
Y3802394D01*
X3133689D01*
Y3801442D01*
X3132736D01*
Y3800490D01*
X3133689D01*
Y3799537D01*
X3132736D01*
Y3798585D01*
X3133689D01*
Y3797633D01*
Y3796680D01*
Y3795728D01*
X3134641D01*
Y3794776D01*
Y3793823D01*
Y3792871D01*
X3135593D01*
Y3791919D01*
X3134641D01*
Y3790966D01*
X3135593D01*
Y3790014D01*
X3134641D01*
Y3789061D01*
X3135593D01*
Y3788109D01*
Y3787157D01*
Y3786204D01*
Y3785252D01*
Y3784300D01*
X3136546D01*
Y3783347D01*
X3137498D01*
Y3782395D01*
X3136546D01*
Y3783347D01*
X3135593D01*
Y3782395D01*
X3136546D01*
Y3781443D01*
Y3780490D01*
Y3779538D01*
X3137498D01*
Y3778586D01*
X3136546D01*
Y3777633D01*
X3137498D01*
Y3776681D01*
X3136546D01*
Y3775729D01*
X3137498D01*
Y3774776D01*
X3136546D01*
Y3773824D01*
X3137498D01*
Y3772872D01*
X3136546D01*
Y3771919D01*
X3137498D01*
Y3770967D01*
Y3770015D01*
Y3769062D01*
Y3768110D01*
Y3767158D01*
X3138450D01*
Y3766206D01*
X3137498D01*
Y3765253D01*
X3138450D01*
Y3764301D01*
X3137498D01*
Y3763349D01*
X3138450D01*
Y3762396D01*
X3139403D01*
Y3761444D01*
X3138450D01*
Y3762396D01*
X3137498D01*
Y3761444D01*
X3138450D01*
Y3760492D01*
Y3759539D01*
Y3758587D01*
X3139403D01*
Y3757635D01*
X3138450D01*
Y3756682D01*
X3139403D01*
Y3755730D01*
X3138450D01*
Y3754778D01*
X3139403D01*
Y3753825D01*
X3138450D01*
Y3752873D01*
X3139403D01*
Y3751921D01*
X3138450D01*
Y3750968D01*
X3139403D01*
Y3750016D01*
X3138450D01*
Y3749064D01*
X3139403D01*
Y3748111D01*
X3138450D01*
Y3747159D01*
X3139403D01*
Y3746207D01*
X3138450D01*
Y3745254D01*
X3139403D01*
Y3744302D01*
X3138450D01*
Y3743350D01*
X3139403D01*
Y3742397D01*
X3138450D01*
Y3741445D01*
X3139403D01*
Y3740493D01*
X3138450D01*
Y3739540D01*
X3139403D01*
Y3738588D01*
X3138450D01*
Y3737636D01*
X3139403D01*
Y3736683D01*
X3138450D01*
Y3735731D01*
X3139403D01*
Y3734779D01*
X3138450D01*
Y3733826D01*
X3139403D01*
Y3732874D01*
X3138450D01*
Y3731922D01*
X3139403D01*
Y3730969D01*
X3138450D01*
Y3730017D01*
Y3729065D01*
Y3728112D01*
X3139403D01*
Y3727160D01*
X3138450D01*
Y3726208D01*
Y3725255D01*
Y3724303D01*
X3139403D01*
Y3723351D01*
X3138450D01*
Y3724303D01*
X3137498D01*
Y3723351D01*
X3138450D01*
Y3722398D01*
X3137498D01*
Y3721446D01*
X3138450D01*
Y3720494D01*
X3137498D01*
Y3719541D01*
Y3718589D01*
Y3717637D01*
Y3716684D01*
Y3715732D01*
X3136546D01*
Y3714780D01*
X3137498D01*
Y3713827D01*
X3136546D01*
Y3712875D01*
X3137498D01*
Y3711923D01*
X3136546D01*
Y3710970D01*
X3137498D01*
Y3710018D01*
X3136546D01*
Y3709066D01*
X3137498D01*
Y3708113D01*
X3136546D01*
Y3707161D01*
X3137498D01*
Y3706209D01*
X3136546D01*
Y3705256D01*
Y3704304D01*
Y3703352D01*
X3135593D01*
Y3702399D01*
Y3701447D01*
Y3700495D01*
Y3699542D01*
Y3698590D01*
X3134641D01*
Y3697638D01*
X3135593D01*
Y3696685D01*
X3134641D01*
Y3695733D01*
X3135593D01*
Y3694781D01*
X3134641D01*
Y3693828D01*
X3135593D01*
Y3692876D01*
X3134641D01*
Y3691924D01*
X3133689D01*
Y3690971D01*
X3134641D01*
Y3690019D01*
X3133689D01*
Y3689067D01*
Y3688114D01*
Y3687162D01*
X3132736D01*
Y3686210D01*
X3133689D01*
Y3685257D01*
X3132736D01*
Y3684305D01*
X3133689D01*
Y3683353D01*
X3132736D01*
Y3682400D01*
Y3681448D01*
Y3680496D01*
X3131784D01*
Y3679543D01*
X3130831D01*
Y3678591D01*
X3131784D01*
Y3677639D01*
X3130831D01*
Y3676686D01*
X3131784D01*
Y3675734D01*
X3130831D01*
Y3674782D01*
X3131784D01*
Y3673829D01*
X3130831D01*
Y3672877D01*
X3129879D01*
Y3671925D01*
Y3670972D01*
Y3670020D01*
X3128927D01*
Y3669068D01*
X3129879D01*
Y3668115D01*
X3128927D01*
Y3667163D01*
Y3666211D01*
Y3665258D01*
X3127974D01*
Y3664306D01*
X3127022D01*
Y3663354D01*
X3127974D01*
Y3662401D01*
X3127022D01*
Y3661449D01*
X3127974D01*
Y3660497D01*
X3127022D01*
Y3659544D01*
Y3658592D01*
Y3657640D01*
X3126070D01*
Y3656687D01*
X3125117D01*
Y3655735D01*
X3126070D01*
Y3654783D01*
X3125117D01*
Y3653830D01*
X3126070D01*
Y3652878D01*
X3125117D01*
Y3651926D01*
X3124165D01*
Y3650973D01*
X3123213D01*
Y3650021D01*
X3124165D01*
Y3649069D01*
X3123213D01*
Y3648116D01*
X3124165D01*
Y3647164D01*
X3123213D01*
Y3646212D01*
X3122260D01*
Y3645259D01*
X3121308D01*
Y3644307D01*
X3122260D01*
Y3643355D01*
X3121308D01*
Y3642402D01*
X3122260D01*
Y3641450D01*
X3121308D01*
Y3642402D01*
X3120356D01*
Y3641450D01*
Y3640498D01*
Y3639545D01*
X3119403D01*
Y3638593D01*
X3120356D01*
Y3637641D01*
X3119403D01*
Y3636688D01*
X3120356D01*
Y3635736D01*
X3119403D01*
Y3636688D01*
X3118451D01*
Y3635736D01*
Y3634784D01*
Y3633831D01*
X3117499D01*
Y3632879D01*
X3118451D01*
Y3631927D01*
X3117499D01*
Y3630974D01*
X3116546D01*
Y3630022D01*
X3115594D01*
Y3629070D01*
X3116546D01*
Y3628117D01*
X3115594D01*
Y3627165D01*
X3114642D01*
Y3626213D01*
Y3625260D01*
Y3624308D01*
X3113689D01*
Y3623356D01*
X3114642D01*
Y3622403D01*
X3113689D01*
Y3621451D01*
X3112737D01*
Y3620499D01*
X3111785D01*
Y3619546D01*
Y3618594D01*
Y3617642D01*
X3110832D01*
Y3616689D01*
X3109880D01*
Y3615737D01*
X3110832D01*
Y3614785D01*
X3109880D01*
Y3613832D01*
X3108928D01*
Y3612880D01*
X3107976D01*
Y3611928D01*
X3108928D01*
Y3610975D01*
X3107976D01*
Y3610023D01*
X3107023D01*
Y3609071D01*
X3106071D01*
Y3608118D01*
X3107023D01*
Y3607166D01*
X3106071D01*
Y3606214D01*
X3105119D01*
Y3605261D01*
X3104166D01*
Y3604309D01*
X3105119D01*
Y3603357D01*
X3104166D01*
Y3602404D01*
X3103214D01*
Y3601452D01*
X3102262D01*
Y3600500D01*
X3103214D01*
Y3599548D01*
X3102262D01*
Y3598595D01*
X3101309D01*
Y3597643D01*
X3100357D01*
Y3596691D01*
Y3595738D01*
Y3594786D01*
X3099405D01*
Y3593834D01*
X3098452D01*
Y3592881D01*
X3099405D01*
Y3591929D01*
X3098452D01*
Y3592881D01*
X3097500D01*
Y3591929D01*
X3096548D01*
Y3590977D01*
X3097500D01*
Y3590024D01*
X3096548D01*
Y3589072D01*
X3095595D01*
Y3588119D01*
X3094643D01*
Y3587167D01*
X3095595D01*
Y3586215D01*
X3094643D01*
Y3585262D01*
X3093691D01*
Y3584310D01*
X3092738D01*
Y3583358D01*
X3091786D01*
Y3582405D01*
X3090834D01*
Y3581453D01*
X3091786D01*
Y3580501D01*
X3090834D01*
Y3579548D01*
X3089881D01*
Y3580501D01*
X3088929D01*
Y3579548D01*
X3089881D01*
Y3578596D01*
X3088929D01*
Y3577644D01*
Y3576691D01*
X3087024D01*
Y3575739D01*
X3087977D01*
Y3574787D01*
X3087024D01*
Y3573834D01*
X3086072D01*
Y3572882D01*
X3085119D01*
Y3571930D01*
X3084167D01*
Y3570977D01*
X3083215D01*
Y3570025D01*
X3084167D01*
Y3569073D01*
X3083215D01*
Y3568120D01*
X3082262D01*
Y3567168D01*
X3081310D01*
Y3566216D01*
X3080358D01*
Y3565264D01*
X3079406D01*
Y3564311D01*
Y3563359D01*
X3078453D01*
Y3562407D01*
Y3561454D01*
X3077501D01*
Y3560502D01*
X3076549D01*
Y3559550D01*
X3075596D01*
Y3558597D01*
X3074644D01*
Y3557645D01*
X3073692D01*
Y3556693D01*
X3074644D01*
Y3555740D01*
X3073692D01*
Y3556693D01*
X3072739D01*
Y3555740D01*
X3071787D01*
Y3554788D01*
X3072739D01*
Y3553836D01*
X3069882D01*
Y3552883D01*
X3070835D01*
Y3551931D01*
X3069882D01*
Y3550979D01*
X3068930D01*
Y3550026D01*
X3067978D01*
Y3549074D01*
X3067025D01*
Y3548122D01*
X3066073D01*
Y3547169D01*
X3065121D01*
Y3546217D01*
X3064168D01*
Y3545265D01*
Y3544312D01*
X3062264D01*
Y3543360D01*
Y3542407D01*
X3060359D01*
Y3541455D01*
X3061311D01*
Y3540503D01*
X3059407D01*
Y3539550D01*
Y3538598D01*
X3057502D01*
Y3537646D01*
Y3536694D01*
X3056550D01*
Y3535741D01*
X3055597D01*
Y3534789D01*
X3054645D01*
Y3533837D01*
X3053693D01*
Y3532884D01*
X3052740D01*
Y3531932D01*
X3051788D01*
Y3530980D01*
X3050836D01*
Y3530027D01*
X3049883D01*
Y3529075D01*
X3048931D01*
Y3528123D01*
X3047979D01*
Y3527170D01*
X3047026D01*
Y3526218D01*
X3046074D01*
Y3525266D01*
X3045122D01*
Y3524313D01*
X3044169D01*
Y3523361D01*
X3041312D01*
Y3522409D01*
X3042265D01*
Y3521456D01*
X3039408D01*
Y3520504D01*
Y3519552D01*
X3037503D01*
Y3518599D01*
Y3517647D01*
X3035598D01*
Y3516695D01*
X3034646D01*
Y3515742D01*
X3033694D01*
Y3514790D01*
X3032741D01*
Y3513838D01*
X3031789D01*
Y3512885D01*
X3030837D01*
Y3511933D01*
X3029884D01*
Y3510981D01*
X3028932D01*
Y3511933D01*
X3027980D01*
Y3510981D01*
X3028932D01*
Y3510028D01*
X3026075D01*
Y3509076D01*
X3027027D01*
Y3508124D01*
X3026075D01*
Y3509076D01*
X3025123D01*
Y3508124D01*
X3024170D01*
Y3507171D01*
X3025123D01*
Y3506219D01*
X3024170D01*
Y3507171D01*
X3023218D01*
Y3506219D01*
X3022266D01*
Y3505267D01*
X3021313D01*
Y3504314D01*
X3020361D01*
Y3503362D01*
X3019409D01*
Y3502410D01*
X3016552D01*
Y3501457D01*
X3015599D01*
Y3500505D01*
X3014647D01*
Y3499553D01*
X3013695D01*
Y3498600D01*
X3010838D01*
Y3497648D01*
X3011790D01*
Y3496696D01*
X3010838D01*
Y3497648D01*
X3009885D01*
Y3496696D01*
X3008933D01*
Y3495743D01*
X3007981D01*
Y3494791D01*
X3007028D01*
Y3493839D01*
X3006076D01*
Y3492886D01*
X3003219D01*
Y3491934D01*
X3002267D01*
Y3490982D01*
X2999410D01*
Y3490029D01*
X3000362D01*
Y3489077D01*
X2999410D01*
Y3490029D01*
X2998457D01*
Y3489077D01*
X2997505D01*
Y3488125D01*
X2996553D01*
Y3487172D01*
X2995600D01*
Y3486220D01*
X2994648D01*
Y3487172D01*
X2993696D01*
Y3486220D01*
X2992743D01*
Y3485268D01*
X2991791D01*
Y3484315D01*
X2990839D01*
Y3485268D01*
X2989886D01*
Y3484315D01*
X2990839D01*
Y3483363D01*
X2987982D01*
Y3482411D01*
X2987029D01*
Y3481458D01*
X2984172D01*
Y3480506D01*
X2983220D01*
Y3479554D01*
X2980363D01*
Y3478601D01*
X2979411D01*
Y3477649D01*
X2978458D01*
Y3476697D01*
X2975601D01*
Y3475744D01*
X2974649D01*
Y3474792D01*
X2973697D01*
Y3475744D01*
X2972744D01*
Y3474792D01*
X2973697D01*
Y3473840D01*
X2972744D01*
Y3474792D01*
X2971792D01*
Y3473840D01*
X2970840D01*
Y3472887D01*
X2969887D01*
Y3473840D01*
X2968935D01*
Y3472887D01*
X2969887D01*
Y3471935D01*
X2968935D01*
Y3472887D01*
X2967983D01*
Y3471935D01*
X2965126D01*
Y3470983D01*
X2966078D01*
Y3470030D01*
X2965126D01*
Y3470983D01*
X2964173D01*
Y3470030D01*
X2963221D01*
Y3469078D01*
X2962269D01*
Y3470030D01*
X2961316D01*
Y3469078D01*
X2960364D01*
Y3468126D01*
X2957507D01*
Y3467173D01*
X2956555D01*
Y3466221D01*
X2953698D01*
Y3465269D01*
X2952745D01*
Y3466221D01*
X2951793D01*
Y3465269D01*
X2952745D01*
Y3464316D01*
X2951793D01*
Y3465269D01*
X2950841D01*
Y3464316D01*
X2949888D01*
Y3463364D01*
X2948936D01*
Y3464316D01*
X2947984D01*
Y3463364D01*
X2947031D01*
Y3462412D01*
X2944174D01*
Y3461459D01*
X2943222D01*
Y3462412D01*
X2942270D01*
Y3461459D01*
X2943222D01*
Y3460507D01*
X2942270D01*
Y3461459D01*
X2941317D01*
Y3460507D01*
X2938460D01*
Y3459555D01*
X2935603D01*
Y3458602D01*
X2932746D01*
Y3457650D01*
X2931794D01*
Y3456698D01*
X2930842D01*
Y3457650D01*
X2929890D01*
Y3456698D01*
X2927032D01*
Y3455745D01*
X2924175D01*
Y3454793D01*
X2921318D01*
Y3453841D01*
X2920366D01*
Y3454793D01*
X2919414D01*
Y3453841D01*
X2918461D01*
Y3452888D01*
X2917509D01*
Y3453841D01*
X2916557D01*
Y3452888D01*
X2913700D01*
Y3451936D01*
X2912747D01*
Y3452888D01*
X2911795D01*
Y3451936D01*
X2912747D01*
Y3450984D01*
X2911795D01*
Y3451936D01*
X2910843D01*
Y3450984D01*
X2909890D01*
Y3451936D01*
X2908938D01*
Y3450984D01*
X2906081D01*
Y3450031D01*
X2905129D01*
Y3450984D01*
X2904177D01*
Y3450031D01*
X2905129D01*
Y3449079D01*
X2904177D01*
Y3450031D01*
X2903224D01*
Y3449079D01*
X2902272D01*
Y3450031D01*
X2901320D01*
Y3449079D01*
X2898463D01*
Y3448127D01*
X2897510D01*
Y3449079D01*
X2896558D01*
Y3448127D01*
X2895606D01*
Y3449079D01*
X2894653D01*
Y3448127D01*
X2893701D01*
Y3447174D01*
X2892749D01*
Y3448127D01*
X2891796D01*
Y3447174D01*
X2887035D01*
Y3446222D01*
X2886082D01*
Y3447174D01*
X2885130D01*
Y3446222D01*
X2884177D01*
Y3447174D01*
X2883225D01*
Y3446222D01*
X2884177D01*
Y3445270D01*
X2883225D01*
Y3446222D01*
X2882273D01*
Y3445270D01*
X2881320D01*
Y3446222D01*
X2880368D01*
Y3445270D01*
X2879416D01*
Y3446222D01*
X2878463D01*
Y3445270D01*
X2875606D01*
Y3444317D01*
X2874654D01*
Y3445270D01*
X2873702D01*
Y3444317D01*
X2872749D01*
Y3445270D01*
X2871797D01*
Y3444317D01*
X2870845D01*
Y3445270D01*
X2869892D01*
Y3444317D01*
X2870845D01*
Y3443365D01*
X2869892D01*
Y3444317D01*
X2868940D01*
Y3443365D01*
X2867988D01*
Y3444317D01*
X2867035D01*
Y3443365D01*
X2866083D01*
Y3444317D01*
X2865131D01*
Y3443365D01*
X2864179D01*
Y3444317D01*
X2863226D01*
Y3443365D01*
X2862274D01*
Y3444317D01*
X2861322D01*
Y3443365D01*
X2852751D01*
Y3442413D01*
X2851798D01*
Y3443365D01*
X2850846D01*
Y3442413D01*
X2849894D01*
Y3443365D01*
X2848941D01*
Y3442413D01*
X2847989D01*
Y3443365D01*
X2847037D01*
Y3442413D01*
X2846084D01*
Y3443365D01*
X2845132D01*
Y3442413D01*
X2844180D01*
Y3443365D01*
X2843227D01*
Y3442413D01*
X2842275D01*
Y3443365D01*
X2841323D01*
Y3442413D01*
X2840370D01*
Y3443365D01*
X2839418D01*
Y3442413D01*
X2838466D01*
Y3443365D01*
X2837513D01*
Y3442413D01*
X2836561D01*
Y3443365D01*
X2835609D01*
Y3442413D01*
X2834656D01*
Y3443365D01*
X2833704D01*
Y3442413D01*
X2832752D01*
Y3443365D01*
X2831799D01*
Y3442413D01*
X2830847D01*
Y3443365D01*
X2829895D01*
Y3442413D01*
X2828942D01*
Y3443365D01*
X2827990D01*
Y3442413D01*
X2827038D01*
Y3443365D01*
X2826085D01*
Y3442413D01*
X2825133D01*
Y3443365D01*
X2822276D01*
Y3442413D01*
X2821324D01*
Y3443365D01*
X2816562D01*
Y3444317D01*
X2815610D01*
Y3443365D01*
X2812753D01*
Y3444317D01*
X2811800D01*
Y3443365D01*
X2810848D01*
Y3444317D01*
X2809896D01*
Y3445270D01*
X2808943D01*
Y3444317D01*
X2809896D01*
Y3443365D01*
X2808943D01*
Y3444317D01*
X2807991D01*
Y3443365D01*
X2807039D01*
Y3444317D01*
X2806086D01*
Y3445270D01*
X2805134D01*
Y3444317D01*
X2806086D01*
Y3443365D01*
X2805134D01*
Y3444317D01*
X2804182D01*
Y3445270D01*
X2803229D01*
Y3444317D01*
X2802277D01*
Y3445270D01*
X2801325D01*
Y3444317D01*
X2800372D01*
Y3445270D01*
X2795611D01*
Y3446222D01*
X2794658D01*
Y3445270D01*
X2793706D01*
Y3446222D01*
X2792754D01*
Y3447174D01*
X2791801D01*
Y3446222D01*
X2792754D01*
Y3445270D01*
X2791801D01*
Y3446222D01*
X2790849D01*
Y3447174D01*
X2789897D01*
Y3446222D01*
X2788944D01*
Y3447174D01*
X2787992D01*
Y3446222D01*
X2787040D01*
Y3447174D01*
X2784183D01*
Y3448127D01*
X2783230D01*
Y3447174D01*
X2782278D01*
Y3448127D01*
X2781326D01*
Y3449079D01*
X2780373D01*
Y3448127D01*
X2779421D01*
Y3449079D01*
X2778469D01*
Y3448127D01*
X2777516D01*
Y3449079D01*
X2774659D01*
Y3450031D01*
X2773707D01*
Y3449079D01*
X2772755D01*
Y3450031D01*
X2771802D01*
Y3450984D01*
X2770850D01*
Y3450031D01*
X2771802D01*
Y3449079D01*
X2770850D01*
Y3450031D01*
X2769898D01*
Y3450984D01*
X2767041D01*
Y3451936D01*
X2766088D01*
Y3450984D01*
X2765136D01*
Y3451936D01*
X2764184D01*
Y3452888D01*
X2763231D01*
Y3451936D01*
X2764184D01*
Y3450984D01*
X2763231D01*
Y3451936D01*
X2762279D01*
Y3452888D01*
X2757517D01*
Y3453841D01*
X2756565D01*
Y3454793D01*
X2755613D01*
Y3453841D01*
X2754660D01*
Y3454793D01*
X2751803D01*
Y3455745D01*
X2748946D01*
Y3456698D01*
X2746089D01*
Y3457650D01*
X2745137D01*
Y3456698D01*
X2744185D01*
Y3457650D01*
X2743232D01*
Y3458602D01*
X2740375D01*
Y3459555D01*
X2739423D01*
Y3458602D01*
X2738471D01*
Y3459555D01*
X2737518D01*
Y3460507D01*
X2734661D01*
Y3461459D01*
X2733709D01*
Y3462412D01*
X2732757D01*
Y3461459D01*
X2731804D01*
Y3462412D01*
X2728947D01*
Y3463364D01*
X2727995D01*
Y3464316D01*
X2727043D01*
Y3463364D01*
X2726090D01*
Y3464316D01*
X2723233D01*
Y3465269D01*
X2722281D01*
Y3466221D01*
X2721329D01*
Y3467173D01*
X2720376D01*
Y3466221D01*
X2719424D01*
Y3467173D01*
X2718472D01*
Y3468126D01*
X2715615D01*
Y3469078D01*
X2714662D01*
Y3470030D01*
X2711805D01*
Y3470983D01*
X2710853D01*
Y3471935D01*
X2709901D01*
Y3470983D01*
X2710853D01*
Y3470030D01*
X2709901D01*
Y3470983D01*
X2708948D01*
Y3471935D01*
X2707996D01*
Y3472887D01*
X2707044D01*
Y3471935D01*
X2706091D01*
Y3472887D01*
X2705139D01*
Y3473840D01*
X2704187D01*
Y3474792D01*
X2703235D01*
Y3475744D01*
X2702282D01*
Y3474792D01*
X2703235D01*
Y3473840D01*
X2702282D01*
Y3474792D01*
X2701330D01*
Y3475744D01*
X2700378D01*
Y3476697D01*
X2699425D01*
Y3477649D01*
X2698473D01*
Y3476697D01*
X2697521D01*
Y3477649D01*
X2696568D01*
Y3478601D01*
X2695616D01*
Y3479554D01*
X2694664D01*
Y3478601D01*
X2695616D01*
Y3477649D01*
X2694664D01*
Y3478601D01*
X2693711D01*
Y3479554D01*
X2692759D01*
Y3480506D01*
X2691807D01*
Y3481458D01*
X2688950D01*
Y3482411D01*
X2687997D01*
Y3483363D01*
X2685140D01*
Y3484315D01*
X2684188D01*
Y3485268D01*
X2683235D01*
Y3486220D01*
X2682283D01*
Y3487172D01*
X2679426D01*
Y3488125D01*
X2678474D01*
Y3489077D01*
X2675617D01*
Y3490029D01*
X2674664D01*
Y3490982D01*
X2673712D01*
Y3491934D01*
X2672760D01*
Y3492886D01*
X2669903D01*
Y3493839D01*
X2668950D01*
Y3494791D01*
X2667998D01*
Y3495743D01*
X2667046D01*
Y3496696D01*
X2664189D01*
Y3497648D01*
X2663236D01*
Y3498600D01*
X2662284D01*
Y3499553D01*
X2661332D01*
Y3500505D01*
X2660380D01*
Y3501457D01*
X2659427D01*
Y3502410D01*
X2656570D01*
Y3503362D01*
X2657523D01*
Y3504314D01*
X2654666D01*
Y3505267D01*
X2653713D01*
Y3506219D01*
X2652761D01*
Y3507171D01*
X2651809D01*
Y3508124D01*
X2648952D01*
Y3509076D01*
X2647999D01*
Y3510028D01*
X2647047D01*
Y3510981D01*
X2646095D01*
Y3511933D01*
X2645142D01*
Y3512885D01*
X2644190D01*
Y3513838D01*
X2643238D01*
Y3514790D01*
X2642285D01*
Y3515742D01*
X2641333D01*
Y3516695D01*
X2640381D01*
Y3517647D01*
X2639428D01*
Y3518599D01*
X2638476D01*
Y3519552D01*
X2636571D01*
Y3520504D01*
Y3521456D01*
X2633714D01*
Y3522409D01*
X2634667D01*
Y3523361D01*
X2631810D01*
Y3524313D01*
X2630857D01*
Y3525266D01*
X2629905D01*
Y3526218D01*
X2628953D01*
Y3527170D01*
X2628000D01*
Y3528123D01*
X2627048D01*
Y3529075D01*
X2626096D01*
Y3530027D01*
X2625143D01*
Y3530980D01*
X2624191D01*
Y3531932D01*
X2623239D01*
Y3532884D01*
X2622286D01*
Y3533837D01*
X2621334D01*
Y3534789D01*
X2620382D01*
Y3535741D01*
X2619429D01*
Y3536694D01*
X2618477D01*
Y3537646D01*
Y3538598D01*
X2616572D01*
Y3539550D01*
Y3540503D01*
X2614668D01*
Y3541455D01*
X2615620D01*
Y3542407D01*
X2614668D01*
Y3543360D01*
X2613715D01*
Y3544312D01*
X2612763D01*
Y3545265D01*
X2611811D01*
Y3546217D01*
X2610858D01*
Y3547169D01*
X2609906D01*
Y3548122D01*
X2608954D01*
Y3549074D01*
X2608001D01*
Y3550026D01*
X2607049D01*
Y3550979D01*
X2606097D01*
Y3551931D01*
X2605144D01*
Y3552883D01*
X2604192D01*
Y3553836D01*
X2603240D01*
Y3554788D01*
X2604192D01*
Y3555740D01*
X2601335D01*
Y3556693D01*
X2602287D01*
Y3557645D01*
X2601335D01*
Y3558597D01*
X2600383D01*
Y3559550D01*
X2599430D01*
Y3560502D01*
X2598478D01*
Y3561454D01*
X2597526D01*
Y3562407D01*
Y3563359D01*
X2596573D01*
Y3564311D01*
Y3565264D01*
X2595621D01*
Y3566216D01*
X2594669D01*
Y3567168D01*
X2593716D01*
Y3568120D01*
X2592764D01*
Y3569073D01*
X2591812D01*
Y3570025D01*
X2592764D01*
Y3570977D01*
X2590859D01*
Y3571930D01*
Y3572882D01*
X2589907D01*
Y3573834D01*
X2588955D01*
Y3574787D01*
X2588002D01*
Y3575739D01*
X2588955D01*
Y3576691D01*
X2588002D01*
Y3577644D01*
X2587050D01*
Y3578596D01*
X2586098D01*
Y3579548D01*
X2585145D01*
Y3580501D01*
X2584193D01*
Y3581453D01*
X2585145D01*
Y3582405D01*
X2582288D01*
Y3583358D01*
X2583241D01*
Y3584310D01*
X2582288D01*
Y3585262D01*
X2581336D01*
Y3586215D01*
X2580384D01*
Y3587167D01*
X2581336D01*
Y3588119D01*
X2580384D01*
Y3589072D01*
X2579431D01*
Y3590024D01*
X2578479D01*
Y3590977D01*
X2579431D01*
Y3591929D01*
X2578479D01*
Y3592881D01*
X2577527D01*
Y3593834D01*
X2576574D01*
Y3594786D01*
Y3595738D01*
X2575622D01*
Y3596691D01*
Y3597643D01*
X2574670D01*
Y3598595D01*
X2573717D01*
Y3599548D01*
X2572765D01*
Y3600500D01*
X2573717D01*
Y3601452D01*
X2572765D01*
Y3602404D01*
X2571813D01*
Y3603357D01*
X2570860D01*
Y3604309D01*
X2571813D01*
Y3605261D01*
X2570860D01*
Y3606214D01*
X2569908D01*
Y3607166D01*
X2568956D01*
Y3608118D01*
X2569908D01*
Y3609071D01*
X2568956D01*
Y3610023D01*
X2568003D01*
Y3610975D01*
X2567051D01*
Y3611928D01*
X2568003D01*
Y3612880D01*
X2567051D01*
Y3613832D01*
X2566099D01*
Y3614785D01*
X2565146D01*
Y3615737D01*
X2566099D01*
Y3616689D01*
X2565146D01*
Y3617642D01*
X2564194D01*
Y3618594D01*
Y3619546D01*
Y3620499D01*
X2563242D01*
Y3621451D01*
X2562289D01*
Y3622403D01*
X2561337D01*
Y3623356D01*
X2562289D01*
Y3624308D01*
X2561337D01*
Y3625260D01*
Y3626213D01*
Y3627165D01*
X2560385D01*
Y3628117D01*
X2559432D01*
Y3629070D01*
X2560385D01*
Y3630022D01*
X2559432D01*
Y3630974D01*
X2558480D01*
Y3631927D01*
X2557528D01*
Y3632879D01*
X2558480D01*
Y3633831D01*
X2557528D01*
Y3634784D01*
X2556575D01*
Y3635736D01*
X2555623D01*
Y3636688D01*
X2556575D01*
Y3637641D01*
X2555623D01*
Y3638593D01*
X2556575D01*
Y3639545D01*
X2555623D01*
Y3640498D01*
X2554671D01*
Y3641450D01*
X2553718D01*
Y3642402D01*
X2554671D01*
Y3643355D01*
X2553718D01*
Y3644307D01*
X2554671D01*
Y3645259D01*
X2553718D01*
Y3646212D01*
X2552766D01*
Y3647164D01*
X2551814D01*
Y3648116D01*
X2552766D01*
Y3649069D01*
X2551814D01*
Y3650021D01*
X2552766D01*
Y3650973D01*
X2551814D01*
Y3651926D01*
X2550861D01*
Y3652878D01*
X2549909D01*
Y3653830D01*
X2550861D01*
Y3654783D01*
X2549909D01*
Y3655735D01*
X2550861D01*
Y3656687D01*
X2549909D01*
Y3657640D01*
X2548957D01*
Y3658592D01*
Y3659544D01*
Y3660497D01*
X2548004D01*
Y3661449D01*
X2548957D01*
Y3662401D01*
X2548004D01*
Y3663354D01*
X2548957D01*
Y3664306D01*
X2548004D01*
Y3665258D01*
X2547052D01*
Y3666211D01*
Y3667163D01*
Y3668115D01*
X2546100D01*
Y3669068D01*
X2547052D01*
Y3670020D01*
X2546100D01*
Y3670972D01*
Y3671925D01*
Y3672877D01*
X2545147D01*
Y3673829D01*
X2544195D01*
Y3674782D01*
X2545147D01*
Y3675734D01*
X2544195D01*
Y3676686D01*
X2545147D01*
Y3677639D01*
X2544195D01*
Y3678591D01*
X2545147D01*
Y3679543D01*
X2544195D01*
Y3680496D01*
X2543243D01*
Y3681448D01*
Y3682400D01*
Y3683353D01*
X2542290D01*
Y3684305D01*
X2543243D01*
Y3685257D01*
X2542290D01*
Y3686210D01*
X2543243D01*
Y3687162D01*
X2542290D01*
Y3688114D01*
Y3689067D01*
Y3690019D01*
X2541338D01*
Y3690971D01*
X2542290D01*
Y3691924D01*
X2541338D01*
Y3692876D01*
X2540386D01*
Y3693828D01*
X2541338D01*
Y3694781D01*
X2540386D01*
Y3695733D01*
X2541338D01*
Y3696685D01*
X2540386D01*
Y3697638D01*
X2541338D01*
Y3698590D01*
X2540386D01*
Y3699542D01*
Y3700495D01*
Y3701447D01*
X2539433D01*
Y3702399D01*
X2540386D01*
Y3703352D01*
X2539433D01*
Y3704304D01*
Y3705256D01*
Y3706209D01*
X2538481D01*
Y3707161D01*
X2539433D01*
Y3708113D01*
X2538481D01*
Y3709066D01*
X2539433D01*
Y3710018D01*
X2538481D01*
Y3710970D01*
X2539433D01*
Y3711923D01*
X2538481D01*
Y3712875D01*
X2539433D01*
Y3713827D01*
X2538481D01*
Y3714780D01*
X2539433D01*
Y3715732D01*
X2538481D01*
Y3716684D01*
Y3717637D01*
Y3718589D01*
X2537529D01*
Y3719541D01*
X2538481D01*
Y3720494D01*
Y3721446D01*
Y3722398D01*
X2537529D01*
Y3723351D01*
X2536576D01*
Y3724303D01*
X2537529D01*
Y3725255D01*
X2538481D01*
Y3726208D01*
X2537529D01*
Y3727160D01*
X2536576D01*
Y3728112D01*
X2537529D01*
Y3729065D01*
Y3730017D01*
Y3730969D01*
X2536576D01*
Y3731922D01*
X2537529D01*
Y3732874D01*
X2536576D01*
Y3733826D01*
X2537529D01*
Y3734779D01*
X2536576D01*
Y3735731D01*
X2537529D01*
Y3736683D01*
X2536576D01*
Y3737636D01*
X2537529D01*
Y3738588D01*
X2536576D01*
Y3739540D01*
X2537529D01*
Y3740493D01*
X2536576D01*
Y3741445D01*
X2537529D01*
Y3742397D01*
X2536576D01*
Y3743350D01*
X2537529D01*
Y3744302D01*
X2536576D01*
Y3745254D01*
X2537529D01*
Y3746207D01*
X2536576D01*
Y3747159D01*
X2537529D01*
Y3748111D01*
X2536576D01*
Y3749064D01*
X2537529D01*
Y3750016D01*
X2536576D01*
Y3750968D01*
X2537529D01*
Y3751921D01*
X2536576D01*
Y3752873D01*
X2537529D01*
Y3753825D01*
X2536576D01*
Y3754778D01*
X2537529D01*
Y3755730D01*
X2536576D01*
Y3756682D01*
X2537529D01*
Y3757635D01*
X2536576D01*
Y3758587D01*
X2537529D01*
Y3759539D01*
X2538481D01*
Y3760492D01*
X2537529D01*
Y3761444D01*
X2536576D01*
Y3762396D01*
X2537529D01*
Y3763349D01*
X2538481D01*
Y3764301D01*
X2537529D01*
Y3765253D01*
X2538481D01*
Y3766206D01*
Y3767158D01*
Y3768110D01*
X2537529D01*
Y3769062D01*
X2538481D01*
Y3770015D01*
Y3770967D01*
Y3771919D01*
X2539433D01*
Y3772872D01*
X2538481D01*
Y3773824D01*
X2539433D01*
Y3774776D01*
X2538481D01*
Y3775729D01*
X2539433D01*
Y3776681D01*
X2538481D01*
Y3777633D01*
X2539433D01*
Y3778586D01*
X2538481D01*
Y3779538D01*
X2539433D01*
Y3780490D01*
X2538481D01*
Y3781443D01*
X2539433D01*
Y3782395D01*
X2540386D01*
Y3783347D01*
X2539433D01*
Y3784300D01*
X2540386D01*
Y3785252D01*
Y3786204D01*
Y3787157D01*
Y3788109D01*
Y3789061D01*
X2541338D01*
Y3790014D01*
X2540386D01*
Y3790966D01*
X2541338D01*
Y3791919D01*
X2540386D01*
Y3792871D01*
X2541338D01*
Y3793823D01*
Y3794776D01*
Y3795728D01*
X2542290D01*
Y3796680D01*
Y3797633D01*
Y3798585D01*
X2543243D01*
Y3799537D01*
X2542290D01*
Y3800490D01*
X2543243D01*
Y3801442D01*
X2542290D01*
Y3802394D01*
X2543243D01*
Y3803347D01*
Y3804299D01*
Y3805251D01*
X2544195D01*
Y3806204D01*
X2543243D01*
Y3807156D01*
X2544195D01*
Y3808108D01*
X2545147D01*
Y3809061D01*
X2544195D01*
Y3810013D01*
X2545147D01*
Y3810965D01*
X2544195D01*
Y3811918D01*
X2545147D01*
Y3812870D01*
Y3813822D01*
Y3814774D01*
X2546100D01*
Y3815727D01*
Y3816679D01*
Y3817631D01*
X2547052D01*
Y3818584D01*
X2546100D01*
Y3819536D01*
X2547052D01*
Y3820488D01*
Y3821441D01*
Y3822393D01*
X2548004D01*
Y3823345D01*
X2548957D01*
Y3824298D01*
X2548004D01*
Y3825250D01*
X2548957D01*
Y3826202D01*
X2548004D01*
Y3827155D01*
X2548957D01*
Y3828107D01*
X2549909D01*
Y3829059D01*
X2548957D01*
Y3830012D01*
X2549909D01*
Y3830964D01*
X2550861D01*
Y3831916D01*
X2549909D01*
Y3832869D01*
X2550861D01*
Y3833821D01*
X2551814D01*
Y3834773D01*
X2550861D01*
Y3835726D01*
X2551814D01*
Y3834773D01*
X2552766D01*
Y3835726D01*
X2551814D01*
Y3836678D01*
X2552766D01*
Y3837630D01*
X2551814D01*
Y3838583D01*
X2552766D01*
Y3839535D01*
X2553718D01*
Y3840487D01*
X2552766D01*
Y3841440D01*
X2553718D01*
Y3842392D01*
X2554671D01*
Y3843344D01*
X2553718D01*
Y3844297D01*
X2554671D01*
Y3845249D01*
X2555623D01*
Y3846201D01*
X2554671D01*
Y3847154D01*
X2555623D01*
Y3846201D01*
X2556575D01*
Y3847154D01*
X2555623D01*
Y3848106D01*
X2556575D01*
Y3849058D01*
X2555623D01*
Y3850011D01*
X2556575D01*
Y3850963D01*
X2557528D01*
Y3851915D01*
X2558480D01*
Y3852868D01*
X2557528D01*
Y3853820D01*
X2558480D01*
Y3854772D01*
X2557528D01*
Y3855725D01*
X2559432D01*
Y3856677D01*
Y3857629D01*
X2560385D01*
Y3858582D01*
X2559432D01*
Y3859534D01*
X2560385D01*
Y3860486D01*
X2561337D01*
Y3861439D01*
X2562289D01*
Y3862391D01*
X2561337D01*
Y3863343D01*
X2562289D01*
Y3864296D01*
X2563242D01*
Y3865248D01*
X2564194D01*
Y3866200D01*
X2563242D01*
Y3867153D01*
X2564194D01*
Y3868105D01*
X2563242D01*
Y3869057D01*
X2565146D01*
Y3870010D01*
Y3870962D01*
X2566099D01*
Y3871914D01*
Y3872867D01*
Y3873819D01*
X2567051D01*
Y3872867D01*
X2568003D01*
Y3873819D01*
X2567051D01*
Y3874771D01*
X2568003D01*
Y3875724D01*
X2567051D01*
Y3876676D01*
X2568003D01*
Y3877628D01*
X2568956D01*
Y3878581D01*
X2569908D01*
Y3879533D01*
X2568956D01*
Y3880485D01*
X2569908D01*
Y3881438D01*
X2570860D01*
Y3882390D01*
X2571813D01*
Y3883342D01*
X2570860D01*
Y3884295D01*
X2572765D01*
Y3885247D01*
Y3886199D01*
X2573717D01*
Y3887152D01*
X2574670D01*
Y3888104D01*
X2573717D01*
Y3889056D01*
X2574670D01*
Y3888104D01*
X2575622D01*
Y3889056D01*
X2574670D01*
Y3890009D01*
X2575622D01*
Y3890961D01*
X2574670D01*
Y3891913D01*
X2575622D01*
Y3890961D01*
X2576574D01*
Y3891913D01*
X2577527D01*
Y3892866D01*
X2576574D01*
Y3893818D01*
X2577527D01*
Y3894770D01*
X2578479D01*
Y3895723D01*
X2579431D01*
Y3896675D01*
X2578479D01*
Y3897627D01*
X2579431D01*
Y3898580D01*
X2580384D01*
Y3899532D01*
X2581336D01*
Y3900484D01*
Y3901437D01*
X2582288D01*
Y3902389D01*
Y3903341D01*
X2583241D01*
Y3904294D01*
X2584193D01*
Y3905246D01*
X2585145D01*
Y3906198D01*
Y3907151D01*
X2587050D01*
Y3908103D01*
X2586098D01*
Y3909055D01*
X2587050D01*
Y3910008D01*
X2588002D01*
Y3910960D01*
X2588955D01*
Y3911912D01*
X2588002D01*
Y3912865D01*
X2589907D01*
Y3913817D01*
Y3914769D01*
X2590859D01*
Y3915722D01*
X2591812D01*
Y3916674D01*
X2592764D01*
Y3917626D01*
X2593716D01*
Y3918579D01*
X2594669D01*
Y3919531D01*
X2593716D01*
Y3920483D01*
X2594669D01*
Y3921436D01*
X2595621D01*
Y3922388D01*
X2596573D01*
Y3923340D01*
X2597526D01*
Y3924293D01*
X2598478D01*
Y3925245D01*
X2597526D01*
Y3926197D01*
X2600383D01*
Y3927150D01*
X2599430D01*
Y3928102D01*
X2600383D01*
Y3929054D01*
X2601335D01*
Y3930007D01*
X2602287D01*
Y3930959D01*
X2603240D01*
Y3931911D01*
X2604192D01*
Y3932864D01*
X2605144D01*
Y3933816D01*
X2606097D01*
Y3934768D01*
Y3935721D01*
X2608001D01*
Y3936673D01*
X2607049D01*
Y3937625D01*
X2608001D01*
Y3938578D01*
X2608954D01*
Y3937625D01*
X2609906D01*
Y3938578D01*
X2608954D01*
Y3939530D01*
X2609906D01*
Y3940482D01*
X2610858D01*
Y3941435D01*
X2611811D01*
Y3942387D01*
X2612763D01*
Y3943339D01*
X2613715D01*
Y3944292D01*
X2614668D01*
Y3945244D01*
X2615620D01*
Y3946196D01*
X2616572D01*
Y3947149D01*
X2617525D01*
Y3948101D01*
X2616572D01*
Y3949053D01*
X2617525D01*
Y3948101D01*
X2618477D01*
Y3949053D01*
X2619429D01*
Y3950006D01*
X2618477D01*
Y3950958D01*
X2621334D01*
Y3951910D01*
X2620382D01*
Y3952863D01*
X2623239D01*
Y3953815D01*
X2622286D01*
Y3954767D01*
X2625143D01*
Y3955720D01*
X2624191D01*
Y3956672D01*
X2627048D01*
Y3957624D01*
X2626096D01*
Y3958577D01*
X2628953D01*
Y3959529D01*
X2628000D01*
Y3960481D01*
X2630857D01*
Y3961434D01*
X2629905D01*
Y3962386D01*
X2632762D01*
Y3963338D01*
X2631810D01*
Y3964291D01*
X2632762D01*
Y3963338D01*
X2633714D01*
Y3964291D01*
X2634667D01*
Y3965243D01*
X2635619D01*
Y3966195D01*
X2636571D01*
Y3967148D01*
X2637524D01*
Y3968100D01*
X2638476D01*
Y3969052D01*
X2639428D01*
Y3970005D01*
X2640381D01*
Y3970957D01*
X2641333D01*
Y3971909D01*
X2642285D01*
Y3972861D01*
X2643238D01*
Y3971909D01*
X2644190D01*
Y3972861D01*
X2643238D01*
Y3973814D01*
X2646095D01*
Y3974766D01*
X2645142D01*
Y3975718D01*
X2647999D01*
Y3976671D01*
X2648952D01*
Y3977623D01*
X2649904D01*
Y3978575D01*
X2650856D01*
Y3979528D01*
X2651809D01*
Y3980480D01*
X2652761D01*
Y3981432D01*
X2654666D01*
Y3982385D01*
Y3983337D01*
X2657523D01*
Y3984289D01*
X2658475D01*
Y3985242D01*
X2659427D01*
Y3986194D01*
X2660380D01*
Y3987146D01*
X2663236D01*
Y3988099D01*
X2664189D01*
Y3989051D01*
X2665141D01*
Y3990003D01*
X2666093D01*
Y3990956D01*
X2667998D01*
Y3991908D01*
Y3992860D01*
X2670855D01*
Y3993813D01*
X2671807D01*
Y3994765D01*
X2672760D01*
Y3995718D01*
X2673712D01*
Y3994765D01*
X2674664D01*
Y3995718D01*
X2673712D01*
Y3996670D01*
X2674664D01*
Y3995718D01*
X2675617D01*
Y3996670D01*
X2676569D01*
Y3997622D01*
X2677521D01*
Y3998575D01*
X2680378D01*
Y3999527D01*
X2679426D01*
Y4000479D01*
X2680378D01*
Y3999527D01*
X2681331D01*
Y4000479D01*
X2682283D01*
Y4001432D01*
X2683235D01*
Y4002384D01*
X2686093D01*
Y4003336D01*
X2687045D01*
Y4004289D01*
X2689902D01*
Y4005241D01*
X2688950D01*
Y4006193D01*
X2689902D01*
Y4005241D01*
X2690854D01*
Y4006193D01*
X2691807D01*
Y4007146D01*
X2692759D01*
Y4006193D01*
X2693711D01*
Y4007146D01*
X2694664D01*
Y4008098D01*
X2695616D01*
Y4009050D01*
X2696568D01*
Y4010003D01*
X2699425D01*
Y4010955D01*
X2700378D01*
Y4011907D01*
X2703235D01*
Y4012860D01*
X2704187D01*
Y4013812D01*
X2707044D01*
Y4014764D01*
X2707996D01*
Y4013812D01*
X2708948D01*
Y4014764D01*
X2707996D01*
Y4015716D01*
X2708948D01*
Y4014764D01*
X2709901D01*
Y4015716D01*
X2710853D01*
Y4016669D01*
X2711805D01*
Y4017621D01*
X2714662D01*
Y4018573D01*
X2715615D01*
Y4017621D01*
X2716567D01*
Y4018573D01*
X2717519D01*
Y4019526D01*
X2720376D01*
Y4020478D01*
X2721329D01*
Y4021430D01*
X2724186D01*
Y4022383D01*
X2725138D01*
Y4023335D01*
X2727995D01*
Y4024287D01*
X2728947D01*
Y4023335D01*
X2729900D01*
Y4024287D01*
X2730852D01*
Y4025240D01*
X2733709D01*
Y4026192D01*
X2734661D01*
Y4025240D01*
X2735614D01*
Y4026192D01*
X2736566D01*
Y4027144D01*
X2739423D01*
Y4028097D01*
X2738471D01*
Y4029049D01*
X2739423D01*
Y4028097D01*
X2740375D01*
Y4029049D01*
X2741328D01*
Y4028097D01*
X2742280D01*
Y4029049D01*
X2745137D01*
Y4030001D01*
X2746089D01*
Y4029049D01*
X2747042D01*
Y4030001D01*
X2747994D01*
Y4030954D01*
X2750851D01*
Y4031906D01*
X2751803D01*
Y4030954D01*
X2752756D01*
Y4031906D01*
X2751803D01*
Y4032858D01*
X2752756D01*
Y4031906D01*
X2753708D01*
Y4032858D01*
X2756565D01*
Y4033811D01*
X2757517D01*
Y4032858D01*
X2758470D01*
Y4033811D01*
X2759422D01*
Y4034763D01*
X2760374D01*
Y4033811D01*
X2761327D01*
Y4034763D01*
X2764184D01*
Y4035715D01*
X2765136D01*
Y4034763D01*
X2766088D01*
Y4035715D01*
X2765136D01*
Y4036668D01*
X2766088D01*
Y4035715D01*
X2767041D01*
Y4036668D01*
X2767993D01*
Y4035715D01*
X2768945D01*
Y4036668D01*
X2771802D01*
Y4037620D01*
X2772755D01*
Y4036668D01*
X2773707D01*
Y4037620D01*
X2774659D01*
Y4036668D01*
X2775612D01*
Y4037620D01*
X2774659D01*
Y4038572D01*
X2775612D01*
Y4037620D01*
X2776564D01*
Y4038572D01*
X2777516D01*
Y4037620D01*
X2778469D01*
Y4038572D01*
X2781326D01*
Y4039525D01*
X2782278D01*
Y4038572D01*
X2783230D01*
Y4039525D01*
X2784183D01*
Y4040477D01*
X2785135D01*
Y4039525D01*
X2786087D01*
Y4038572D01*
X2787040D01*
Y4039525D01*
X2786087D01*
Y4040477D01*
X2787040D01*
Y4039525D01*
X2787992D01*
Y4040477D01*
X2792754D01*
Y4041429D01*
X2793706D01*
Y4040477D01*
X2794658D01*
Y4041429D01*
X2795611D01*
Y4040477D01*
X2796563D01*
Y4041429D01*
X2797515D01*
Y4042382D01*
X2798468D01*
Y4041429D01*
X2799420D01*
Y4042382D01*
X2800372D01*
Y4041429D01*
X2801325D01*
Y4042382D01*
X2807991D01*
Y4043334D01*
X2808943D01*
Y4042382D01*
X2809896D01*
Y4043334D01*
X2810848D01*
Y4042382D01*
X2811800D01*
Y4043334D01*
X2812753D01*
Y4042382D01*
X2813705D01*
Y4043334D01*
X2814657D01*
Y4044286D01*
X2815610D01*
Y4043334D01*
X2816562D01*
Y4044286D01*
X2817514D01*
Y4043334D01*
X2818467D01*
Y4044286D01*
X2819419D01*
Y4043334D01*
X2820371D01*
Y4044286D01*
X2821324D01*
Y4043334D01*
X2822276D01*
Y4044286D01*
X2855608D01*
Y4043334D01*
X2856560D01*
Y4044286D01*
X2857512D01*
Y4043334D01*
X2858465D01*
Y4044286D01*
X2859417D01*
Y4043334D01*
X2860369D01*
Y4044286D01*
X2861322D01*
Y4043334D01*
D02*
G37*
%LPC*%
G36*
X2967983Y4014764D02*
X2967030D01*
Y4013812D01*
X2967983D01*
Y4014764D01*
D02*
G37*
G36*
X2992743Y4001432D02*
X2991791D01*
Y4000479D01*
X2992743D01*
Y4001432D01*
D02*
G37*
G36*
X2830847Y3984289D02*
X2829895D01*
Y3983337D01*
X2830847D01*
Y3984289D01*
D02*
G37*
G36*
X2827038D02*
X2826085D01*
Y3983337D01*
X2827038D01*
Y3984289D01*
D02*
G37*
G36*
X2825133D02*
X2824181D01*
Y3983337D01*
X2825133D01*
Y3984289D01*
D02*
G37*
G36*
X2823228D02*
X2822276D01*
Y3983337D01*
X2823228D01*
Y3984289D01*
D02*
G37*
G36*
X2821324D02*
X2820371D01*
Y3983337D01*
X2821324D01*
Y3984289D01*
D02*
G37*
G36*
X2819419D02*
X2818467D01*
Y3983337D01*
X2819419D01*
Y3984289D01*
D02*
G37*
G36*
X2818467Y3983337D02*
X2817514D01*
Y3982385D01*
X2818467D01*
Y3983337D01*
D02*
G37*
G36*
X2816562D02*
X2815610D01*
Y3982385D01*
X2816562D01*
Y3981432D01*
X2817514D01*
Y3982385D01*
X2816562D01*
Y3983337D01*
D02*
G37*
G36*
X2814657D02*
X2813705D01*
Y3982385D01*
X2814657D01*
Y3981432D01*
X2815610D01*
Y3982385D01*
X2814657D01*
Y3983337D01*
D02*
G37*
G36*
X2812753D02*
X2811800D01*
Y3982385D01*
X2805134D01*
Y3981432D01*
X2804182D01*
Y3982385D01*
X2803229D01*
Y3981432D01*
X2802277D01*
Y3982385D01*
X2801325D01*
Y3981432D01*
X2802277D01*
Y3980480D01*
X2801325D01*
Y3981432D01*
X2800372D01*
Y3980480D01*
X2799420D01*
Y3981432D01*
X2798468D01*
Y3980480D01*
X2797515D01*
Y3981432D01*
X2796563D01*
Y3980480D01*
X2795611D01*
Y3979528D01*
X2794658D01*
Y3980480D01*
X2793706D01*
Y3979528D01*
X2792754D01*
Y3980480D01*
X2791801D01*
Y3979528D01*
X2792754D01*
Y3978575D01*
X2791801D01*
Y3979528D01*
X2790849D01*
Y3978575D01*
X2789897D01*
Y3979528D01*
X2788944D01*
Y3978575D01*
X2787992D01*
Y3979528D01*
X2787040D01*
Y3978575D01*
X2786087D01*
Y3977623D01*
X2785135D01*
Y3978575D01*
X2784183D01*
Y3977623D01*
X2783230D01*
Y3978575D01*
X2782278D01*
Y3977623D01*
X2783230D01*
Y3976671D01*
X2782278D01*
Y3977623D01*
X2781326D01*
Y3976671D01*
X2780373D01*
Y3977623D01*
X2779421D01*
Y3976671D01*
X2776564D01*
Y3975718D01*
X2775612D01*
Y3976671D01*
X2774659D01*
Y3975718D01*
X2773707D01*
Y3974766D01*
X2770850D01*
Y3973814D01*
X2769898D01*
Y3974766D01*
X2768945D01*
Y3973814D01*
X2767993D01*
Y3974766D01*
X2767041D01*
Y3973814D01*
X2767993D01*
Y3972861D01*
X2767041D01*
Y3973814D01*
X2766088D01*
Y3972861D01*
X2763231D01*
Y3971909D01*
X2762279D01*
Y3972861D01*
X2761327D01*
Y3971909D01*
X2762279D01*
Y3970957D01*
X2761327D01*
Y3971909D01*
X2760374D01*
Y3970957D01*
X2757517D01*
Y3970005D01*
X2756565D01*
Y3970957D01*
X2755613D01*
Y3970005D01*
X2756565D01*
Y3969052D01*
X2755613D01*
Y3970005D01*
X2754660D01*
Y3969052D01*
X2753708D01*
Y3968100D01*
X2752756D01*
Y3969052D01*
X2751803D01*
Y3968100D01*
X2750851D01*
Y3967148D01*
X2747994D01*
Y3966195D01*
X2747042D01*
Y3965243D01*
X2746089D01*
Y3966195D01*
X2745137D01*
Y3965243D01*
X2742280D01*
Y3964291D01*
X2743232D01*
Y3963338D01*
X2742280D01*
Y3964291D01*
X2741328D01*
Y3963338D01*
X2738471D01*
Y3962386D01*
X2737518D01*
Y3961434D01*
X2734661D01*
Y3960481D01*
X2733709D01*
Y3959529D01*
X2730852D01*
Y3958577D01*
X2729900D01*
Y3957624D01*
X2728947D01*
Y3958577D01*
X2727995D01*
Y3957624D01*
X2727043D01*
Y3956672D01*
X2726090D01*
Y3955720D01*
X2723233D01*
Y3954767D01*
X2722281D01*
Y3953815D01*
X2719424D01*
Y3952863D01*
X2718472D01*
Y3951910D01*
X2717519D01*
Y3950958D01*
X2714662D01*
Y3950006D01*
X2713710D01*
Y3949053D01*
X2712758D01*
Y3950006D01*
X2711805D01*
Y3949053D01*
X2712758D01*
Y3948101D01*
X2709901D01*
Y3947149D01*
X2708948D01*
Y3946196D01*
X2707996D01*
Y3945244D01*
X2707044D01*
Y3944292D01*
X2704187D01*
Y3943339D01*
X2703235D01*
Y3942387D01*
X2702282D01*
Y3941435D01*
X2701330D01*
Y3942387D01*
X2700378D01*
Y3941435D01*
X2701330D01*
Y3940482D01*
X2698473D01*
Y3939530D01*
X2697521D01*
Y3938578D01*
X2696568D01*
Y3937625D01*
X2695616D01*
Y3936673D01*
X2694664D01*
Y3935721D01*
X2692759D01*
Y3934768D01*
X2690854D01*
Y3933816D01*
X2689902D01*
Y3932864D01*
X2688950D01*
Y3931911D01*
X2687997D01*
Y3930959D01*
X2687045D01*
Y3930007D01*
X2686093D01*
Y3930959D01*
X2685140D01*
Y3930007D01*
X2686093D01*
Y3929054D01*
X2683235D01*
Y3928102D01*
X2684188D01*
Y3927150D01*
X2683235D01*
Y3928102D01*
X2682283D01*
Y3927150D01*
X2681331D01*
Y3926197D01*
X2682283D01*
Y3925245D01*
X2681331D01*
Y3926197D01*
X2680378D01*
Y3925245D01*
X2679426D01*
Y3924293D01*
X2678474D01*
Y3923340D01*
X2677521D01*
Y3922388D01*
X2676569D01*
Y3921436D01*
X2675617D01*
Y3920483D01*
X2674664D01*
Y3919531D01*
X2673712D01*
Y3918579D01*
X2672760D01*
Y3917626D01*
X2671807D01*
Y3916674D01*
X2670855D01*
Y3915722D01*
X2669903D01*
Y3914769D01*
X2668950D01*
Y3913817D01*
X2667998D01*
Y3912865D01*
X2667046D01*
Y3911912D01*
X2666093D01*
Y3910960D01*
X2665141D01*
Y3910008D01*
X2664189D01*
Y3909055D01*
X2663236D01*
Y3908103D01*
X2662284D01*
Y3907151D01*
X2661332D01*
Y3906198D01*
X2660380D01*
Y3905246D01*
X2659427D01*
Y3904294D01*
X2658475D01*
Y3903341D01*
X2657523D01*
Y3902389D01*
X2656570D01*
Y3901437D01*
X2655618D01*
Y3900484D01*
X2654666D01*
Y3899532D01*
X2655618D01*
Y3898580D01*
X2654666D01*
Y3899532D01*
X2653713D01*
Y3898580D01*
X2652761D01*
Y3897627D01*
X2653713D01*
Y3896675D01*
X2650856D01*
Y3895723D01*
X2651809D01*
Y3894770D01*
X2650856D01*
Y3893818D01*
X2649904D01*
Y3892866D01*
X2648952D01*
Y3891913D01*
X2647999D01*
Y3890961D01*
X2647047D01*
Y3890009D01*
Y3889056D01*
X2645142D01*
Y3888104D01*
X2646095D01*
Y3887152D01*
X2645142D01*
Y3886199D01*
X2644190D01*
Y3885247D01*
X2643238D01*
Y3884295D01*
X2642285D01*
Y3883342D01*
X2641333D01*
Y3882390D01*
X2642285D01*
Y3881438D01*
X2639428D01*
Y3880485D01*
X2640381D01*
Y3879533D01*
X2639428D01*
Y3878581D01*
X2638476D01*
Y3877628D01*
X2637524D01*
Y3876676D01*
Y3875724D01*
X2636571D01*
Y3874771D01*
Y3873819D01*
X2635619D01*
Y3872867D01*
X2634667D01*
Y3871914D01*
X2633714D01*
Y3870962D01*
X2632762D01*
Y3870010D01*
X2631810D01*
Y3869057D01*
X2632762D01*
Y3868105D01*
X2631810D01*
Y3867153D01*
X2630857D01*
Y3866200D01*
X2629905D01*
Y3865248D01*
X2630857D01*
Y3864296D01*
X2629905D01*
Y3863343D01*
X2628953D01*
Y3862391D01*
X2628000D01*
Y3861439D01*
X2628953D01*
Y3860486D01*
X2628000D01*
Y3859534D01*
X2627048D01*
Y3858582D01*
X2626096D01*
Y3857629D01*
Y3856677D01*
X2625143D01*
Y3855725D01*
Y3854772D01*
X2624191D01*
Y3853820D01*
X2625143D01*
Y3852868D01*
X2624191D01*
Y3853820D01*
X2623239D01*
Y3852868D01*
Y3851915D01*
Y3850963D01*
X2622286D01*
Y3850011D01*
Y3849058D01*
X2621334D01*
Y3848106D01*
Y3847154D01*
X2620382D01*
Y3846201D01*
X2621334D01*
Y3845249D01*
X2619429D01*
Y3844297D01*
Y3843344D01*
X2618477D01*
Y3842392D01*
Y3841440D01*
Y3840487D01*
X2617525D01*
Y3839535D01*
X2616572D01*
Y3838583D01*
X2617525D01*
Y3837630D01*
X2616572D01*
Y3836678D01*
X2615620D01*
Y3835726D01*
X2614668D01*
Y3834773D01*
X2615620D01*
Y3833821D01*
X2614668D01*
Y3832869D01*
X2613715D01*
Y3831916D01*
X2612763D01*
Y3830964D01*
X2613715D01*
Y3830012D01*
X2612763D01*
Y3829059D01*
X2613715D01*
Y3828107D01*
X2612763D01*
Y3827155D01*
X2611811D01*
Y3826202D01*
X2610858D01*
Y3825250D01*
X2611811D01*
Y3824298D01*
X2610858D01*
Y3823345D01*
X2611811D01*
Y3822393D01*
X2610858D01*
Y3821441D01*
X2609906D01*
Y3820488D01*
X2608954D01*
Y3819536D01*
X2609906D01*
Y3818584D01*
X2608954D01*
Y3817631D01*
Y3816679D01*
Y3815727D01*
X2608001D01*
Y3814774D01*
X2607049D01*
Y3813822D01*
X2608001D01*
Y3812870D01*
X2607049D01*
Y3811918D01*
X2608001D01*
Y3810965D01*
X2607049D01*
Y3810013D01*
X2606097D01*
Y3809061D01*
X2605144D01*
Y3808108D01*
X2606097D01*
Y3807156D01*
X2605144D01*
Y3806204D01*
X2606097D01*
Y3805251D01*
X2605144D01*
Y3804299D01*
X2606097D01*
Y3803347D01*
X2605144D01*
Y3802394D01*
X2604192D01*
Y3801442D01*
Y3800490D01*
Y3799537D01*
X2603240D01*
Y3798585D01*
X2604192D01*
Y3797633D01*
X2603240D01*
Y3796680D01*
Y3795728D01*
Y3794776D01*
X2602287D01*
Y3793823D01*
X2601335D01*
Y3792871D01*
X2602287D01*
Y3791919D01*
Y3790966D01*
Y3790014D01*
X2601335D01*
Y3789061D01*
X2602287D01*
Y3788109D01*
X2601335D01*
Y3787157D01*
Y3786204D01*
Y3785252D01*
X2602287D01*
Y3784300D01*
X2601335D01*
Y3785252D01*
X2600383D01*
Y3784300D01*
X2601335D01*
Y3783347D01*
X2600383D01*
Y3782395D01*
Y3781443D01*
Y3780490D01*
X2599430D01*
Y3779538D01*
X2600383D01*
Y3778586D01*
X2599430D01*
Y3777633D01*
X2600383D01*
Y3776681D01*
X2599430D01*
Y3775729D01*
X2600383D01*
Y3774776D01*
X2599430D01*
Y3773824D01*
Y3772872D01*
Y3771919D01*
X2598478D01*
Y3770967D01*
X2597526D01*
Y3770015D01*
X2598478D01*
Y3769062D01*
Y3768110D01*
Y3767158D01*
X2597526D01*
Y3766206D01*
X2598478D01*
Y3765253D01*
Y3764301D01*
Y3763349D01*
X2597526D01*
Y3762396D01*
X2598478D01*
Y3761444D01*
X2597526D01*
Y3760492D01*
X2598478D01*
Y3759539D01*
X2597526D01*
Y3758587D01*
X2598478D01*
Y3757635D01*
X2597526D01*
Y3756682D01*
X2598478D01*
Y3755730D01*
X2597526D01*
Y3754778D01*
X2598478D01*
Y3753825D01*
X2597526D01*
Y3752873D01*
Y3751921D01*
Y3750968D01*
X2598478D01*
Y3750016D01*
X2597526D01*
Y3749064D01*
Y3748111D01*
Y3747159D01*
X2598478D01*
Y3746207D01*
X2597526D01*
Y3745254D01*
Y3744302D01*
Y3743350D01*
Y3742397D01*
Y3741445D01*
Y3740493D01*
Y3739540D01*
X2598478D01*
Y3738588D01*
X2597526D01*
Y3737636D01*
Y3736683D01*
Y3735731D01*
X2598478D01*
Y3734779D01*
X2597526D01*
Y3733826D01*
Y3732874D01*
Y3731922D01*
X2598478D01*
Y3730969D01*
X2597526D01*
Y3730017D01*
X2598478D01*
Y3729065D01*
X2597526D01*
Y3728112D01*
X2598478D01*
Y3727160D01*
X2597526D01*
Y3726208D01*
X2598478D01*
Y3725255D01*
X2597526D01*
Y3724303D01*
X2598478D01*
Y3723351D01*
X2597526D01*
Y3722398D01*
X2598478D01*
Y3721446D01*
X2597526D01*
Y3720494D01*
X2598478D01*
Y3719541D01*
Y3718589D01*
Y3717637D01*
X2597526D01*
Y3716684D01*
X2598478D01*
Y3715732D01*
X2599430D01*
Y3714780D01*
X2598478D01*
Y3713827D01*
X2599430D01*
Y3712875D01*
Y3711923D01*
Y3710970D01*
X2600383D01*
Y3710018D01*
X2599430D01*
Y3709066D01*
X2600383D01*
Y3708113D01*
X2599430D01*
Y3707161D01*
X2600383D01*
Y3706209D01*
Y3705256D01*
Y3704304D01*
Y3703352D01*
Y3702399D01*
X2601335D01*
Y3701447D01*
X2602287D01*
Y3700495D01*
X2601335D01*
Y3699542D01*
X2602287D01*
Y3698590D01*
X2601335D01*
Y3697638D01*
X2602287D01*
Y3696685D01*
X2601335D01*
Y3695733D01*
X2602287D01*
Y3694781D01*
X2601335D01*
Y3693828D01*
X2602287D01*
Y3692876D01*
X2603240D01*
Y3691924D01*
X2604192D01*
Y3690971D01*
X2603240D01*
Y3690019D01*
X2604192D01*
Y3689067D01*
X2603240D01*
Y3688114D01*
X2604192D01*
Y3687162D01*
X2603240D01*
Y3686210D01*
X2604192D01*
Y3685257D01*
X2605144D01*
Y3684305D01*
X2604192D01*
Y3683353D01*
X2605144D01*
Y3682400D01*
X2606097D01*
Y3681448D01*
X2605144D01*
Y3680496D01*
X2606097D01*
Y3679543D01*
X2605144D01*
Y3678591D01*
X2606097D01*
Y3677639D01*
X2607049D01*
Y3676686D01*
X2608001D01*
Y3675734D01*
X2607049D01*
Y3674782D01*
X2608001D01*
Y3673829D01*
X2607049D01*
Y3672877D01*
X2608001D01*
Y3671925D01*
X2608954D01*
Y3670972D01*
X2609906D01*
Y3670020D01*
X2608954D01*
Y3670972D01*
X2608001D01*
Y3670020D01*
X2608954D01*
Y3669068D01*
X2609906D01*
Y3668115D01*
X2608954D01*
Y3667163D01*
X2609906D01*
Y3666211D01*
X2610858D01*
Y3665258D01*
X2609906D01*
Y3664306D01*
X2610858D01*
Y3663354D01*
X2611811D01*
Y3662401D01*
X2610858D01*
Y3661449D01*
X2611811D01*
Y3660497D01*
X2612763D01*
Y3659544D01*
X2613715D01*
Y3658592D01*
X2612763D01*
Y3657640D01*
X2613715D01*
Y3656687D01*
X2612763D01*
Y3655735D01*
X2613715D01*
Y3654783D01*
X2614668D01*
Y3653830D01*
X2615620D01*
Y3652878D01*
X2614668D01*
Y3651926D01*
X2615620D01*
Y3650973D01*
X2616572D01*
Y3650021D01*
Y3649069D01*
Y3648116D01*
X2617525D01*
Y3647164D01*
Y3646212D01*
Y3645259D01*
X2618477D01*
Y3644307D01*
X2619429D01*
Y3643355D01*
X2618477D01*
Y3642402D01*
X2619429D01*
Y3641450D01*
X2620382D01*
Y3640498D01*
X2621334D01*
Y3639545D01*
X2620382D01*
Y3638593D01*
X2621334D01*
Y3637641D01*
X2622286D01*
Y3636688D01*
X2623239D01*
Y3635736D01*
X2622286D01*
Y3634784D01*
X2623239D01*
Y3633831D01*
X2624191D01*
Y3632879D01*
X2625143D01*
Y3631927D01*
X2624191D01*
Y3630974D01*
X2625143D01*
Y3630022D01*
X2626096D01*
Y3629070D01*
X2627048D01*
Y3628117D01*
X2626096D01*
Y3627165D01*
X2627048D01*
Y3626213D01*
X2628000D01*
Y3625260D01*
X2628953D01*
Y3624308D01*
X2629905D01*
Y3623356D01*
X2630857D01*
Y3622403D01*
X2629905D01*
Y3623356D01*
X2628953D01*
Y3622403D01*
X2629905D01*
Y3621451D01*
X2630857D01*
Y3620499D01*
X2631810D01*
Y3619546D01*
X2632762D01*
Y3618594D01*
X2631810D01*
Y3617642D01*
X2632762D01*
Y3616689D01*
X2633714D01*
Y3615737D01*
X2634667D01*
Y3614785D01*
X2635619D01*
Y3613832D01*
X2636571D01*
Y3612880D01*
X2635619D01*
Y3611928D01*
X2636571D01*
Y3610975D01*
X2637524D01*
Y3610023D01*
X2638476D01*
Y3609071D01*
X2637524D01*
Y3608118D01*
X2639428D01*
Y3607166D01*
Y3606214D01*
X2640381D01*
Y3605261D01*
X2641333D01*
Y3604309D01*
X2642285D01*
Y3603357D01*
X2643238D01*
Y3602404D01*
X2644190D01*
Y3601452D01*
X2643238D01*
Y3600500D01*
X2644190D01*
Y3599548D01*
X2645142D01*
Y3598595D01*
X2646095D01*
Y3597643D01*
X2647047D01*
Y3596691D01*
X2647999D01*
Y3595738D01*
X2648952D01*
Y3594786D01*
X2649904D01*
Y3593834D01*
X2648952D01*
Y3592881D01*
X2650856D01*
Y3591929D01*
Y3590977D01*
X2651809D01*
Y3590024D01*
X2652761D01*
Y3589072D01*
X2653713D01*
Y3588119D01*
X2654666D01*
Y3587167D01*
X2655618D01*
Y3586215D01*
X2656570D01*
Y3585262D01*
X2657523D01*
Y3584310D01*
X2658475D01*
Y3583358D01*
X2659427D01*
Y3582405D01*
X2660380D01*
Y3581453D01*
X2661332D01*
Y3580501D01*
X2660380D01*
Y3579548D01*
X2663236D01*
Y3578596D01*
Y3577644D01*
X2665141D01*
Y3576691D01*
X2664189D01*
Y3575739D01*
X2667046D01*
Y3574787D01*
X2666093D01*
Y3573834D01*
X2667046D01*
Y3572882D01*
X2667998D01*
Y3571930D01*
X2670855D01*
Y3570977D01*
X2669903D01*
Y3570025D01*
X2672760D01*
Y3569073D01*
X2671807D01*
Y3568120D01*
X2674664D01*
Y3567168D01*
X2675617D01*
Y3566216D01*
X2676569D01*
Y3565264D01*
X2677521D01*
Y3564311D01*
X2678474D01*
Y3563359D01*
X2679426D01*
Y3562407D01*
X2680378D01*
Y3561454D01*
X2681331D01*
Y3560502D01*
X2682283D01*
Y3559550D01*
X2683235D01*
Y3558597D01*
X2684188D01*
Y3557645D01*
X2685140D01*
Y3556693D01*
X2687997D01*
Y3555740D01*
X2687045D01*
Y3554788D01*
X2689902D01*
Y3553836D01*
X2690854D01*
Y3552883D01*
X2691807D01*
Y3551931D01*
X2692759D01*
Y3550979D01*
X2693711D01*
Y3550026D01*
X2694664D01*
Y3549074D01*
X2697521D01*
Y3548122D01*
X2698473D01*
Y3547169D01*
X2699425D01*
Y3546217D01*
X2700378D01*
Y3545265D01*
X2703235D01*
Y3544312D01*
X2704187D01*
Y3543360D01*
X2705139D01*
Y3542407D01*
X2706091D01*
Y3541455D01*
X2708948D01*
Y3540503D01*
X2709901D01*
Y3539550D01*
X2710853D01*
Y3538598D01*
X2711805D01*
Y3537646D01*
X2714662D01*
Y3536694D01*
X2715615D01*
Y3535741D01*
X2716567D01*
Y3534789D01*
X2717519D01*
Y3535741D01*
X2718472D01*
Y3534789D01*
X2719424D01*
Y3533837D01*
X2720376D01*
Y3532884D01*
X2721329D01*
Y3531932D01*
X2724186D01*
Y3530980D01*
X2725138D01*
Y3530027D01*
X2727995D01*
Y3529075D01*
X2728947D01*
Y3528123D01*
X2731804D01*
Y3527170D01*
X2732757D01*
Y3526218D01*
X2735614D01*
Y3525266D01*
X2736566D01*
Y3524313D01*
X2737518D01*
Y3525266D01*
X2738471D01*
Y3524313D01*
X2739423D01*
Y3523361D01*
X2740375D01*
Y3522409D01*
X2741328D01*
Y3523361D01*
X2740375D01*
Y3524313D01*
X2741328D01*
Y3523361D01*
X2742280D01*
Y3522409D01*
X2745137D01*
Y3521456D01*
X2746089D01*
Y3520504D01*
X2748946D01*
Y3519552D01*
X2749899D01*
Y3518599D01*
X2752756D01*
Y3517647D01*
X2753708D01*
Y3518599D01*
X2754660D01*
Y3517647D01*
X2755613D01*
Y3516695D01*
X2758470D01*
Y3515742D01*
X2759422D01*
Y3516695D01*
X2760374D01*
Y3515742D01*
X2761327D01*
Y3514790D01*
X2764184D01*
Y3513838D01*
X2765136D01*
Y3514790D01*
X2766088D01*
Y3513838D01*
X2767041D01*
Y3512885D01*
X2769898D01*
Y3511933D01*
X2770850D01*
Y3512885D01*
X2771802D01*
Y3511933D01*
X2772755D01*
Y3510981D01*
X2773707D01*
Y3511933D01*
X2774659D01*
Y3510981D01*
X2777516D01*
Y3510028D01*
X2778469D01*
Y3509076D01*
X2779421D01*
Y3510028D01*
X2778469D01*
Y3510981D01*
X2779421D01*
Y3510028D01*
X2780373D01*
Y3509076D01*
X2781326D01*
Y3510028D01*
X2782278D01*
Y3509076D01*
X2785135D01*
Y3508124D01*
X2786087D01*
Y3509076D01*
X2787040D01*
Y3508124D01*
X2787992D01*
Y3507171D01*
X2788944D01*
Y3508124D01*
X2789897D01*
Y3507171D01*
X2790849D01*
Y3508124D01*
X2791801D01*
Y3507171D01*
X2794658D01*
Y3506219D01*
X2795611D01*
Y3507171D01*
X2796563D01*
Y3506219D01*
X2797515D01*
Y3505267D01*
X2798468D01*
Y3506219D01*
X2797515D01*
Y3507171D01*
X2798468D01*
Y3506219D01*
X2799420D01*
Y3505267D01*
X2800372D01*
Y3506219D01*
X2801325D01*
Y3505267D01*
X2807991D01*
Y3504314D01*
X2808943D01*
Y3505267D01*
X2809896D01*
Y3504314D01*
X2810848D01*
Y3503362D01*
X2811800D01*
Y3504314D01*
X2810848D01*
Y3505267D01*
X2811800D01*
Y3504314D01*
X2812753D01*
Y3503362D01*
X2813705D01*
Y3504314D01*
X2812753D01*
Y3505267D01*
X2813705D01*
Y3504314D01*
X2814657D01*
Y3503362D01*
X2815610D01*
Y3504314D01*
X2816562D01*
Y3503362D01*
X2817514D01*
Y3504314D01*
X2818467D01*
Y3503362D01*
X2828942D01*
Y3502410D01*
X2829895D01*
Y3503362D01*
X2832752D01*
Y3502410D01*
X2833704D01*
Y3503362D01*
X2834656D01*
Y3502410D01*
X2835609D01*
Y3503362D01*
X2836561D01*
Y3502410D01*
X2837513D01*
Y3503362D01*
X2838466D01*
Y3502410D01*
X2839418D01*
Y3503362D01*
X2840370D01*
Y3502410D01*
X2841323D01*
Y3503362D01*
X2842275D01*
Y3502410D01*
X2843227D01*
Y3503362D01*
X2844180D01*
Y3502410D01*
X2845132D01*
Y3503362D01*
X2851798D01*
Y3504314D01*
X2852751D01*
Y3503362D01*
X2853703D01*
Y3504314D01*
X2854655D01*
Y3503362D01*
X2855608D01*
Y3504314D01*
X2856560D01*
Y3503362D01*
X2857512D01*
Y3504314D01*
X2856560D01*
Y3505267D01*
X2857512D01*
Y3504314D01*
X2858465D01*
Y3505267D01*
X2859417D01*
Y3504314D01*
X2860369D01*
Y3505267D01*
X2863226D01*
Y3506219D01*
X2864179D01*
Y3505267D01*
X2865131D01*
Y3506219D01*
X2866083D01*
Y3505267D01*
X2867035D01*
Y3506219D01*
X2866083D01*
Y3507171D01*
X2867035D01*
Y3506219D01*
X2867988D01*
Y3507171D01*
X2870845D01*
Y3508124D01*
X2871797D01*
Y3507171D01*
X2872749D01*
Y3508124D01*
X2873702D01*
Y3509076D01*
X2876559D01*
Y3510028D01*
X2877511D01*
Y3509076D01*
X2878463D01*
Y3510028D01*
X2879416D01*
Y3510981D01*
X2882273D01*
Y3511933D01*
X2883225D01*
Y3510981D01*
X2884177D01*
Y3511933D01*
X2885130D01*
Y3512885D01*
X2887987D01*
Y3513838D01*
X2887035D01*
Y3514790D01*
X2887987D01*
Y3513838D01*
X2888939D01*
Y3514790D01*
X2891796D01*
Y3515742D01*
X2892749D01*
Y3516695D01*
X2895606D01*
Y3517647D01*
X2894653D01*
Y3518599D01*
X2895606D01*
Y3517647D01*
X2896558D01*
Y3518599D01*
X2897510D01*
Y3519552D01*
X2898463D01*
Y3518599D01*
X2899415D01*
Y3519552D01*
X2900367D01*
Y3520504D01*
X2901320D01*
Y3521456D01*
X2902272D01*
Y3522409D01*
X2905129D01*
Y3523361D01*
X2906081D01*
Y3524313D01*
X2907034D01*
Y3525266D01*
X2907986D01*
Y3526218D01*
X2910843D01*
Y3527170D01*
X2911795D01*
Y3528123D01*
X2912747D01*
Y3529075D01*
X2913700D01*
Y3530027D01*
X2914652D01*
Y3530980D01*
X2915604D01*
Y3531932D01*
X2916557D01*
Y3532884D01*
X2917509D01*
Y3533837D01*
X2919414D01*
Y3534789D01*
Y3535741D01*
X2921318D01*
Y3536694D01*
Y3537646D01*
X2923223D01*
Y3538598D01*
Y3539550D01*
X2925128D01*
Y3540503D01*
Y3541455D01*
X2927032D01*
Y3542407D01*
Y3543360D01*
X2927985D01*
Y3544312D01*
X2928937D01*
Y3545265D01*
X2929890D01*
Y3546217D01*
X2930842D01*
Y3547169D01*
X2931794D01*
Y3548122D01*
X2932746D01*
Y3549074D01*
X2933699D01*
Y3550026D01*
X2934651D01*
Y3550979D01*
X2935603D01*
Y3551931D01*
X2934651D01*
Y3552883D01*
X2935603D01*
Y3553836D01*
X2936556D01*
Y3554788D01*
X2937508D01*
Y3555740D01*
X2936556D01*
Y3556693D01*
X2937508D01*
Y3555740D01*
X2938460D01*
Y3556693D01*
X2939413D01*
Y3557645D01*
X2938460D01*
Y3558597D01*
X2939413D01*
Y3559550D01*
X2940365D01*
Y3560502D01*
X2941317D01*
Y3561454D01*
X2942270D01*
Y3562407D01*
Y3563359D01*
Y3564311D01*
X2943222D01*
Y3565264D01*
X2944174D01*
Y3566216D01*
Y3567168D01*
Y3568120D01*
X2945127D01*
Y3569073D01*
X2946079D01*
Y3570025D01*
X2947031D01*
Y3570977D01*
X2946079D01*
Y3571930D01*
X2947031D01*
Y3572882D01*
X2947984D01*
Y3573834D01*
Y3574787D01*
Y3575739D01*
X2948936D01*
Y3576691D01*
X2949888D01*
Y3577644D01*
X2948936D01*
Y3578596D01*
X2949888D01*
Y3579548D01*
X2950841D01*
Y3580501D01*
X2949888D01*
Y3581453D01*
X2950841D01*
Y3582405D01*
X2951793D01*
Y3583358D01*
X2952745D01*
Y3584310D01*
X2951793D01*
Y3585262D01*
X2952745D01*
Y3586215D01*
X2951793D01*
Y3587167D01*
X2952745D01*
Y3588119D01*
X2953698D01*
Y3589072D01*
X2952745D01*
Y3590024D01*
X2953698D01*
Y3589072D01*
X2954650D01*
Y3590024D01*
X2953698D01*
Y3590977D01*
X2954650D01*
Y3591929D01*
X2953698D01*
Y3592881D01*
X2954650D01*
Y3593834D01*
X2953698D01*
Y3594786D01*
X2954650D01*
Y3595738D01*
X2955602D01*
Y3596691D01*
Y3597643D01*
Y3598595D01*
X2956555D01*
Y3599548D01*
X2955602D01*
Y3600500D01*
X2956555D01*
Y3601452D01*
X2955602D01*
Y3602404D01*
X2956555D01*
Y3603357D01*
X2957507D01*
Y3604309D01*
X2956555D01*
Y3605261D01*
X2955602D01*
Y3606214D01*
X2956555D01*
Y3605261D01*
X2957507D01*
Y3606214D01*
Y3607166D01*
Y3608118D01*
Y3609071D01*
Y3610023D01*
X2958459D01*
Y3610975D01*
X2957507D01*
Y3611928D01*
X2958459D01*
Y3612880D01*
X2957507D01*
Y3613832D01*
X2958459D01*
Y3614785D01*
X2957507D01*
Y3615737D01*
X2958459D01*
Y3616689D01*
X2957507D01*
Y3617642D01*
X2958459D01*
Y3618594D01*
X2957507D01*
Y3619546D01*
X2958459D01*
Y3620499D01*
X2957507D01*
Y3621451D01*
X2958459D01*
Y3622403D01*
X2957507D01*
Y3623356D01*
X2958459D01*
Y3624308D01*
X2957507D01*
Y3625260D01*
X2958459D01*
Y3626213D01*
X2957507D01*
Y3627165D01*
X2958459D01*
Y3628117D01*
X2957507D01*
Y3629070D01*
X2958459D01*
Y3630022D01*
X2957507D01*
Y3630974D01*
X2958459D01*
Y3631927D01*
X2957507D01*
Y3632879D01*
X2958459D01*
Y3633831D01*
X2957507D01*
Y3634784D01*
X2958459D01*
Y3635736D01*
X2957507D01*
Y3636688D01*
Y3637641D01*
Y3638593D01*
X2956555D01*
Y3639545D01*
X2957507D01*
Y3640498D01*
X2956555D01*
Y3641450D01*
X2957507D01*
Y3642402D01*
X2956555D01*
Y3643355D01*
X2955602D01*
Y3644307D01*
X2956555D01*
Y3645259D01*
X2955602D01*
Y3646212D01*
X2956555D01*
Y3647164D01*
X2955602D01*
Y3648116D01*
X2956555D01*
Y3649069D01*
X2955602D01*
Y3650021D01*
X2954650D01*
Y3650973D01*
X2955602D01*
Y3651926D01*
X2954650D01*
Y3652878D01*
X2953698D01*
Y3653830D01*
X2954650D01*
Y3654783D01*
X2953698D01*
Y3655735D01*
X2954650D01*
Y3656687D01*
X2953698D01*
Y3657640D01*
X2952745D01*
Y3658592D01*
X2951793D01*
Y3659544D01*
X2952745D01*
Y3660497D01*
X2951793D01*
Y3661449D01*
X2952745D01*
Y3662401D01*
X2951793D01*
Y3663354D01*
X2950841D01*
Y3664306D01*
X2949888D01*
Y3665258D01*
X2950841D01*
Y3666211D01*
X2949888D01*
Y3667163D01*
X2950841D01*
Y3668115D01*
X2949888D01*
Y3669068D01*
X2948936D01*
Y3670020D01*
X2947984D01*
Y3670972D01*
X2948936D01*
Y3671925D01*
X2947984D01*
Y3672877D01*
X2947031D01*
Y3673829D01*
X2946079D01*
Y3674782D01*
X2947031D01*
Y3675734D01*
X2946079D01*
Y3676686D01*
X2945127D01*
Y3677639D01*
X2944174D01*
Y3678591D01*
X2945127D01*
Y3679543D01*
X2944174D01*
Y3680496D01*
X2943222D01*
Y3681448D01*
X2942270D01*
Y3682400D01*
X2943222D01*
Y3683353D01*
X2942270D01*
Y3684305D01*
X2941317D01*
Y3685257D01*
X2940365D01*
Y3686210D01*
X2941317D01*
Y3687162D01*
X2939413D01*
Y3688114D01*
Y3689067D01*
X2938460D01*
Y3690019D01*
X2937508D01*
Y3690971D01*
X2936556D01*
Y3691924D01*
Y3692876D01*
X2935603D01*
Y3693828D01*
Y3694781D01*
X2934651D01*
Y3695733D01*
X2933699D01*
Y3696685D01*
X2932746D01*
Y3697638D01*
X2931794D01*
Y3698590D01*
X2930842D01*
Y3699542D01*
X2929890D01*
Y3700495D01*
X2928937D01*
Y3701447D01*
X2929890D01*
Y3702399D01*
X2927032D01*
Y3703352D01*
X2927985D01*
Y3704304D01*
X2925128D01*
Y3705256D01*
X2926080D01*
Y3706209D01*
X2924175D01*
Y3707161D01*
Y3708113D01*
X2921318D01*
Y3709066D01*
X2922271D01*
Y3710018D01*
X2921318D01*
Y3710970D01*
X2920366D01*
Y3711923D01*
X2917509D01*
Y3712875D01*
X2918461D01*
Y3713827D01*
X2915604D01*
Y3714780D01*
X2914652D01*
Y3715732D01*
X2913700D01*
Y3716684D01*
X2912747D01*
Y3717637D01*
X2911795D01*
Y3718589D01*
X2910843D01*
Y3719541D01*
X2909890D01*
Y3720494D01*
X2908938D01*
Y3721446D01*
X2906081D01*
Y3722398D01*
X2905129D01*
Y3723351D01*
X2904177D01*
Y3724303D01*
X2903224D01*
Y3725255D01*
X2900367D01*
Y3726208D01*
X2899415D01*
Y3727160D01*
X2896558D01*
Y3728112D01*
X2895606D01*
Y3729065D01*
X2894653D01*
Y3730017D01*
X2893701D01*
Y3730969D01*
X2892749D01*
Y3730017D01*
X2893701D01*
Y3729065D01*
X2892749D01*
Y3730017D01*
X2891796D01*
Y3730969D01*
X2890844D01*
Y3731922D01*
X2889892D01*
Y3732874D01*
X2888939D01*
Y3731922D01*
X2889892D01*
Y3730969D01*
X2888939D01*
Y3731922D01*
X2887987D01*
Y3732874D01*
X2887035D01*
Y3733826D01*
X2886082D01*
Y3734779D01*
X2885130D01*
Y3733826D01*
X2886082D01*
Y3732874D01*
X2885130D01*
Y3733826D01*
X2884177D01*
Y3734779D01*
X2881320D01*
Y3735731D01*
X2880368D01*
Y3736683D01*
X2879416D01*
Y3735731D01*
X2880368D01*
Y3734779D01*
X2879416D01*
Y3735731D01*
X2878463D01*
Y3736683D01*
X2877511D01*
Y3737636D01*
X2876559D01*
Y3736683D01*
X2875606D01*
Y3737636D01*
X2874654D01*
Y3738588D01*
X2873702D01*
Y3737636D01*
X2872749D01*
Y3738588D01*
X2869892D01*
Y3739540D01*
X2868940D01*
Y3740493D01*
X2867988D01*
Y3739540D01*
X2868940D01*
Y3738588D01*
X2867988D01*
Y3739540D01*
X2867035D01*
Y3740493D01*
X2862274D01*
Y3741445D01*
X2859417D01*
Y3742397D01*
X2858465D01*
Y3741445D01*
X2857512D01*
Y3742397D01*
X2848941D01*
Y3743350D01*
X2847989D01*
Y3742397D01*
X2847037D01*
Y3743350D01*
X2846084D01*
Y3744302D01*
X2845132D01*
Y3743350D01*
X2846084D01*
Y3742397D01*
X2845132D01*
Y3743350D01*
X2844180D01*
Y3744302D01*
X2843227D01*
Y3743350D01*
X2842275D01*
Y3744302D01*
X2841323D01*
Y3743350D01*
X2842275D01*
Y3742397D01*
X2841323D01*
Y3743350D01*
X2840370D01*
Y3744302D01*
X2839418D01*
Y3743350D01*
X2838466D01*
Y3744302D01*
X2837513D01*
Y3743350D01*
X2836561D01*
Y3744302D01*
X2835609D01*
Y3743350D01*
X2834656D01*
Y3744302D01*
X2833704D01*
Y3743350D01*
X2832752D01*
Y3744302D01*
X2831799D01*
Y3743350D01*
X2830847D01*
Y3744302D01*
X2829895D01*
Y3743350D01*
X2828942D01*
Y3744302D01*
X2820371D01*
Y3745254D01*
X2819419D01*
Y3744302D01*
X2818467D01*
Y3745254D01*
X2817514D01*
Y3746207D01*
X2816562D01*
Y3745254D01*
X2817514D01*
Y3744302D01*
X2816562D01*
Y3745254D01*
X2815610D01*
Y3746207D01*
X2814657D01*
Y3745254D01*
X2813705D01*
Y3746207D01*
X2810848D01*
Y3747159D01*
X2809896D01*
Y3746207D01*
X2808943D01*
Y3747159D01*
X2807991D01*
Y3748111D01*
X2807039D01*
Y3747159D01*
X2806086D01*
Y3748111D01*
X2803229D01*
Y3749064D01*
X2802277D01*
Y3750016D01*
X2801325D01*
Y3749064D01*
X2802277D01*
Y3748111D01*
X2801325D01*
Y3749064D01*
X2800372D01*
Y3750016D01*
X2797515D01*
Y3750968D01*
X2796563D01*
Y3751921D01*
X2795611D01*
Y3750968D01*
X2796563D01*
Y3750016D01*
X2795611D01*
Y3750968D01*
X2794658D01*
Y3751921D01*
X2793706D01*
Y3752873D01*
X2792754D01*
Y3751921D01*
X2791801D01*
Y3752873D01*
X2790849D01*
Y3753825D01*
X2787992D01*
Y3754778D01*
X2787040D01*
Y3755730D01*
X2784183D01*
Y3756682D01*
X2783230D01*
Y3757635D01*
X2780373D01*
Y3758587D01*
X2779421D01*
Y3759539D01*
X2776564D01*
Y3760492D01*
X2775612D01*
Y3761444D01*
X2772755D01*
Y3762396D01*
X2771802D01*
Y3763349D01*
X2770850D01*
Y3764301D01*
X2769898D01*
Y3765253D01*
X2768945D01*
Y3766206D01*
X2767993D01*
Y3767158D01*
X2765136D01*
Y3768110D01*
X2764184D01*
Y3769062D01*
X2763231D01*
Y3770015D01*
X2762279D01*
Y3770967D01*
X2761327D01*
Y3771919D01*
X2760374D01*
Y3772872D01*
X2757517D01*
Y3773824D01*
X2758470D01*
Y3774776D01*
X2755613D01*
Y3775729D01*
X2756565D01*
Y3776681D01*
X2753708D01*
Y3777633D01*
X2754660D01*
Y3778586D01*
X2751803D01*
Y3779538D01*
X2752756D01*
Y3780490D01*
X2749899D01*
Y3781443D01*
X2750851D01*
Y3782395D01*
X2747994D01*
Y3783347D01*
X2748946D01*
Y3784300D01*
X2746089D01*
Y3785252D01*
X2747042D01*
Y3786204D01*
X2746089D01*
Y3787157D01*
X2745137D01*
Y3788109D01*
X2744185D01*
Y3789061D01*
X2743232D01*
Y3790014D01*
X2742280D01*
Y3790966D01*
X2741328D01*
Y3791919D01*
X2740375D01*
Y3792871D01*
X2741328D01*
Y3793823D01*
X2740375D01*
Y3794776D01*
X2739423D01*
Y3795728D01*
X2738471D01*
Y3796680D01*
X2737518D01*
Y3797633D01*
X2736566D01*
Y3798585D01*
X2737518D01*
Y3799537D01*
X2735614D01*
Y3800490D01*
Y3801442D01*
X2734661D01*
Y3802394D01*
X2733709D01*
Y3803347D01*
Y3804299D01*
Y3805251D01*
X2732757D01*
Y3806204D01*
X2731804D01*
Y3807156D01*
X2730852D01*
Y3808108D01*
X2731804D01*
Y3809061D01*
X2730852D01*
Y3810013D01*
X2729900D01*
Y3810965D01*
X2728947D01*
Y3811918D01*
X2729900D01*
Y3812870D01*
X2728947D01*
Y3813822D01*
X2727995D01*
Y3814774D01*
X2727043D01*
Y3815727D01*
X2727995D01*
Y3816679D01*
X2727043D01*
Y3817631D01*
Y3818584D01*
Y3819536D01*
X2726090D01*
Y3820488D01*
X2725138D01*
Y3821441D01*
X2726090D01*
Y3822393D01*
X2725138D01*
Y3823345D01*
X2724186D01*
Y3824298D01*
Y3825250D01*
Y3826202D01*
X2723233D01*
Y3827155D01*
X2724186D01*
Y3828107D01*
X2723233D01*
Y3829059D01*
X2722281D01*
Y3830012D01*
Y3830964D01*
Y3831916D01*
X2721329D01*
Y3832869D01*
X2722281D01*
Y3833821D01*
X2721329D01*
Y3834773D01*
Y3835726D01*
Y3836678D01*
X2720376D01*
Y3837630D01*
X2719424D01*
Y3838583D01*
X2720376D01*
Y3839535D01*
X2719424D01*
Y3840487D01*
X2720376D01*
Y3841440D01*
X2719424D01*
Y3842392D01*
X2720376D01*
Y3843344D01*
X2719424D01*
Y3844297D01*
Y3845249D01*
Y3846201D01*
X2718472D01*
Y3847154D01*
Y3848106D01*
Y3849058D01*
Y3850011D01*
Y3850963D01*
X2717519D01*
Y3851915D01*
X2718472D01*
Y3852868D01*
X2717519D01*
Y3853820D01*
X2718472D01*
Y3854772D01*
X2717519D01*
Y3855725D01*
X2718472D01*
Y3856677D01*
X2717519D01*
Y3857629D01*
X2718472D01*
Y3858582D01*
X2717519D01*
Y3859534D01*
X2718472D01*
Y3860486D01*
X2717519D01*
Y3861439D01*
X2718472D01*
Y3862391D01*
X2717519D01*
Y3863343D01*
X2718472D01*
Y3864296D01*
X2717519D01*
Y3865248D01*
X2718472D01*
Y3866200D01*
X2717519D01*
Y3867153D01*
X2718472D01*
Y3868105D01*
X2717519D01*
Y3869057D01*
X2718472D01*
Y3870010D01*
X2717519D01*
Y3870962D01*
X2718472D01*
Y3871914D01*
X2717519D01*
Y3872867D01*
X2718472D01*
Y3873819D01*
X2717519D01*
Y3874771D01*
X2718472D01*
Y3875724D01*
X2717519D01*
Y3876676D01*
X2718472D01*
Y3877628D01*
Y3878581D01*
Y3879533D01*
X2719424D01*
Y3880485D01*
X2718472D01*
Y3881438D01*
X2719424D01*
Y3882390D01*
Y3883342D01*
Y3884295D01*
X2720376D01*
Y3885247D01*
X2719424D01*
Y3886199D01*
X2720376D01*
Y3887152D01*
X2719424D01*
Y3888104D01*
X2720376D01*
Y3889056D01*
Y3890009D01*
Y3890961D01*
X2721329D01*
Y3891913D01*
Y3892866D01*
Y3893818D01*
X2722281D01*
Y3894770D01*
X2721329D01*
Y3895723D01*
X2722281D01*
Y3896675D01*
X2721329D01*
Y3897627D01*
X2722281D01*
Y3898580D01*
X2723233D01*
Y3899532D01*
X2724186D01*
Y3900484D01*
X2723233D01*
Y3901437D01*
X2724186D01*
Y3902389D01*
X2723233D01*
Y3903341D01*
X2724186D01*
Y3904294D01*
X2725138D01*
Y3905246D01*
X2726090D01*
Y3906198D01*
X2725138D01*
Y3907151D01*
X2726090D01*
Y3908103D01*
X2725138D01*
Y3909055D01*
X2727043D01*
Y3910008D01*
Y3910960D01*
X2727995D01*
Y3911912D01*
X2727043D01*
Y3912865D01*
X2727995D01*
Y3913817D01*
X2728947D01*
Y3914769D01*
X2729900D01*
Y3915722D01*
X2728947D01*
Y3916674D01*
X2729900D01*
Y3917626D01*
X2730852D01*
Y3918579D01*
X2731804D01*
Y3919531D01*
X2730852D01*
Y3920483D01*
X2731804D01*
Y3921436D01*
X2730852D01*
Y3922388D01*
X2731804D01*
Y3921436D01*
X2732757D01*
Y3922388D01*
X2733709D01*
Y3923340D01*
X2732757D01*
Y3924293D01*
X2733709D01*
Y3925245D01*
X2734661D01*
Y3926197D01*
X2735614D01*
Y3927150D01*
X2736566D01*
Y3928102D01*
X2737518D01*
Y3929054D01*
X2736566D01*
Y3930007D01*
X2737518D01*
Y3930959D01*
X2738471D01*
Y3930007D01*
X2739423D01*
Y3930959D01*
X2738471D01*
Y3931911D01*
X2739423D01*
Y3932864D01*
Y3933816D01*
X2741328D01*
Y3934768D01*
X2740375D01*
Y3935721D01*
X2741328D01*
Y3936673D01*
X2742280D01*
Y3937625D01*
X2743232D01*
Y3938578D01*
X2744185D01*
Y3939530D01*
X2745137D01*
Y3940482D01*
X2746089D01*
Y3941435D01*
X2747042D01*
Y3942387D01*
X2747994D01*
Y3943339D01*
X2748946D01*
Y3944292D01*
X2747994D01*
Y3945244D01*
X2750851D01*
Y3946196D01*
X2749899D01*
Y3947149D01*
X2752756D01*
Y3948101D01*
X2751803D01*
Y3949053D01*
X2754660D01*
Y3950006D01*
X2753708D01*
Y3950958D01*
X2756565D01*
Y3951910D01*
X2755613D01*
Y3952863D01*
X2758470D01*
Y3953815D01*
X2759422D01*
Y3954767D01*
X2760374D01*
Y3955720D01*
X2761327D01*
Y3956672D01*
X2762279D01*
Y3957624D01*
X2763231D01*
Y3958577D01*
X2764184D01*
Y3959529D01*
X2765136D01*
Y3960481D01*
X2767993D01*
Y3961434D01*
X2767041D01*
Y3962386D01*
X2769898D01*
Y3963338D01*
X2770850D01*
Y3964291D01*
X2771802D01*
Y3965243D01*
X2772755D01*
Y3964291D01*
X2773707D01*
Y3965243D01*
X2774659D01*
Y3966195D01*
X2775612D01*
Y3967148D01*
X2776564D01*
Y3968100D01*
X2779421D01*
Y3969052D01*
X2780373D01*
Y3970005D01*
X2783230D01*
Y3970957D01*
X2784183D01*
Y3971909D01*
X2787040D01*
Y3972861D01*
X2786087D01*
Y3973814D01*
X2787040D01*
Y3972861D01*
X2787992D01*
Y3973814D01*
X2790849D01*
Y3974766D01*
X2791801D01*
Y3975718D01*
X2794658D01*
Y3976671D01*
X2795611D01*
Y3975718D01*
X2796563D01*
Y3976671D01*
X2797515D01*
Y3977623D01*
X2800372D01*
Y3978575D01*
X2801325D01*
Y3977623D01*
X2802277D01*
Y3978575D01*
X2801325D01*
Y3979528D01*
X2802277D01*
Y3978575D01*
X2803229D01*
Y3979528D01*
X2806086D01*
Y3980480D01*
X2807039D01*
Y3979528D01*
X2807991D01*
Y3980480D01*
X2808943D01*
Y3981432D01*
X2809896D01*
Y3980480D01*
X2810848D01*
Y3981432D01*
X2813705D01*
Y3982385D01*
X2812753D01*
Y3983337D01*
D02*
G37*
G36*
X2843227Y3924293D02*
X2842275D01*
Y3923340D01*
X2841323D01*
Y3924293D01*
X2840370D01*
Y3923340D01*
X2839418D01*
Y3924293D01*
X2838466D01*
Y3923340D01*
X2837513D01*
Y3924293D01*
X2836561D01*
Y3923340D01*
X2835609D01*
Y3924293D01*
X2834656D01*
Y3923340D01*
X2833704D01*
Y3924293D01*
X2832752D01*
Y3923340D01*
X2831799D01*
Y3924293D01*
X2830847D01*
Y3923340D01*
X2826085D01*
Y3922388D01*
X2825133D01*
Y3923340D01*
X2824181D01*
Y3922388D01*
X2825133D01*
Y3921436D01*
X2824181D01*
Y3922388D01*
X2823228D01*
Y3921436D01*
X2822276D01*
Y3922388D01*
X2821324D01*
Y3921436D01*
X2820371D01*
Y3920483D01*
X2819419D01*
Y3921436D01*
X2818467D01*
Y3920483D01*
X2817514D01*
Y3919531D01*
X2816562D01*
Y3920483D01*
X2815610D01*
Y3919531D01*
X2814657D01*
Y3918579D01*
X2813705D01*
Y3919531D01*
X2812753D01*
Y3918579D01*
X2813705D01*
Y3917626D01*
X2812753D01*
Y3918579D01*
X2811800D01*
Y3917626D01*
X2810848D01*
Y3916674D01*
X2809896D01*
Y3917626D01*
X2808943D01*
Y3916674D01*
X2809896D01*
Y3915722D01*
X2808943D01*
Y3916674D01*
X2807991D01*
Y3915722D01*
X2807039D01*
Y3914769D01*
X2806086D01*
Y3913817D01*
X2803229D01*
Y3912865D01*
X2802277D01*
Y3911912D01*
X2801325D01*
Y3910960D01*
X2800372D01*
Y3910008D01*
X2799420D01*
Y3909055D01*
X2798468D01*
Y3908103D01*
X2795611D01*
Y3907151D01*
X2796563D01*
Y3906198D01*
X2793706D01*
Y3905246D01*
X2794658D01*
Y3904294D01*
X2791801D01*
Y3903341D01*
X2792754D01*
Y3902389D01*
X2791801D01*
Y3901437D01*
X2790849D01*
Y3900484D01*
X2789897D01*
Y3899532D01*
X2788944D01*
Y3898580D01*
X2787992D01*
Y3897627D01*
Y3896675D01*
Y3895723D01*
X2787040D01*
Y3894770D01*
X2786087D01*
Y3893818D01*
X2785135D01*
Y3892866D01*
X2784183D01*
Y3891913D01*
X2785135D01*
Y3890961D01*
X2784183D01*
Y3890009D01*
X2783230D01*
Y3889056D01*
X2782278D01*
Y3888104D01*
X2783230D01*
Y3887152D01*
X2782278D01*
Y3886199D01*
X2781326D01*
Y3885247D01*
X2780373D01*
Y3884295D01*
X2781326D01*
Y3883342D01*
X2780373D01*
Y3882390D01*
X2781326D01*
Y3881438D01*
X2780373D01*
Y3880485D01*
X2781326D01*
Y3879533D01*
X2780373D01*
Y3880485D01*
X2779421D01*
Y3879533D01*
Y3878581D01*
Y3877628D01*
X2778469D01*
Y3876676D01*
X2779421D01*
Y3875724D01*
X2778469D01*
Y3874771D01*
X2779421D01*
Y3873819D01*
X2778469D01*
Y3872867D01*
X2779421D01*
Y3871914D01*
X2778469D01*
Y3870962D01*
X2777516D01*
Y3870010D01*
X2778469D01*
Y3869057D01*
X2777516D01*
Y3868105D01*
X2778469D01*
Y3867153D01*
X2777516D01*
Y3866200D01*
Y3865248D01*
Y3864296D01*
X2778469D01*
Y3863343D01*
X2777516D01*
Y3862391D01*
Y3861439D01*
Y3860486D01*
X2778469D01*
Y3859534D01*
X2777516D01*
Y3858582D01*
X2778469D01*
Y3857629D01*
Y3856677D01*
Y3855725D01*
X2779421D01*
Y3854772D01*
X2778469D01*
Y3853820D01*
X2779421D01*
Y3852868D01*
X2778469D01*
Y3851915D01*
X2779421D01*
Y3850963D01*
X2778469D01*
Y3850011D01*
X2779421D01*
Y3849058D01*
Y3848106D01*
Y3847154D01*
X2780373D01*
Y3846201D01*
X2781326D01*
Y3845249D01*
X2780373D01*
Y3844297D01*
X2781326D01*
Y3843344D01*
X2780373D01*
Y3842392D01*
X2782278D01*
Y3841440D01*
Y3840487D01*
X2783230D01*
Y3839535D01*
X2782278D01*
Y3838583D01*
X2783230D01*
Y3837630D01*
X2784183D01*
Y3836678D01*
X2785135D01*
Y3835726D01*
X2784183D01*
Y3834773D01*
X2785135D01*
Y3833821D01*
X2786087D01*
Y3832869D01*
X2787040D01*
Y3831916D01*
Y3830964D01*
X2788944D01*
Y3830012D01*
X2787992D01*
Y3829059D01*
X2788944D01*
Y3828107D01*
X2789897D01*
Y3827155D01*
X2790849D01*
Y3826202D01*
X2791801D01*
Y3825250D01*
X2792754D01*
Y3824298D01*
X2791801D01*
Y3823345D01*
X2794658D01*
Y3822393D01*
X2793706D01*
Y3821441D01*
X2796563D01*
Y3820488D01*
X2795611D01*
Y3819536D01*
X2798468D01*
Y3818584D01*
X2799420D01*
Y3817631D01*
X2800372D01*
Y3816679D01*
X2801325D01*
Y3815727D01*
X2802277D01*
Y3814774D01*
X2803229D01*
Y3813822D01*
X2806086D01*
Y3812870D01*
X2807039D01*
Y3811918D01*
X2807991D01*
Y3810965D01*
X2808943D01*
Y3810013D01*
X2809896D01*
Y3810965D01*
X2810848D01*
Y3810013D01*
X2811800D01*
Y3809061D01*
X2812753D01*
Y3808108D01*
X2813705D01*
Y3809061D01*
X2812753D01*
Y3810013D01*
X2813705D01*
Y3809061D01*
X2814657D01*
Y3808108D01*
X2817514D01*
Y3807156D01*
X2818467D01*
Y3806204D01*
X2819419D01*
Y3807156D01*
X2820371D01*
Y3806204D01*
X2821324D01*
Y3805251D01*
X2822276D01*
Y3806204D01*
X2823228D01*
Y3805251D01*
X2824181D01*
Y3804299D01*
X2825133D01*
Y3805251D01*
X2824181D01*
Y3806204D01*
X2825133D01*
Y3805251D01*
X2826085D01*
Y3804299D01*
X2832752D01*
Y3803347D01*
X2833704D01*
Y3804299D01*
X2834656D01*
Y3803347D01*
X2835609D01*
Y3804299D01*
X2836561D01*
Y3803347D01*
X2837513D01*
Y3804299D01*
X2838466D01*
Y3803347D01*
X2839418D01*
Y3804299D01*
X2840370D01*
Y3803347D01*
X2841323D01*
Y3804299D01*
X2842275D01*
Y3803347D01*
X2843227D01*
Y3804299D01*
X2844180D01*
Y3803347D01*
X2845132D01*
Y3804299D01*
X2847989D01*
Y3805251D01*
X2848941D01*
Y3804299D01*
X2849894D01*
Y3805251D01*
X2850846D01*
Y3804299D01*
X2851798D01*
Y3805251D01*
X2850846D01*
Y3806204D01*
X2851798D01*
Y3805251D01*
X2852751D01*
Y3806204D01*
X2853703D01*
Y3805251D01*
X2854655D01*
Y3806204D01*
X2857512D01*
Y3807156D01*
X2858465D01*
Y3808108D01*
X2859417D01*
Y3807156D01*
X2860369D01*
Y3808108D01*
X2861322D01*
Y3809061D01*
X2862274D01*
Y3808108D01*
X2863226D01*
Y3809061D01*
X2862274D01*
Y3810013D01*
X2863226D01*
Y3809061D01*
X2864179D01*
Y3810013D01*
X2865131D01*
Y3810965D01*
X2866083D01*
Y3810013D01*
X2867035D01*
Y3810965D01*
X2867988D01*
Y3811918D01*
X2868940D01*
Y3812870D01*
X2869892D01*
Y3813822D01*
X2872749D01*
Y3814774D01*
X2873702D01*
Y3815727D01*
X2874654D01*
Y3816679D01*
X2875606D01*
Y3815727D01*
X2876559D01*
Y3816679D01*
X2875606D01*
Y3817631D01*
X2876559D01*
Y3818584D01*
X2877511D01*
Y3819536D01*
X2878463D01*
Y3820488D01*
X2879416D01*
Y3819536D01*
X2880368D01*
Y3820488D01*
X2879416D01*
Y3821441D01*
X2880368D01*
Y3822393D01*
X2881320D01*
Y3821441D01*
X2882273D01*
Y3822393D01*
X2881320D01*
Y3823345D01*
X2882273D01*
Y3824298D01*
X2883225D01*
Y3823345D01*
X2884177D01*
Y3824298D01*
X2883225D01*
Y3825250D01*
X2884177D01*
Y3826202D01*
X2885130D01*
Y3827155D01*
X2886082D01*
Y3828107D01*
X2887035D01*
Y3829059D01*
X2887987D01*
Y3830012D01*
X2887035D01*
Y3830964D01*
X2888939D01*
Y3831916D01*
Y3832869D01*
X2889892D01*
Y3833821D01*
X2890844D01*
Y3834773D01*
X2891796D01*
Y3835726D01*
X2890844D01*
Y3836678D01*
X2891796D01*
Y3837630D01*
X2892749D01*
Y3838583D01*
X2893701D01*
Y3839535D01*
X2892749D01*
Y3840487D01*
X2893701D01*
Y3841440D01*
X2894653D01*
Y3842392D01*
X2893701D01*
Y3843344D01*
X2894653D01*
Y3842392D01*
X2895606D01*
Y3843344D01*
X2894653D01*
Y3844297D01*
X2895606D01*
Y3845249D01*
X2894653D01*
Y3846201D01*
X2895606D01*
Y3847154D01*
X2896558D01*
Y3848106D01*
X2895606D01*
Y3849058D01*
X2896558D01*
Y3850011D01*
X2897510D01*
Y3850963D01*
X2896558D01*
Y3851915D01*
X2897510D01*
Y3852868D01*
X2896558D01*
Y3853820D01*
X2897510D01*
Y3854772D01*
X2896558D01*
Y3855725D01*
X2897510D01*
Y3856677D01*
X2898463D01*
Y3857629D01*
X2897510D01*
Y3858582D01*
X2898463D01*
Y3859534D01*
X2897510D01*
Y3860486D01*
X2898463D01*
Y3861439D01*
X2897510D01*
Y3862391D01*
X2898463D01*
Y3863343D01*
Y3864296D01*
Y3865248D01*
X2897510D01*
Y3866200D01*
X2898463D01*
Y3867153D01*
X2897510D01*
Y3868105D01*
X2898463D01*
Y3869057D01*
X2897510D01*
Y3870010D01*
X2896558D01*
Y3870962D01*
X2897510D01*
Y3871914D01*
X2896558D01*
Y3872867D01*
X2897510D01*
Y3873819D01*
X2896558D01*
Y3874771D01*
X2897510D01*
Y3875724D01*
X2896558D01*
Y3876676D01*
X2897510D01*
Y3877628D01*
X2896558D01*
Y3878581D01*
X2895606D01*
Y3879533D01*
X2894653D01*
Y3880485D01*
X2895606D01*
Y3881438D01*
X2894653D01*
Y3882390D01*
X2895606D01*
Y3883342D01*
X2894653D01*
Y3884295D01*
X2893701D01*
Y3885247D01*
X2894653D01*
Y3884295D01*
X2895606D01*
Y3885247D01*
X2894653D01*
Y3886199D01*
X2893701D01*
Y3887152D01*
X2892749D01*
Y3888104D01*
X2893701D01*
Y3889056D01*
X2892749D01*
Y3890009D01*
X2891796D01*
Y3890961D01*
X2890844D01*
Y3891913D01*
X2891796D01*
Y3892866D01*
X2890844D01*
Y3893818D01*
X2889892D01*
Y3894770D01*
X2888939D01*
Y3895723D01*
Y3896675D01*
X2887987D01*
Y3897627D01*
Y3898580D01*
X2887035D01*
Y3899532D01*
X2886082D01*
Y3900484D01*
X2885130D01*
Y3901437D01*
X2884177D01*
Y3902389D01*
X2883225D01*
Y3903341D01*
X2882273D01*
Y3904294D01*
X2881320D01*
Y3905246D01*
X2880368D01*
Y3906198D01*
X2879416D01*
Y3907151D01*
X2880368D01*
Y3908103D01*
X2877511D01*
Y3909055D01*
X2876559D01*
Y3910008D01*
X2875606D01*
Y3910960D01*
X2874654D01*
Y3911912D01*
X2873702D01*
Y3912865D01*
X2872749D01*
Y3913817D01*
X2869892D01*
Y3914769D01*
X2868940D01*
Y3915722D01*
X2867988D01*
Y3916674D01*
X2867035D01*
Y3917626D01*
X2866083D01*
Y3916674D01*
X2867035D01*
Y3915722D01*
X2866083D01*
Y3916674D01*
X2865131D01*
Y3917626D01*
X2864179D01*
Y3918579D01*
X2863226D01*
Y3919531D01*
X2862274D01*
Y3918579D01*
X2861322D01*
Y3919531D01*
X2858465D01*
Y3920483D01*
X2857512D01*
Y3921436D01*
X2852751D01*
Y3922388D01*
X2851798D01*
Y3923340D01*
X2850846D01*
Y3922388D01*
X2851798D01*
Y3921436D01*
X2850846D01*
Y3922388D01*
X2849894D01*
Y3923340D01*
X2843227D01*
Y3924293D01*
D02*
G37*
G36*
X2882273Y3906198D02*
X2881320D01*
Y3905246D01*
X2882273D01*
Y3906198D01*
D02*
G37*
G36*
X3108928Y3873819D02*
X3107976D01*
Y3872867D01*
X3108928D01*
Y3873819D01*
D02*
G37*
G36*
X2800372Y3816679D02*
X2799420D01*
Y3815727D01*
X2800372D01*
Y3816679D01*
D02*
G37*
G36*
X2773707Y3763349D02*
X2772755D01*
Y3762396D01*
X2773707D01*
Y3763349D01*
D02*
G37*
G36*
X2849894Y3744302D02*
X2848941D01*
Y3743350D01*
X2849894D01*
Y3744302D01*
D02*
G37*
G36*
X2897510Y3729065D02*
X2896558D01*
Y3728112D01*
X2897510D01*
Y3729065D01*
D02*
G37*
G36*
X2914652Y3717637D02*
X2913700D01*
Y3716684D01*
X2914652D01*
Y3717637D01*
D02*
G37*
G36*
X2916557Y3715732D02*
X2915604D01*
Y3714780D01*
X2916557D01*
Y3715732D01*
D02*
G37*
G36*
X2931794Y3700495D02*
X2930842D01*
Y3699542D01*
X2931794D01*
Y3700495D01*
D02*
G37*
G36*
X2647999Y3595738D02*
X2647047D01*
Y3594786D01*
X2647999D01*
Y3595738D01*
D02*
G37*
G36*
X2587050Y3580501D02*
X2586098D01*
Y3579548D01*
X2587050D01*
Y3580501D01*
D02*
G37*
G36*
X2689902Y3553836D02*
X2688950D01*
Y3552883D01*
X2689902D01*
Y3553836D01*
D02*
G37*
G36*
X2606097D02*
X2605144D01*
Y3552883D01*
X2606097D01*
Y3553836D01*
D02*
G37*
G36*
X2703235Y3544312D02*
X2702282D01*
Y3543360D01*
X2703235D01*
Y3544312D01*
D02*
G37*
G36*
X2647999Y3511933D02*
X2647047D01*
Y3510981D01*
X2647999D01*
Y3511933D01*
D02*
G37*
G36*
X2649904Y3510028D02*
X2648952D01*
Y3509076D01*
X2649904D01*
Y3510028D01*
D02*
G37*
G36*
X2665141Y3498600D02*
X2664189D01*
Y3497648D01*
X2665141D01*
Y3498600D01*
D02*
G37*
G36*
X2676569Y3490982D02*
X2675617D01*
Y3490029D01*
X2676569D01*
Y3490982D01*
D02*
G37*
G36*
X2686093Y3485268D02*
X2685140D01*
Y3484315D01*
X2686093D01*
Y3485268D01*
D02*
G37*
G36*
X2724186Y3466221D02*
X2723233D01*
Y3465269D01*
X2724186D01*
Y3466221D01*
D02*
G37*
%LPD*%
G36*
X2845132Y3682400D02*
X2851798D01*
Y3681448D01*
X2852751D01*
Y3682400D01*
X2853703D01*
Y3681448D01*
X2854655D01*
Y3680496D01*
X2857512D01*
Y3679543D01*
X2858465D01*
Y3678591D01*
X2859417D01*
Y3679543D01*
X2858465D01*
Y3680496D01*
X2859417D01*
Y3679543D01*
X2860369D01*
Y3678591D01*
X2863226D01*
Y3677639D01*
X2864179D01*
Y3676686D01*
X2867035D01*
Y3675734D01*
X2867988D01*
Y3674782D01*
X2870845D01*
Y3673829D01*
X2871797D01*
Y3672877D01*
X2872749D01*
Y3671925D01*
X2873702D01*
Y3670972D01*
X2874654D01*
Y3670020D01*
X2875606D01*
Y3669068D01*
X2878463D01*
Y3668115D01*
X2877511D01*
Y3667163D01*
X2880368D01*
Y3666211D01*
X2881320D01*
Y3665258D01*
X2882273D01*
Y3664306D01*
X2881320D01*
Y3663354D01*
X2884177D01*
Y3662401D01*
X2883225D01*
Y3661449D01*
X2884177D01*
Y3660497D01*
X2885130D01*
Y3659544D01*
X2886082D01*
Y3658592D01*
X2887035D01*
Y3657640D01*
X2887987D01*
Y3656687D01*
X2887035D01*
Y3655735D01*
X2888939D01*
Y3654783D01*
Y3653830D01*
X2889892D01*
Y3652878D01*
X2890844D01*
Y3651926D01*
X2891796D01*
Y3650973D01*
X2890844D01*
Y3650021D01*
X2891796D01*
Y3649069D01*
X2892749D01*
Y3648116D01*
X2893701D01*
Y3647164D01*
X2892749D01*
Y3646212D01*
X2893701D01*
Y3645259D01*
X2894653D01*
Y3644307D01*
X2895606D01*
Y3643355D01*
X2894653D01*
Y3642402D01*
X2895606D01*
Y3641450D01*
X2894653D01*
Y3640498D01*
X2895606D01*
Y3639545D01*
X2896558D01*
Y3638593D01*
X2895606D01*
Y3637641D01*
X2896558D01*
Y3636688D01*
X2897510D01*
Y3635736D01*
X2896558D01*
Y3634784D01*
X2897510D01*
Y3633831D01*
X2896558D01*
Y3632879D01*
X2897510D01*
Y3631927D01*
X2896558D01*
Y3630974D01*
X2897510D01*
Y3630022D01*
X2898463D01*
Y3629070D01*
X2897510D01*
Y3628117D01*
X2898463D01*
Y3627165D01*
X2897510D01*
Y3626213D01*
X2898463D01*
Y3625260D01*
X2897510D01*
Y3624308D01*
X2898463D01*
Y3623356D01*
Y3622403D01*
Y3621451D01*
X2897510D01*
Y3620499D01*
X2898463D01*
Y3619546D01*
X2897510D01*
Y3618594D01*
X2898463D01*
Y3617642D01*
X2897510D01*
Y3616689D01*
X2896558D01*
Y3615737D01*
X2897510D01*
Y3614785D01*
X2896558D01*
Y3613832D01*
X2897510D01*
Y3612880D01*
X2896558D01*
Y3611928D01*
X2897510D01*
Y3610975D01*
X2896558D01*
Y3610023D01*
X2897510D01*
Y3609071D01*
X2896558D01*
Y3608118D01*
X2895606D01*
Y3607166D01*
X2894653D01*
Y3606214D01*
X2895606D01*
Y3605261D01*
X2894653D01*
Y3604309D01*
X2895606D01*
Y3603357D01*
X2894653D01*
Y3602404D01*
X2893701D01*
Y3601452D01*
Y3600500D01*
Y3599548D01*
X2892749D01*
Y3598595D01*
Y3597643D01*
Y3596691D01*
X2891796D01*
Y3595738D01*
X2890844D01*
Y3594786D01*
X2891796D01*
Y3593834D01*
X2889892D01*
Y3592881D01*
Y3591929D01*
X2888939D01*
Y3590977D01*
X2887987D01*
Y3590024D01*
X2887035D01*
Y3589072D01*
X2887987D01*
Y3588119D01*
X2887035D01*
Y3587167D01*
X2886082D01*
Y3586215D01*
X2885130D01*
Y3585262D01*
X2884177D01*
Y3584310D01*
X2883225D01*
Y3583358D01*
X2882273D01*
Y3582405D01*
X2881320D01*
Y3581453D01*
X2880368D01*
Y3580501D01*
X2879416D01*
Y3579548D01*
X2880368D01*
Y3578596D01*
X2879416D01*
Y3579548D01*
X2878463D01*
Y3578596D01*
X2877511D01*
Y3577644D01*
X2876559D01*
Y3576691D01*
X2875606D01*
Y3575739D01*
X2874654D01*
Y3574787D01*
X2873702D01*
Y3573834D01*
X2872749D01*
Y3572882D01*
X2869892D01*
Y3571930D01*
X2868940D01*
Y3572882D01*
X2867988D01*
Y3571930D01*
X2868940D01*
Y3570977D01*
X2866083D01*
Y3570025D01*
X2865131D01*
Y3569073D01*
X2864179D01*
Y3568120D01*
X2863226D01*
Y3569073D01*
X2862274D01*
Y3568120D01*
X2861322D01*
Y3567168D01*
X2858465D01*
Y3566216D01*
X2857512D01*
Y3565264D01*
X2856560D01*
Y3566216D01*
X2855608D01*
Y3565264D01*
X2852751D01*
Y3564311D01*
X2851798D01*
Y3565264D01*
X2850846D01*
Y3564311D01*
X2849894D01*
Y3563359D01*
X2848941D01*
Y3564311D01*
X2847989D01*
Y3563359D01*
X2839418D01*
Y3562407D01*
X2838466D01*
Y3563359D01*
X2835609D01*
Y3562407D01*
X2834656D01*
Y3563359D01*
X2829895D01*
Y3564311D01*
X2828942D01*
Y3563359D01*
X2827990D01*
Y3564311D01*
X2827038D01*
Y3563359D01*
X2826085D01*
Y3564311D01*
X2825133D01*
Y3565264D01*
X2824181D01*
Y3564311D01*
X2823228D01*
Y3565264D01*
X2820371D01*
Y3566216D01*
X2819419D01*
Y3565264D01*
X2818467D01*
Y3566216D01*
X2817514D01*
Y3567168D01*
X2814657D01*
Y3568120D01*
X2813705D01*
Y3569073D01*
X2810848D01*
Y3570025D01*
X2809896D01*
Y3570977D01*
X2808943D01*
Y3570025D01*
X2809896D01*
Y3569073D01*
X2808943D01*
Y3570025D01*
X2807991D01*
Y3570977D01*
X2807039D01*
Y3571930D01*
X2806086D01*
Y3572882D01*
X2803229D01*
Y3573834D01*
X2802277D01*
Y3574787D01*
X2801325D01*
Y3575739D01*
X2800372D01*
Y3576691D01*
X2799420D01*
Y3577644D01*
X2798468D01*
Y3578596D01*
X2797515D01*
Y3579548D01*
X2796563D01*
Y3580501D01*
X2795611D01*
Y3581453D01*
X2794658D01*
Y3582405D01*
X2793706D01*
Y3583358D01*
X2792754D01*
Y3584310D01*
X2791801D01*
Y3585262D01*
X2790849D01*
Y3586215D01*
X2789897D01*
Y3587167D01*
X2788944D01*
Y3588119D01*
X2787992D01*
Y3589072D01*
X2788944D01*
Y3590024D01*
X2787992D01*
Y3590977D01*
X2787040D01*
Y3591929D01*
X2786087D01*
Y3592881D01*
X2785135D01*
Y3593834D01*
X2784183D01*
Y3594786D01*
X2785135D01*
Y3595738D01*
X2784183D01*
Y3596691D01*
X2783230D01*
Y3597643D01*
X2782278D01*
Y3598595D01*
X2783230D01*
Y3599548D01*
X2782278D01*
Y3600500D01*
X2781326D01*
Y3601452D01*
X2780373D01*
Y3602404D01*
X2781326D01*
Y3603357D01*
X2780373D01*
Y3604309D01*
X2781326D01*
Y3605261D01*
X2780373D01*
Y3606214D01*
X2779421D01*
Y3607166D01*
X2780373D01*
Y3606214D01*
X2781326D01*
Y3607166D01*
X2780373D01*
Y3608118D01*
X2779421D01*
Y3609071D01*
X2778469D01*
Y3610023D01*
X2779421D01*
Y3610975D01*
X2778469D01*
Y3611928D01*
X2779421D01*
Y3612880D01*
X2778469D01*
Y3613832D01*
X2779421D01*
Y3614785D01*
X2778469D01*
Y3615737D01*
X2777516D01*
Y3616689D01*
X2778469D01*
Y3617642D01*
X2777516D01*
Y3618594D01*
X2778469D01*
Y3619546D01*
X2777516D01*
Y3620499D01*
Y3621451D01*
Y3622403D01*
X2778469D01*
Y3623356D01*
X2777516D01*
Y3624308D01*
Y3625260D01*
Y3626213D01*
X2778469D01*
Y3627165D01*
X2777516D01*
Y3628117D01*
X2778469D01*
Y3629070D01*
Y3630022D01*
Y3630974D01*
X2779421D01*
Y3631927D01*
X2778469D01*
Y3632879D01*
X2779421D01*
Y3633831D01*
X2778469D01*
Y3634784D01*
X2779421D01*
Y3635736D01*
X2778469D01*
Y3636688D01*
X2779421D01*
Y3637641D01*
Y3638593D01*
Y3639545D01*
X2780373D01*
Y3640498D01*
X2781326D01*
Y3641450D01*
X2780373D01*
Y3642402D01*
X2781326D01*
Y3643355D01*
X2780373D01*
Y3644307D01*
X2781326D01*
Y3645259D01*
X2782278D01*
Y3646212D01*
X2783230D01*
Y3647164D01*
X2782278D01*
Y3648116D01*
X2783230D01*
Y3649069D01*
X2784183D01*
Y3650021D01*
X2785135D01*
Y3650973D01*
X2784183D01*
Y3651926D01*
X2785135D01*
Y3652878D01*
X2786087D01*
Y3653830D01*
X2787040D01*
Y3654783D01*
X2786087D01*
Y3655735D01*
X2788944D01*
Y3656687D01*
X2787992D01*
Y3657640D01*
X2788944D01*
Y3658592D01*
X2789897D01*
Y3659544D01*
X2790849D01*
Y3660497D01*
Y3661449D01*
X2792754D01*
Y3662401D01*
X2791801D01*
Y3663354D01*
X2794658D01*
Y3664306D01*
X2793706D01*
Y3665258D01*
X2795611D01*
Y3666211D01*
Y3667163D01*
X2798468D01*
Y3668115D01*
X2797515D01*
Y3669068D01*
X2800372D01*
Y3670020D01*
X2799420D01*
Y3670972D01*
X2800372D01*
Y3670020D01*
X2801325D01*
Y3670972D01*
X2802277D01*
Y3671925D01*
X2803229D01*
Y3672877D01*
X2804182D01*
Y3673829D01*
X2805134D01*
Y3672877D01*
X2806086D01*
Y3673829D01*
X2805134D01*
Y3674782D01*
X2806086D01*
Y3673829D01*
X2807039D01*
Y3674782D01*
X2807991D01*
Y3675734D01*
X2808943D01*
Y3676686D01*
X2811800D01*
Y3677639D01*
X2812753D01*
Y3678591D01*
X2815610D01*
Y3679543D01*
X2816562D01*
Y3678591D01*
X2817514D01*
Y3679543D01*
X2816562D01*
Y3680496D01*
X2817514D01*
Y3679543D01*
X2818467D01*
Y3680496D01*
X2821324D01*
Y3681448D01*
X2822276D01*
Y3682400D01*
X2823228D01*
Y3681448D01*
X2824181D01*
Y3682400D01*
X2825133D01*
Y3681448D01*
X2826085D01*
Y3682400D01*
X2828942D01*
Y3683353D01*
X2829895D01*
Y3682400D01*
X2830847D01*
Y3683353D01*
X2831799D01*
Y3682400D01*
X2832752D01*
Y3683353D01*
X2833704D01*
Y3682400D01*
X2834656D01*
Y3683353D01*
X2837513D01*
Y3682400D01*
X2838466D01*
Y3683353D01*
X2841323D01*
Y3682400D01*
X2842275D01*
Y3683353D01*
X2843227D01*
Y3682400D01*
X2844180D01*
Y3683353D01*
X2845132D01*
Y3682400D01*
D02*
G37*
%LPC*%
G36*
X2870845Y3673829D02*
X2869892D01*
Y3672877D01*
X2870845D01*
Y3673829D01*
D02*
G37*
G36*
X2807991Y3572882D02*
X2807039D01*
Y3571930D01*
X2807991D01*
Y3572882D01*
D02*
G37*
%LPD*%
D41*
X5595472Y3721378D02*
G03*
X5595472Y3721378I-4921J0D01*
G01*
X3990118Y2910000D02*
G03*
X3990118Y2910000I-9842J0D01*
G01*
X4000118Y1430000D02*
G03*
X4000118Y1430000I-9842J0D01*
G01*
X5595472Y2251378D02*
G03*
X5595472Y2251378I-4921J0D01*
G01*
Y3111378D02*
G03*
X5595472Y3111378I-4921J0D01*
G01*
Y1646378D02*
G03*
X5595472Y1646378I-4921J0D01*
G01*
D42*
X2484252Y1818898D02*
Y1929134D01*
X2484252Y1818898D02*
X2594488D01*
Y1929134D01*
X2484252Y1929134D02*
X2594488D01*
X6472441Y2055000D02*
Y2755000D01*
X6590551D01*
Y2055000D02*
Y2755000D01*
X6472441Y2055000D02*
X6590551D01*
X6535433Y1980000D02*
Y2055000D01*
Y2755000D02*
Y2830000D01*
X6315000Y2755000D02*
Y2830000D01*
Y1980000D02*
Y2055000D01*
X6255905D02*
X6377953D01*
Y2755000D01*
X6255905D02*
X6377953D01*
X6255905Y2055000D02*
Y2755000D01*
X4279528Y3393858D02*
X4316929D01*
X4366142Y3344646D01*
X4098425D02*
X4147638Y3393858D01*
X4185039D01*
X4366142Y3126142D02*
Y3344646D01*
X4279528Y3126142D02*
X4366142D01*
X4098425D02*
X4185039D01*
X4098425D02*
Y3344646D01*
X3309882Y2858031D02*
Y2861968D01*
X3260669Y2858031D02*
Y2861968D01*
X5025591Y3124882D02*
Y3235118D01*
X4816929Y3124882D02*
X5025591D01*
X4816929Y3235118D02*
X5025591D01*
X4179134Y3580000D02*
X4285433D01*
Y3542638D02*
Y3747362D01*
X4179134D02*
X4285433D01*
X4179134Y3542638D02*
Y3747362D01*
Y3542638D02*
X4285433D01*
X2485157Y2219882D02*
X2595394D01*
X2595394Y2219882D02*
Y2330118D01*
X2485158D02*
X2595394D01*
X2485157Y2219882D02*
Y2330118D01*
X5940000Y3245000D02*
Y3345000D01*
Y2645000D02*
Y2745000D01*
X5860000D02*
X6020000D01*
Y3245000D01*
X5860000D02*
X6020000D01*
X5860000Y2745000D02*
Y3245000D01*
X5521654Y3695787D02*
X5694882D01*
X5521654Y3294213D02*
X5694882D01*
X5521654D02*
Y3695787D01*
X5694882Y3294213D02*
Y3695787D01*
X5675197Y3294213D02*
Y3695787D01*
X4621260Y2985000D02*
X4691260D01*
X5151260D02*
X5221260D01*
X5151260Y2905000D02*
Y3065000D01*
X4691260D02*
X5151260D01*
X4691260Y2905000D02*
Y3065000D01*
Y2905000D02*
X5151260D01*
X2912126Y2492008D02*
Y2617992D01*
X2518425Y2492008D02*
Y2617992D01*
X2912126D01*
X2518425Y2492008D02*
X2912126D01*
X2868819Y2861417D02*
Y2900787D01*
X2811732Y2861417D02*
Y2900787D01*
X4816929Y2365118D02*
X5025591D01*
X4816929Y2254882D02*
X5025591D01*
Y2365118D01*
X4691260Y2200000D02*
X5151260D01*
Y2040000D02*
Y2200000D01*
X4691260Y2040000D02*
X5151260D01*
X4691260D02*
Y2200000D01*
X4621260Y2120000D02*
X4691260D01*
X5151260D02*
X5221260D01*
X4098425Y1656142D02*
Y1874646D01*
Y1656142D02*
X4185039D01*
X4279528D02*
X4366142D01*
Y1874646D01*
X4147638Y1923858D02*
X4185039D01*
X4098425Y1874646D02*
X4147638Y1923858D01*
X4316929D02*
X4366142Y1874646D01*
X4279528Y1923858D02*
X4316929D01*
X4691260Y1600000D02*
X5151260D01*
Y1440000D02*
Y1600000D01*
X4691260Y1440000D02*
X5151260D01*
X4691260D02*
Y1600000D01*
X4621260Y1520000D02*
X4691260D01*
X5151260D02*
X5221260D01*
X4816929Y1765118D02*
X5025591D01*
X4816929Y1654882D02*
X5025591D01*
Y1765118D01*
X5298543Y1295315D02*
Y1334685D01*
X5241457Y1295315D02*
Y1334685D01*
X5298543Y1861417D02*
Y1900787D01*
X5241457Y1861417D02*
Y1900787D01*
X5298543Y2725315D02*
Y2764685D01*
X5241457Y2725315D02*
Y2764685D01*
X4816929Y3825118D02*
X5025591D01*
X4816929Y3714882D02*
X5025591D01*
Y3825118D01*
X4691260Y3515000D02*
X5151260D01*
X4691260D02*
Y3675000D01*
X5151260D01*
Y3515000D02*
Y3675000D01*
Y3595000D02*
X5221260D01*
X4621260D02*
X4691260D01*
X5298543Y3335315D02*
Y3374685D01*
X5241457Y3335315D02*
Y3374685D01*
X3110590Y2796457D02*
X3149961D01*
X3110590Y2853543D02*
X3149961D01*
X2668819Y2800315D02*
Y2839685D01*
X2611732Y2800315D02*
Y2839685D01*
X3265669Y2263032D02*
Y2266969D01*
X3314882Y2263032D02*
Y2266969D01*
X3115590Y2271457D02*
X3154961D01*
X3115590Y2328543D02*
X3154961D01*
X2861732Y2224213D02*
Y2263583D01*
X2918819Y2224213D02*
Y2263583D01*
X2761732Y2225315D02*
Y2264685D01*
X2818819Y2225315D02*
Y2264685D01*
X5870000Y1570000D02*
Y2070000D01*
X6030000D01*
Y1570000D02*
Y2070000D01*
X5870000Y1570000D02*
X6030000D01*
X5950000Y1470000D02*
Y1570000D01*
Y2070000D02*
Y2170000D01*
X4179134Y2072638D02*
X4285433D01*
X4179134D02*
Y2277362D01*
X4285433D01*
Y2072638D02*
Y2277362D01*
X4179134Y2110000D02*
X4285433D01*
X5675197Y1824213D02*
Y2225787D01*
X5694882Y1824213D02*
Y2225787D01*
X5521654Y1824213D02*
Y2225787D01*
Y1824213D02*
X5694882D01*
X5521654Y2225787D02*
X5694882D01*
X5675197Y2684213D02*
Y3085787D01*
X5694882Y2684213D02*
Y3085787D01*
X5521654Y2684213D02*
Y3085787D01*
Y2684213D02*
X5694882D01*
X5521654Y3085787D02*
X5694882D01*
X5675197Y1219213D02*
Y1620787D01*
X5694882Y1219213D02*
Y1620787D01*
X5521654Y1219213D02*
Y1620787D01*
Y1219213D02*
X5694882D01*
X5521654Y1620787D02*
X5694882D01*
X2565591Y2981457D02*
X2604961D01*
X2565591Y3038543D02*
X2604961D01*
D43*
X2716535Y1417306D02*
Y1366142D01*
X2742118D01*
X2750645Y1374669D01*
Y1408779D01*
X2742118Y1417306D01*
X2716535D01*
X2767700Y1366142D02*
X2784755D01*
X2776227D01*
Y1400251D01*
X2767700D01*
X2810337Y1366142D02*
X2835919D01*
X2844447Y1374669D01*
X2835919Y1383197D01*
X2818865D01*
X2810337Y1391724D01*
X2818865Y1400251D01*
X2844447D01*
X2861502Y1366142D02*
Y1417306D01*
X2895611Y1366142D01*
Y1417306D01*
X2921194Y1366142D02*
X2938249D01*
X2946776Y1374669D01*
Y1391724D01*
X2938249Y1400251D01*
X2921194D01*
X2912666Y1391724D01*
Y1374669D01*
X2921194Y1366142D01*
X2963831D02*
X2980886D01*
X2972358D01*
Y1417306D01*
X2963831D01*
X3006468Y1366142D02*
X3023523D01*
X3014995D01*
Y1400251D01*
X3006468D01*
X2750645Y1504574D02*
X2742118Y1513101D01*
X2725063D01*
X2716535Y1504574D01*
Y1496046D01*
X2725063Y1487519D01*
X2742118D01*
X2750645Y1478992D01*
Y1470464D01*
X2742118Y1461937D01*
X2725063D01*
X2716535Y1470464D01*
X2776227Y1496046D02*
X2793282D01*
X2801810Y1487519D01*
Y1461937D01*
X2776227D01*
X2767700Y1470464D01*
X2776227Y1478992D01*
X2801810D01*
X2818865Y1461937D02*
Y1496046D01*
X2844447D01*
X2852974Y1487519D01*
Y1461937D01*
X2878557Y1504574D02*
Y1496046D01*
X2870029D01*
X2887084D01*
X2878557D01*
Y1470464D01*
X2887084Y1461937D01*
X2912666D02*
X2929721D01*
X2921194D01*
Y1496046D01*
X2912666D01*
X2963831D02*
X2980886D01*
X2989413Y1487519D01*
Y1461937D01*
X2963831D01*
X2955303Y1470464D01*
X2963831Y1478992D01*
X2989413D01*
X3023523Y1444882D02*
X3032050D01*
X3040578Y1453409D01*
Y1496046D01*
X3014995D01*
X3006468Y1487519D01*
Y1470464D01*
X3014995Y1461937D01*
X3040578D01*
X3066160D02*
X3083215D01*
X3091742Y1470464D01*
Y1487519D01*
X3083215Y1496046D01*
X3066160D01*
X3057633Y1487519D01*
Y1470464D01*
X3066160Y1461937D01*
X3159962Y1513101D02*
Y1461937D01*
X3185544D01*
X3194071Y1470464D01*
Y1478992D01*
X3185544Y1487519D01*
X3159962D01*
X3185544D01*
X3194071Y1496046D01*
Y1504574D01*
X3185544Y1513101D01*
X3159962D01*
X3211126Y1461937D02*
Y1470464D01*
X3219654D01*
Y1461937D01*
X3211126D01*
X2750645Y1611527D02*
X2733590D01*
X2742118D01*
Y1568889D01*
X2733590Y1560362D01*
X2725063D01*
X2716535Y1568889D01*
X2767700Y1594472D02*
Y1568889D01*
X2776227Y1560362D01*
X2801810D01*
Y1594472D01*
X2827392D02*
X2844447D01*
X2852974Y1585944D01*
Y1560362D01*
X2827392D01*
X2818865Y1568889D01*
X2827392Y1577417D01*
X2852974D01*
X2870029Y1560362D02*
Y1594472D01*
X2895611D01*
X2904139Y1585944D01*
Y1560362D01*
X2972358Y1611527D02*
Y1560362D01*
X2997941D01*
X3006468Y1568889D01*
Y1602999D01*
X2997941Y1611527D01*
X2972358D01*
X3023523Y1560362D02*
X3040578D01*
X3032050D01*
Y1594472D01*
X3023523D01*
X3091742Y1560362D02*
X3074687D01*
X3066160Y1568889D01*
Y1585944D01*
X3074687Y1594472D01*
X3091742D01*
X3100270Y1585944D01*
Y1577417D01*
X3066160D01*
X3134380Y1543307D02*
X3142907D01*
X3151434Y1551835D01*
Y1594472D01*
X3125852D01*
X3117325Y1585944D01*
Y1568889D01*
X3125852Y1560362D01*
X3151434D01*
X3177017D02*
X3194072D01*
X3202599Y1568889D01*
Y1585944D01*
X3194072Y1594472D01*
X3177017D01*
X3168489Y1585944D01*
Y1568889D01*
X3177017Y1560362D01*
X3304928Y1602999D02*
X3296401Y1611527D01*
X3279346D01*
X3270818Y1602999D01*
Y1594472D01*
X3279346Y1585944D01*
X3296401D01*
X3304928Y1577417D01*
Y1568889D01*
X3296401Y1560362D01*
X3279346D01*
X3270818Y1568889D01*
X3321983Y1560362D02*
Y1568889D01*
X3330510D01*
Y1560362D01*
X3321983D01*
X2716535Y1692897D02*
Y1641732D01*
X2742118D01*
X2750645Y1650260D01*
Y1684369D01*
X2742118Y1692897D01*
X2716535D01*
X2776227Y1675842D02*
X2793282D01*
X2801810Y1667315D01*
Y1641732D01*
X2776227D01*
X2767700Y1650260D01*
X2776227Y1658787D01*
X2801810D01*
X2818865Y1641732D02*
Y1675842D01*
X2844447D01*
X2852974Y1667315D01*
Y1641732D01*
X2870029D02*
X2887084D01*
X2878557D01*
Y1675842D01*
X2870029D01*
X2938249Y1641732D02*
X2921194D01*
X2912666Y1650260D01*
Y1667315D01*
X2921194Y1675842D01*
X2938249D01*
X2946776Y1667315D01*
Y1658787D01*
X2912666D01*
X2963831Y1641732D02*
X2980886D01*
X2972358D01*
Y1692897D01*
X2963831D01*
X3091742Y1684369D02*
X3083215Y1692897D01*
X3066160D01*
X3057633Y1684369D01*
Y1650260D01*
X3066160Y1641732D01*
X3083215D01*
X3091742Y1650260D01*
Y1667315D01*
X3074687D01*
X3108797Y1641732D02*
Y1650260D01*
X3117325D01*
Y1641732D01*
X3108797D01*
X2716535Y1192913D02*
Y1244078D01*
X2742118D01*
X2750645Y1235550D01*
Y1218496D01*
X2742118Y1209968D01*
X2716535D01*
X2767700Y1244078D02*
Y1201441D01*
X2776227Y1192913D01*
X2793282D01*
X2801810Y1201441D01*
Y1244078D01*
X2852974D02*
X2835919D01*
X2844447D01*
Y1201441D01*
X2835919Y1192913D01*
X2827392D01*
X2818865Y1201441D01*
X2750645Y1327409D02*
X2742118Y1335936D01*
X2725063D01*
X2716535Y1327409D01*
Y1293299D01*
X2725063Y1284771D01*
X2742118D01*
X2750645Y1293299D01*
Y1310354D01*
X2733590D01*
X2767700Y1318881D02*
Y1284771D01*
Y1301826D01*
X2776227Y1310354D01*
X2784755Y1318881D01*
X2793282D01*
X2818865D02*
Y1293299D01*
X2827392Y1284771D01*
X2852974D01*
Y1318881D01*
X2870029Y1267716D02*
Y1318881D01*
X2895611D01*
X2904139Y1310354D01*
Y1293299D01*
X2895611Y1284771D01*
X2870029D01*
X2929721D02*
X2946776D01*
X2955303Y1293299D01*
Y1310354D01*
X2946776Y1318881D01*
X2929721D01*
X2921194Y1310354D01*
Y1293299D01*
X2929721Y1284771D01*
X3023523D02*
X3040578D01*
X3032050D01*
Y1335936D01*
X3023523Y1327409D01*
X3066160Y1310354D02*
X3100270D01*
X3151434Y1284771D02*
X3117325D01*
X3151434Y1318881D01*
Y1327409D01*
X3142907Y1335936D01*
X3125852D01*
X3117325Y1327409D01*
X2513146Y1985562D02*
X2506586Y1992122D01*
X2493467D01*
X2486908Y1985562D01*
Y1959324D01*
X2493467Y1952764D01*
X2506586D01*
X2513146Y1959324D01*
Y1972443D01*
X2500027D01*
X2526265Y1952764D02*
Y1992122D01*
X2552503Y1952764D01*
Y1992122D01*
X2565623D02*
Y1952764D01*
X2585301D01*
X2591861Y1959324D01*
Y1985562D01*
X2585301Y1992122D01*
X2565623D01*
X2762523Y2990321D02*
Y3029679D01*
X2782202D01*
X2788762Y3023119D01*
Y3010000D01*
X2782202Y3003440D01*
X2762523D01*
X2775643D02*
X2788762Y2990321D01*
X2828119Y3016559D02*
X2808441D01*
X2801881Y3010000D01*
Y2996881D01*
X2808441Y2990321D01*
X2828119D01*
X2867477D02*
X2841238D01*
X2867477Y3016559D01*
Y3023119D01*
X2860917Y3029679D01*
X2847798D01*
X2841238Y3023119D01*
X2849359Y2035321D02*
Y2074679D01*
X2869037D01*
X2875597Y2068119D01*
Y2055000D01*
X2869037Y2048440D01*
X2849359D01*
X2862478D02*
X2875597Y2035321D01*
X2914954Y2061559D02*
X2895276D01*
X2888716Y2055000D01*
Y2041881D01*
X2895276Y2035321D01*
X2914954D01*
X2928073D02*
X2941193D01*
X2934633D01*
Y2074679D01*
X2928073Y2068119D01*
X2443762Y2564679D02*
Y2531881D01*
X2450321Y2525321D01*
X2463441D01*
X2470000Y2531881D01*
Y2564679D01*
X2483119Y2525321D02*
X2496238D01*
X2489679D01*
Y2564679D01*
X2483119Y2558119D01*
X3842478Y2864679D02*
Y2831881D01*
X3849037Y2825321D01*
X3862157D01*
X3868716Y2831881D01*
Y2864679D01*
X3881835Y2858119D02*
X3888395Y2864679D01*
X3901514D01*
X3908073Y2858119D01*
Y2851559D01*
X3901514Y2845000D01*
X3894954D01*
X3901514D01*
X3908073Y2838440D01*
Y2831881D01*
X3901514Y2825321D01*
X3888395D01*
X3881835Y2831881D01*
X3837478Y1389679D02*
Y1356881D01*
X3844037Y1350321D01*
X3857157D01*
X3863716Y1356881D01*
Y1389679D01*
X3903073Y1350321D02*
X3876835D01*
X3903073Y1376560D01*
Y1383119D01*
X3896514Y1389679D01*
X3883395D01*
X3876835Y1383119D01*
X2759037Y2100321D02*
Y2139679D01*
X2778716D01*
X2785276Y2133119D01*
Y2120000D01*
X2778716Y2113440D01*
X2759037D01*
X2772157D02*
X2785276Y2100321D01*
X2804954Y2133119D02*
Y2126559D01*
X2798395D01*
X2811514D01*
X2804954D01*
Y2106881D01*
X2811514Y2100321D01*
X6519604Y2997132D02*
Y3036490D01*
X6539283D01*
X6545842Y3029930D01*
Y3016811D01*
X6539283Y3010251D01*
X6519604D01*
X6532723D02*
X6545842Y2997132D01*
X6558961Y3036490D02*
Y2997132D01*
X6585199D01*
X3056400Y2885321D02*
Y2924679D01*
X3076079D01*
X3082638Y2918119D01*
Y2905000D01*
X3076079Y2898440D01*
X3056400D01*
X3069519D02*
X3082638Y2885321D01*
X3121996Y2924679D02*
Y2885321D01*
X3102317D01*
X3095758Y2891881D01*
Y2905000D01*
X3102317Y2911559D01*
X3121996D01*
X3141675Y2918119D02*
Y2911559D01*
X3135115D01*
X3148234D01*
X3141675D01*
Y2891881D01*
X3148234Y2885321D01*
X3194151D02*
X3167913D01*
X3194151Y2911559D01*
Y2918119D01*
X3187591Y2924679D01*
X3174472D01*
X3167913Y2918119D01*
X3077960Y2205321D02*
Y2244679D01*
X3097639D01*
X3104198Y2238119D01*
Y2225000D01*
X3097639Y2218440D01*
X3077960D01*
X3091079D02*
X3104198Y2205321D01*
X3143555Y2244679D02*
Y2205321D01*
X3123877D01*
X3117317Y2211881D01*
Y2225000D01*
X3123877Y2231559D01*
X3143555D01*
X3163234Y2238119D02*
Y2231559D01*
X3156675D01*
X3169794D01*
X3163234D01*
Y2211881D01*
X3169794Y2205321D01*
X3189472D02*
X3202591D01*
X3196032D01*
Y2244679D01*
X3189472Y2238119D01*
X2507276Y3086000D02*
Y3125357D01*
X2526954D01*
X2533514Y3118798D01*
Y3105679D01*
X2526954Y3099119D01*
X2507276D01*
X2520395D02*
X2533514Y3086000D01*
X2572871Y3125357D02*
Y3086000D01*
X2553193D01*
X2546633Y3092560D01*
Y3105679D01*
X2553193Y3112238D01*
X2572871D01*
X2612229Y3086000D02*
X2585990D01*
X2612229Y3112238D01*
Y3118798D01*
X2605669Y3125357D01*
X2592550D01*
X2585990Y3118798D01*
X2499359Y2810321D02*
Y2849679D01*
X2519037D01*
X2525597Y2843119D01*
Y2830000D01*
X2519037Y2823440D01*
X2499359D01*
X2512478D02*
X2525597Y2810321D01*
X2564954Y2849679D02*
Y2810321D01*
X2545276D01*
X2538716Y2816881D01*
Y2830000D01*
X2545276Y2836559D01*
X2564954D01*
X2578073Y2810321D02*
X2591193D01*
X2584633D01*
Y2849679D01*
X2578073Y2843119D01*
X4908462Y2840321D02*
Y2879679D01*
X4928141D01*
X4934700Y2873119D01*
Y2860000D01*
X4928141Y2853440D01*
X4908462D01*
X4921581D02*
X4934700Y2840321D01*
X4967498D02*
Y2879679D01*
X4947819Y2860000D01*
X4974058D01*
X5317845Y2855321D02*
Y2894679D01*
X5337524D01*
X5344083Y2888119D01*
Y2875000D01*
X5337524Y2868440D01*
X5317845D01*
X5330964D02*
X5344083Y2855321D01*
X5376881D02*
Y2894679D01*
X5357202Y2875000D01*
X5383440D01*
X5396560D02*
X5422798D01*
X5462155Y2855321D02*
X5435917D01*
X5462155Y2881559D01*
Y2888119D01*
X5455596Y2894679D01*
X5442477D01*
X5435917Y2888119D01*
X4918462Y3445321D02*
Y3484679D01*
X4938141D01*
X4944700Y3478119D01*
Y3465000D01*
X4938141Y3458440D01*
X4918462D01*
X4931581D02*
X4944700Y3445321D01*
X4957819Y3478119D02*
X4964379Y3484679D01*
X4977498D01*
X4984058Y3478119D01*
Y3471559D01*
X4977498Y3465000D01*
X4970939D01*
X4977498D01*
X4984058Y3458440D01*
Y3451881D01*
X4977498Y3445321D01*
X4964379D01*
X4957819Y3451881D01*
X5297845Y3465321D02*
Y3504679D01*
X5317524D01*
X5324083Y3498119D01*
Y3485000D01*
X5317524Y3478440D01*
X5297845D01*
X5310964D02*
X5324083Y3465321D01*
X5337202Y3498119D02*
X5343762Y3504679D01*
X5356881D01*
X5363440Y3498119D01*
Y3491559D01*
X5356881Y3485000D01*
X5350321D01*
X5356881D01*
X5363440Y3478440D01*
Y3471881D01*
X5356881Y3465321D01*
X5343762D01*
X5337202Y3471881D01*
X5376560Y3485000D02*
X5402798D01*
X5442155Y3465321D02*
X5415917D01*
X5442155Y3491559D01*
Y3498119D01*
X5435596Y3504679D01*
X5422477D01*
X5415917Y3498119D01*
X4892202Y1370321D02*
Y1409679D01*
X4911881D01*
X4918440Y1403119D01*
Y1390000D01*
X4911881Y1383440D01*
X4892202D01*
X4905321D02*
X4918440Y1370321D01*
X4957798D02*
X4931560D01*
X4957798Y1396560D01*
Y1403119D01*
X4951238Y1409679D01*
X4938119D01*
X4931560Y1403119D01*
X5322845Y1395321D02*
Y1434679D01*
X5342524D01*
X5349083Y1428119D01*
Y1415000D01*
X5342524Y1408440D01*
X5322845D01*
X5335964D02*
X5349083Y1395321D01*
X5388440D02*
X5362202D01*
X5388440Y1421560D01*
Y1428119D01*
X5381881Y1434679D01*
X5368762D01*
X5362202Y1428119D01*
X5401560Y1415000D02*
X5427798D01*
X5467155Y1395321D02*
X5440917D01*
X5467155Y1421560D01*
Y1428119D01*
X5460596Y1434679D01*
X5447477D01*
X5440917Y1428119D01*
X4903762Y1980321D02*
Y2019679D01*
X4923440D01*
X4930000Y2013119D01*
Y2000000D01*
X4923440Y1993440D01*
X4903762D01*
X4916881D02*
X4930000Y1980321D01*
X4943119D02*
X4956238D01*
X4949679D01*
Y2019679D01*
X4943119Y2013119D01*
X5326125Y1981424D02*
Y2020781D01*
X5345803D01*
X5352363Y2014222D01*
Y2001102D01*
X5345803Y1994543D01*
X5326125D01*
X5339244D02*
X5352363Y1981424D01*
X5365482D02*
X5378601D01*
X5372042D01*
Y2020781D01*
X5365482Y2014222D01*
X5398280Y2001102D02*
X5424518D01*
X5463875Y1981424D02*
X5437637D01*
X5463875Y2007662D01*
Y2014222D01*
X5457316Y2020781D01*
X5444197D01*
X5437637Y2014222D01*
X5549238Y3769560D02*
Y3795798D01*
X5542679Y3802357D01*
X5529560D01*
X5523000Y3795798D01*
Y3769560D01*
X5529560Y3763000D01*
X5542679D01*
X5536119Y3776119D02*
X5549238Y3763000D01*
X5542679D02*
X5549238Y3769560D01*
X5588596Y3763000D02*
X5562357D01*
X5588596Y3789238D01*
Y3795798D01*
X5582036Y3802357D01*
X5568917D01*
X5562357Y3795798D01*
X5601715Y3782679D02*
X5627953D01*
X5549238Y3159560D02*
Y3185798D01*
X5542679Y3192357D01*
X5529560D01*
X5523000Y3185798D01*
Y3159560D01*
X5529560Y3153000D01*
X5542679D01*
X5536119Y3166119D02*
X5549238Y3153000D01*
X5542679D02*
X5549238Y3159560D01*
X5588596Y3153000D02*
X5562357D01*
X5588596Y3179238D01*
Y3185798D01*
X5582036Y3192357D01*
X5568917D01*
X5562357Y3185798D01*
X5601715Y3172679D02*
X5627953D01*
X5614834Y3185798D02*
Y3159560D01*
X5549238Y1694560D02*
Y1720798D01*
X5542679Y1727357D01*
X5529560D01*
X5523000Y1720798D01*
Y1694560D01*
X5529560Y1688000D01*
X5542679D01*
X5536119Y1701119D02*
X5549238Y1688000D01*
X5542679D02*
X5549238Y1694560D01*
X5562357Y1688000D02*
X5575476D01*
X5568917D01*
Y1727357D01*
X5562357Y1720798D01*
X5595155Y1707679D02*
X5621393D01*
X5549238Y2299560D02*
Y2325798D01*
X5542679Y2332357D01*
X5529560D01*
X5523000Y2325798D01*
Y2299560D01*
X5529560Y2293000D01*
X5542679D01*
X5536119Y2306119D02*
X5549238Y2293000D01*
X5542679D02*
X5549238Y2299560D01*
X5562357Y2293000D02*
X5575476D01*
X5568917D01*
Y2332357D01*
X5562357Y2325798D01*
X5595155Y2312679D02*
X5621393D01*
X5608274Y2325798D02*
Y2299560D01*
X5868000Y3522357D02*
Y3483000D01*
X5894238D01*
X5933596D02*
X5907357D01*
X5933596Y3509238D01*
Y3515798D01*
X5927036Y3522357D01*
X5913917D01*
X5907357Y3515798D01*
X5878000Y2347357D02*
Y2308000D01*
X5904238D01*
X5917357D02*
X5930476D01*
X5923917D01*
Y2347357D01*
X5917357Y2340798D01*
X2392317Y2279679D02*
X2379198D01*
X2385758D01*
Y2246881D01*
X2379198Y2240321D01*
X2372639D01*
X2366079Y2246881D01*
X2405436Y2240321D02*
X2418555D01*
X2411996D01*
Y2266559D01*
X2405436D01*
X2438234Y2240321D02*
Y2266559D01*
X2457913D01*
X2464472Y2260000D01*
Y2240321D01*
X4186276Y3907357D02*
Y3868000D01*
X4205954D01*
X4212514Y3874560D01*
Y3900798D01*
X4205954Y3907357D01*
X4186276D01*
X4225633D02*
Y3868000D01*
X4245312D01*
X4251871Y3874560D01*
Y3881119D01*
X4245312Y3887679D01*
X4225633D01*
X4245312D01*
X4251871Y3894238D01*
Y3900798D01*
X4245312Y3907357D01*
X4225633D01*
X4291229Y3868000D02*
X4264990D01*
X4291229Y3894238D01*
Y3900798D01*
X4284669Y3907357D01*
X4271550D01*
X4264990Y3900798D01*
X4186276Y2437357D02*
Y2398000D01*
X4205954D01*
X4212514Y2404560D01*
Y2430798D01*
X4205954Y2437357D01*
X4186276D01*
X4225633D02*
Y2398000D01*
X4245312D01*
X4251871Y2404560D01*
Y2411119D01*
X4245312Y2417679D01*
X4225633D01*
X4245312D01*
X4251871Y2424238D01*
Y2430798D01*
X4245312Y2437357D01*
X4225633D01*
X4264990Y2398000D02*
X4278109D01*
X4271550D01*
Y2437357D01*
X4264990Y2430798D01*
X4893462Y3299679D02*
Y3260321D01*
X4913141D01*
X4919700Y3266881D01*
Y3293119D01*
X4913141Y3299679D01*
X4893462D01*
X4952498Y3260321D02*
Y3299679D01*
X4932819Y3280000D01*
X4959058D01*
X4883462Y3889679D02*
Y3850321D01*
X4903141D01*
X4909700Y3856881D01*
Y3883119D01*
X4903141Y3889679D01*
X4883462D01*
X4922819Y3883119D02*
X4929379Y3889679D01*
X4942498D01*
X4949058Y3883119D01*
Y3876559D01*
X4942498Y3870000D01*
X4935939D01*
X4942498D01*
X4949058Y3863440D01*
Y3856881D01*
X4942498Y3850321D01*
X4929379D01*
X4922819Y3856881D01*
X4887202Y1829679D02*
Y1790321D01*
X4906881D01*
X4913440Y1796881D01*
Y1823119D01*
X4906881Y1829679D01*
X4887202D01*
X4952798Y1790321D02*
X4926560D01*
X4952798Y1816560D01*
Y1823119D01*
X4946238Y1829679D01*
X4933119D01*
X4926560Y1823119D01*
X4888762Y2434679D02*
Y2395321D01*
X4908440D01*
X4915000Y2401881D01*
Y2428119D01*
X4908440Y2434679D01*
X4888762D01*
X4928119Y2395321D02*
X4941238D01*
X4934679D01*
Y2434679D01*
X4928119Y2428119D01*
X2670276Y2138119D02*
X2663716Y2144679D01*
X2650597D01*
X2644037Y2138119D01*
Y2111881D01*
X2650597Y2105321D01*
X2663716D01*
X2670276Y2111881D01*
X2689954Y2138119D02*
Y2131559D01*
X2683395D01*
X2696514D01*
X2689954D01*
Y2111881D01*
X2696514Y2105321D01*
X6332017Y3044615D02*
X6325457Y3051175D01*
X6312338D01*
X6305779Y3044615D01*
Y3018377D01*
X6312338Y3011817D01*
X6325457D01*
X6332017Y3018377D01*
X3242638Y2768119D02*
X3236079Y2774679D01*
X3222960D01*
X3216400Y2768119D01*
Y2741881D01*
X3222960Y2735321D01*
X3236079D01*
X3242638Y2741881D01*
X3281996Y2774679D02*
Y2735321D01*
X3262317D01*
X3255758Y2741881D01*
Y2755000D01*
X3262317Y2761559D01*
X3281996D01*
X3301675Y2768119D02*
Y2761559D01*
X3295115D01*
X3308234D01*
X3301675D01*
Y2741881D01*
X3308234Y2735321D01*
X3354151D02*
X3327913D01*
X3354151Y2761559D01*
Y2768119D01*
X3347591Y2774679D01*
X3334472D01*
X3327913Y2768119D01*
X3269198Y2393119D02*
X3262639Y2399679D01*
X3249519D01*
X3242960Y2393119D01*
Y2366881D01*
X3249519Y2360321D01*
X3262639D01*
X3269198Y2366881D01*
X3308555Y2399679D02*
Y2360321D01*
X3288877D01*
X3282317Y2366881D01*
Y2380000D01*
X3288877Y2386559D01*
X3308555D01*
X3328234Y2393119D02*
Y2386559D01*
X3321675D01*
X3334794D01*
X3328234D01*
Y2366881D01*
X3334794Y2360321D01*
X3354472D02*
X3367591D01*
X3361032D01*
Y2399679D01*
X3354472Y2393119D01*
X4201045Y3043119D02*
X4194486Y3049679D01*
X4181367D01*
X4174807Y3043119D01*
Y3016881D01*
X4181367Y3010321D01*
X4194486D01*
X4201045Y3016881D01*
X4214164Y3049679D02*
Y3010321D01*
X4233843D01*
X4240403Y3016881D01*
Y3023440D01*
X4233843Y3030000D01*
X4214164D01*
X4233843D01*
X4240403Y3036559D01*
Y3043119D01*
X4233843Y3049679D01*
X4214164D01*
X4279760Y3010321D02*
X4253522D01*
X4279760Y3036559D01*
Y3043119D01*
X4273200Y3049679D01*
X4260081D01*
X4253522Y3043119D01*
X4447908Y3238119D02*
X4441349Y3244679D01*
X4428230D01*
X4421670Y3238119D01*
Y3211881D01*
X4428230Y3205321D01*
X4441349D01*
X4447908Y3211881D01*
X4461027Y3244679D02*
Y3205321D01*
X4480706D01*
X4487266Y3211881D01*
Y3218440D01*
X4480706Y3225000D01*
X4461027D01*
X4480706D01*
X4487266Y3231559D01*
Y3238119D01*
X4480706Y3244679D01*
X4461027D01*
X4526623Y3205321D02*
X4500385D01*
X4526623Y3231559D01*
Y3238119D01*
X4520064Y3244679D01*
X4506944D01*
X4500385Y3238119D01*
X4539742Y3225000D02*
X4565980D01*
X4605338Y3205321D02*
X4579100D01*
X4605338Y3231559D01*
Y3238119D01*
X4598778Y3244679D01*
X4585659D01*
X4579100Y3238119D01*
X4217605Y1568119D02*
X4211045Y1574679D01*
X4197926D01*
X4191367Y1568119D01*
Y1541881D01*
X4197926Y1535321D01*
X4211045D01*
X4217605Y1541881D01*
X4230724Y1574679D02*
Y1535321D01*
X4250403D01*
X4256962Y1541881D01*
Y1548440D01*
X4250403Y1555000D01*
X4230724D01*
X4250403D01*
X4256962Y1561560D01*
Y1568119D01*
X4250403Y1574679D01*
X4230724D01*
X4270081Y1535321D02*
X4283200D01*
X4276641D01*
Y1574679D01*
X4270081Y1568119D01*
X4417960Y1753119D02*
X4411400Y1759679D01*
X4398281D01*
X4391721Y1753119D01*
Y1726881D01*
X4398281Y1720321D01*
X4411400D01*
X4417960Y1726881D01*
X4431079Y1759679D02*
Y1720321D01*
X4450758D01*
X4457317Y1726881D01*
Y1733440D01*
X4450758Y1740000D01*
X4431079D01*
X4450758D01*
X4457317Y1746560D01*
Y1753119D01*
X4450758Y1759679D01*
X4431079D01*
X4470436Y1720321D02*
X4483555D01*
X4476996D01*
Y1759679D01*
X4470436Y1753119D01*
X4503234Y1740000D02*
X4529472D01*
X4568830Y1720321D02*
X4542592D01*
X4568830Y1746560D01*
Y1753119D01*
X4562270Y1759679D01*
X4549151D01*
X4542592Y1753119D01*
X2948716Y2993119D02*
X2942157Y2999679D01*
X2929037D01*
X2922478Y2993119D01*
Y2966881D01*
X2929037Y2960321D01*
X2942157D01*
X2948716Y2966881D01*
X2988073Y2960321D02*
X2961835D01*
X2988073Y2986559D01*
Y2993119D01*
X2981514Y2999679D01*
X2968395D01*
X2961835Y2993119D01*
X2990276Y2173119D02*
X2983716Y2179679D01*
X2970597D01*
X2964037Y2173119D01*
Y2146881D01*
X2970597Y2140321D01*
X2983716D01*
X2990276Y2146881D01*
X3003395Y2140321D02*
X3016514D01*
X3009954D01*
Y2179679D01*
X3003395Y2173119D01*
D62*
X2569606Y2531378D02*
G03*
X2569606Y2531378I-11811J0D01*
G01*
D63*
X3955433Y3626890D02*
Y3687638D01*
X3675118D02*
X3955433D01*
X3675118Y3626890D02*
Y3687638D01*
Y2892362D02*
Y2953110D01*
Y2892362D02*
X3955433D01*
Y2953110D01*
Y1422362D02*
Y1483110D01*
X3675118Y1422362D02*
X3955433D01*
X3675118D02*
Y1483110D01*
Y2156890D02*
Y2217638D01*
X3955433D01*
Y2156890D02*
Y2217638D01*
D64*
X4828740Y3180010D02*
D03*
Y2310010D02*
D03*
Y1710010D02*
D03*
Y3770010D02*
D03*
%TF.MD5,b04b2ee5fff6e872009656b51ccdf139*%
M02*
