%TF.GenerationSoftware,Altium Limited,Altium Designer,20.0.13 (296)*%
G04 Layer_Color=255*
%FSLAX26Y26*%
%MOIN*%
%TF.FileFunction,Pads,Top*%
%TF.Part,Single*%
G01*
G75*
%TA.AperFunction,SMDPad,CuDef*%
%ADD10R,0.057087X0.051181*%
%ADD11R,0.070866X0.135827*%
%ADD12R,0.057087X0.045276*%
G04:AMPARAMS|DCode=13|XSize=25.591mil|YSize=64.961mil|CornerRadius=1.919mil|HoleSize=0mil|Usage=FLASHONLY|Rotation=180.000|XOffset=0mil|YOffset=0mil|HoleType=Round|Shape=RoundedRectangle|*
%AMROUNDEDRECTD13*
21,1,0.025591,0.061122,0,0,180.0*
21,1,0.021752,0.064961,0,0,180.0*
1,1,0.003839,-0.010876,0.030561*
1,1,0.003839,0.010876,0.030561*
1,1,0.003839,0.010876,-0.030561*
1,1,0.003839,-0.010876,-0.030561*
%
%ADD13ROUNDEDRECTD13*%
%ADD14R,0.064961X0.043307*%
%ADD15R,0.057087X0.053150*%
%ADD16R,0.043307X0.064961*%
%TA.AperFunction,ViaPad*%
%ADD20C,0.150000*%
%TA.AperFunction,ComponentPad*%
%ADD21R,0.059055X0.059055*%
%ADD22R,0.066929X0.066929*%
%ADD23C,0.066929*%
%ADD24C,0.064961*%
%ADD25C,0.078740*%
%ADD26R,0.078740X0.078740*%
%ADD27R,0.059055X0.059055*%
%ADD28R,0.062992X0.062992*%
%ADD29C,0.062992*%
%ADD30C,0.055118*%
%ADD31C,0.049213*%
%ADD32R,0.049213X0.049213*%
D10*
X4468504Y3361496D02*
D03*
Y3298504D02*
D03*
X4455276Y1828504D02*
D03*
Y1891496D02*
D03*
D11*
X4232283Y3360394D02*
D03*
Y3159606D02*
D03*
Y1689606D02*
D03*
Y1890394D02*
D03*
D12*
X3285276Y2895433D02*
D03*
Y2824567D02*
D03*
X3290276Y2229567D02*
D03*
Y2300433D02*
D03*
D13*
X2890276Y2666220D02*
D03*
X2840276D02*
D03*
X2790276D02*
D03*
X2740276D02*
D03*
X2690276D02*
D03*
X2640276D02*
D03*
X2590276D02*
D03*
X2540276D02*
D03*
X2890276Y2443780D02*
D03*
X2840276D02*
D03*
X2790276D02*
D03*
X2740276D02*
D03*
X2690276D02*
D03*
X2640276D02*
D03*
X2590276D02*
D03*
X2540276D02*
D03*
D14*
X2840276Y2937205D02*
D03*
Y2825000D02*
D03*
X5270000Y1371102D02*
D03*
Y1258898D02*
D03*
Y1937205D02*
D03*
Y1825000D02*
D03*
Y2801102D02*
D03*
Y2688898D02*
D03*
Y3411102D02*
D03*
Y3298898D02*
D03*
X2640276Y2876102D02*
D03*
Y2763898D02*
D03*
X2890276Y2187795D02*
D03*
Y2300000D02*
D03*
X2790276Y2188898D02*
D03*
Y2301102D02*
D03*
D15*
X2995276Y2235039D02*
D03*
Y2300000D02*
D03*
X2955276Y2889961D02*
D03*
Y2825000D02*
D03*
X2700276Y2272480D02*
D03*
Y2207520D02*
D03*
D16*
X3186378Y2825000D02*
D03*
X3074173D02*
D03*
X3191378Y2300000D02*
D03*
X3079173D02*
D03*
X2641378Y3010000D02*
D03*
X2529173D02*
D03*
D20*
X6496063Y4055118D02*
D03*
Y1220472D02*
D03*
X2401575Y4055118D02*
D03*
Y1220472D02*
D03*
D21*
X2539370Y1874016D02*
D03*
D22*
X3374016Y4055118D02*
D03*
D23*
X3570866D02*
D03*
D24*
X6535433Y1905000D02*
D03*
Y2905000D02*
D03*
X6315000D02*
D03*
Y1905000D02*
D03*
X4232283Y3491457D02*
D03*
Y3798543D02*
D03*
X5940000Y2595000D02*
D03*
Y3395000D02*
D03*
X5950000Y2220000D02*
D03*
Y1420000D02*
D03*
X4232283Y2328543D02*
D03*
Y2021457D02*
D03*
D25*
X5127165Y3180000D02*
D03*
Y2310000D02*
D03*
Y1710000D02*
D03*
Y3770000D02*
D03*
D26*
X4715354Y3180000D02*
D03*
Y2310000D02*
D03*
Y1710000D02*
D03*
Y3770000D02*
D03*
D27*
X2540276Y2275000D02*
D03*
D28*
X5590551Y3595000D02*
D03*
Y2125000D02*
D03*
Y2985000D02*
D03*
Y1520000D02*
D03*
D29*
Y3495000D02*
D03*
Y3395000D02*
D03*
Y1925000D02*
D03*
Y2025000D02*
D03*
Y2785000D02*
D03*
Y2885000D02*
D03*
Y1320000D02*
D03*
Y1420000D02*
D03*
D30*
X5271260Y2985000D02*
D03*
X4571260D02*
D03*
X5271260Y2120000D02*
D03*
X4571260D02*
D03*
X5271260Y1520000D02*
D03*
X4571260D02*
D03*
Y3595000D02*
D03*
X5271260D02*
D03*
D31*
X3665276Y2990000D02*
D03*
Y3090000D02*
D03*
Y3190000D02*
D03*
Y3290000D02*
D03*
Y3390000D02*
D03*
Y3490000D02*
D03*
Y3590000D02*
D03*
X3965276D02*
D03*
Y3490000D02*
D03*
Y3390000D02*
D03*
Y3290000D02*
D03*
Y3190000D02*
D03*
Y3090000D02*
D03*
Y1620000D02*
D03*
Y1720000D02*
D03*
Y1820000D02*
D03*
Y1920000D02*
D03*
Y2020000D02*
D03*
Y2120000D02*
D03*
X3665276D02*
D03*
Y2020000D02*
D03*
Y1920000D02*
D03*
Y1820000D02*
D03*
Y1720000D02*
D03*
Y1620000D02*
D03*
Y1520000D02*
D03*
D32*
X3965276Y2990000D02*
D03*
Y1520000D02*
D03*
%TF.MD5,83e8c21f1ea7adf36229551c11afaf7a*%
M02*
